<?xml version="1.0" standalone="no"?>
<!DOCTYPE svg PUBLIC "-//W3C//DTD SVG 1.1//EN" "http://www.w3.org/Graphics/SVG/1.1/DTD/svg11.dtd" >
<svg>
<metadata>
Created by FontForge 20090914 at Fri Apr 13 04:48:12 2012
 By www-data
Copyright (c) 2010, 2011, Natalia Raices&#60;nraices@gmail.com&#62;, with Reserved Font Name "Delius" "Delius Unicase" "Delius Swash Caps".
</metadata>
<defs>
<font id="DeliusUnicase-Bold" horiz-adv-x="823" >
  <font-face 
    font-family="Delius Unicase"
    font-weight="700"
    font-stretch="normal"
    units-per-em="1000"
    panose-1="2 0 6 3 0 0 0 0 0 0"
    ascent="800"
    descent="-200"
    x-height="756"
    cap-height="756"
    bbox="5 -251.997 1283 1031"
    underline-thickness="50"
    underline-position="-150"
    unicode-range="U+0020-U+F6C3"
  />
<missing-glyph horiz-adv-x="1000" 
 />
    <glyph glyph-name=".notdef" horiz-adv-x="1000" 
 />
    <glyph glyph-name="space" unicode=" " horiz-adv-x="313" 
 />
    <glyph glyph-name="exclam" unicode="!" horiz-adv-x="314" 
d="M224 461l1 -149c0 -26 -6.16699 -46.667 -18.5 -62s-29 -23 -50 -23s-37.667 7.66699 -50 23s-18.5 36 -18.5 62l2 149l-7 201c0 31.333 6.5 55.5 19.5 72.5s31.167 25.5 54.5 25.5s41.5 -8.5 54.5 -25.5s19.5 -41.167 19.5 -72.5zM214 126.5
c13.333 -15 20 -33.5 20 -55.5s-7.66699 -41.833 -23 -59.5s-34.5 -26.5 -57.5 -26.5s-41 7.66699 -54 23s-19.5 34 -19.5 56s7.5 41.667 22.5 59s34 26 57 26s41.167 -7.5 54.5 -22.5z" />
    <glyph glyph-name="quotedbl" unicode="&#x22;" horiz-adv-x="473" 
d="M128 497c-19.333 0 -33.668 7.33301 -43.001 22s-14 30.334 -14 47.001s-1.83301 36.5 -5.5 59.5s-5.5 44.167 -5.5 63.5s6.16699 36 18.5 50s28.833 21 49.5 21s37.167 -7 49.5 -21s18.5 -30.667 18.5 -50s-1.83301 -40.5 -5.5 -63.5s-5.5 -42.833 -5.5 -59.5
s-4.66699 -32.334 -14 -47.001s-23.666 -22 -42.999 -22zM344.998 497c-19.333 0 -33.668 7.33301 -43.001 22s-14 30.334 -14 47.001s-1.83301 36.5 -5.5 59.5s-5.5 44.167 -5.5 63.5s6.16699 36 18.5 50s28.833 21 49.5 21s37.167 -7 49.5 -21s18.5 -30.667 18.5 -50
s-1.83301 -40.5 -5.5 -63.5s-5.5 -42.833 -5.5 -59.5s-4.66699 -32.334 -14 -47.001s-23.666 -22 -42.999 -22z" />
    <glyph glyph-name="numbersign" unicode="#" horiz-adv-x="866" 
d="M349 286l142 0.999023c12.667 62 20.667 104.667 24 128h-141c-4 -23.333 -8.83301 -48.666 -14.5 -75.999s-9.16699 -45 -10.5 -53zM177 530.999l95.002 -2.99707c2.66699 10.667 5.83398 27.667 9.50098 51s7.5 44 11.5 62c10 47.333 33.667 71 71 71
c20 0 35 -7 45 -21s15 -28.5 15 -43.5s-3.33301 -35.833 -10 -62.5s-11.334 -46.667 -14.001 -60h134c2.66699 10.667 5.83398 28.334 9.50098 53.001s7.5 46 11.5 64c10 47.333 33.667 71 71 71c20 0 35 -7 45 -21s15 -28.5 15 -43.5s-3.33301 -35.833 -10 -62.5
s-11.334 -46.334 -14.001 -59.001l71 3c26 0 45.833 -5.5 59.5 -16.5s20.5 -25.833 20.5 -44.5c0 -39.333 -26.667 -59 -80 -59l-98 2c-2.66699 -14 -6.83398 -34.333 -12.501 -61s-9.5 -47 -11.5 -61l78 2c54 0 81 -19.667 81 -59c0 -18.667 -6.83301 -33.5 -20.5 -44.5
s-33.834 -16.5 -60.501 -16.5l-98 3c-2.66699 -12.667 -5.66699 -30.834 -9 -54.501s-6.33301 -42.834 -9 -57.501c-8.66699 -46.667 -31.334 -70 -68.001 -70c-15.333 0 -29 5.83301 -41 17.5s-18 28.167 -18 49.5c0 13.333 3 32.666 9 57.999s10 45 12 59h-134
c-2.66699 -12.667 -6.33398 -31.667 -11.001 -57l-12 -66c-8.66699 -42 -31 -63 -67 -63c-16 0 -30.167 6 -42.5 18s-18.5 26.5 -18.5 43.5s3.16699 38.167 9.5 63.5s10.833 45.333 13.5 60l-72 -3c-26 0 -45.833 5.5 -59.5 16.5s-20.5 25.833 -20.5 44.5
c0 39.333 26.667 59 80 59l98 -2c2.66699 14 6.83398 34.333 12.501 61s9.5 47 11.5 61l-78 -2c-54 0 -81 19.667 -81 59c0 18.667 6.83301 33.5 20.5 44.5s33.834 16.5 60.501 16.5z" />
    <glyph glyph-name="dollar" unicode="$" horiz-adv-x="626" 
d="M429 197c0 24 -16.667 45.332 -50 63.999v-133c14 6.66699 25.833 16.334 35.5 29.001s14.5 26 14.5 40zM254 593.999c-24.667 -12.667 -37 -30.168 -37 -52.501s13.667 -43.166 41 -62.499c-2 64.667 -3.33301 103 -4 115zM258 119.998l2.00195 210.004
c-52 29.333 -90 55.166 -114 77.499s-40.833 43.666 -50.5 63.999s-14.5 41.833 -14.5 64.5c0 42 15.833 79.5 47.5 112.5s72.5 55.167 122.5 66.5c4 58 26.833 87 68.5 87s64.5 -28.667 68.5 -86c41.333 -8.66699 75.833 -22.834 103.5 -42.501s41.5 -40.167 41.5 -61.5
s-5.33301 -37.333 -16 -48s-22.667 -16 -36 -16s-25.333 2 -36 6s-22.334 9.33301 -35.001 16s-21 10.667 -25 12c-1.33301 -34.667 -2 -92 -2 -172c93.333 -50.667 150.666 -98.667 171.999 -144c10 -21.333 15 -44.333 15 -69c0 -46.667 -16.5 -88 -49.5 -124
s-76.833 -60.667 -131.5 -74c-4 -62 -26.833 -93 -68.5 -93s-64.5 29 -68.5 87c-52 9.33301 -97.5 27.666 -136.5 54.999s-58.5 53.666 -58.5 78.999c0 18 5.66699 32.833 17 44.5s25.5 17.5 42.5 17.5s39.333 -10.167 67 -30.5s52.5 -33.166 74.5 -38.499z" />
    <glyph glyph-name="percent" unicode="%" horiz-adv-x="937" 
d="M664 681c0 -34.667 -18.668 -73 -56.001 -115l-179 -518c-14.667 -42 -39 -63 -73 -63c-16.667 0 -30.667 6 -42 18s-17 26.167 -17 42.5s8.66699 47.333 26 93l68.5 180c28.333 74.333 51.833 141.166 70.5 200.499c-6.66699 -2 -18.167 -3 -34.5 -3s-29.833 2 -40.5 6
c-1.33301 -51.333 -17.333 -94.5 -48 -129.5s-70.667 -52.5 -120 -52.5s-89.333 17.333 -120 52s-46 79 -46 133s15.833 99.167 47.5 135.5s71.834 54.5 120.501 54.5c29.333 0 68 -14 116 -42s87.667 -42 119 -42c12 0 25 2.33301 39 7c15.333 51.333 29 84 41 98
c14 15.333 31.5 23 52.5 23s38.833 -7.16699 53.5 -21.5s22 -33.166 22 -56.499zM838.999 308c30.667 -34.667 46 -79 46 -133s-15.833 -99.167 -47.5 -135.5s-72.5 -54.5 -122.5 -54.5s-90.333 17.5 -121 52.5s-46 79.5 -46 133.5s15.833 99 47.5 135s72.5 54 122.5 54
s90.333 -17.333 121 -52zM270.999 527c0 23.333 -4.33301 42.667 -13 58s-21 23 -37 23s-28.667 -7.66699 -38 -23s-14 -34.5 -14 -57.5s4.66699 -42.167 14 -57.5s21.833 -23 37.5 -23s28 7.5 37 22.5s13.5 34.167 13.5 57.5zM766.999 171.001
c0 23.333 -4.33301 42.667 -13 58s-21 23 -37 23s-28.667 -7.66699 -38 -23s-14 -34.5 -14 -57.5s4.66699 -42.167 14 -57.5s21.833 -23 37.5 -23s28 7.5 37 22.5s13.5 34.167 13.5 57.5z" />
    <glyph glyph-name="ampersand" unicode="&#x26;" horiz-adv-x="840" 
d="M477 392l66.9971 -1.99707c87.333 0 131 21.333 131 64c0 15.333 -5.66699 28.666 -17 39.999s-24 19.833 -38 25.5s-26.667 13.667 -38 24s-17 23.5 -17 39.5s5.66699 29.667 17 41s28.333 17 51 17c42.667 0 83.334 -19.167 122.001 -57.5s58 -83.5 58 -135.5
s-19.167 -93.333 -57.5 -124s-85.166 -48.334 -140.499 -53.001c5.33301 -21.333 8 -41 8 -59c0 -59.333 -25.833 -112 -77.5 -158s-118.834 -69 -201.501 -69s-151.667 24.833 -207 74.5s-83 111.834 -83 186.501c0 38.667 8.66699 76.5 26 113.5s41 69.167 71 96.5
c-33.333 39.333 -50 82 -50 128s18 87.667 54 125s86.667 56 152 56c41.333 0 79.833 -11.167 115.5 -33.5s53.5 -45 53.5 -68s-6.16699 -39.833 -18.5 -50.5s-26.166 -16 -41.499 -16s-33.833 6.83301 -55.5 20.5s-41.167 20.5 -58.5 20.5s-32.166 -5.33301 -44.499 -16
s-18.5 -26.834 -18.5 -48.501s10.333 -40.5 31 -56.5c13.333 1.33301 25.333 2 36 2c26 0 47.333 -6.5 64 -19.5s25 -30.667 25 -53s-9 -39.833 -27 -52.5s-37.167 -19 -57.5 -19s-37.833 2 -52.5 6c-42.667 -30 -64 -72.333 -64 -127c0 -42.667 13.833 -77 41.5 -103
s64 -39 109 -39s80 11.667 105 35s37.5 48.666 37.5 75.999c0 12.667 -2 26 -6 40c-14 -12.667 -29.5 -19 -46.5 -19s-31.5 6.33301 -43.5 19s-18 30 -18 52s9.66699 40.333 29 55s44.333 22 75 22z" />
    <glyph glyph-name="quotesingle" unicode="'" horiz-adv-x="256" 
d="M128 497c-19.333 0 -33.668 7.33301 -43.001 22s-14 30.334 -14 47.001s-1.83301 36.5 -5.5 59.5s-5.5 44.167 -5.5 63.5s6.16699 36 18.5 50s28.833 21 49.5 21s37.167 -7 49.5 -21s18.5 -30.667 18.5 -50s-1.83301 -40.5 -5.5 -63.5s-5.5 -42.833 -5.5 -59.5
s-4.66699 -32.334 -14 -47.001s-23.666 -22 -42.999 -22z" />
    <glyph glyph-name="parenleft" unicode="(" horiz-adv-x="364" 
d="M77 208.5c-16.667 60.333 -25 123.167 -25 188.5s12.333 133.166 37 203.499s54.5 127 89.5 170s67.167 64.5 96.5 64.5c20 0 35.667 -6.83301 47 -20.5s17 -29.167 17 -46.5s-7.83301 -38 -23.5 -62s-32.667 -48 -51 -72s-35.333 -60.5 -51 -109.5
s-23.5 -102.5 -23.5 -160.5s7.16699 -111.333 21.5 -160s30.333 -86.667 48 -114l48 -75.5c14.333 -23 21.5 -40.667 21.5 -53s-4.66699 -23 -14 -32s-22.5 -13.5 -39.5 -13.5s-38.167 12.833 -63.5 38.5s-50 59.334 -74 101.001s-44.333 92.667 -61 153z" />
    <glyph glyph-name="parenright" unicode=")" horiz-adv-x="364" 
d="M275 600.5c24.667 -70.333 37 -138.167 37 -203.5s-8.33301 -128.166 -25 -188.499s-37 -111.333 -61 -153s-48.667 -75.334 -74 -101.001s-46.5 -38.5 -63.5 -38.5s-30.167 4.5 -39.5 13.5s-14 19.667 -14 32s7.16699 30 21.5 53l48 75.5
c17.667 27.333 33.667 65.333 48 114s21.5 102 21.5 160s-7.83301 111.5 -23.5 160.5s-32.667 85.5 -51 109.5s-35.333 48 -51 72s-23.5 44.667 -23.5 62s5.66699 32.833 17 46.5s27 20.5 47 20.5c29.333 0 61.5 -21.5 96.5 -64.5s64.833 -99.667 89.5 -170z" />
    <glyph glyph-name="asterisk" unicode="*" horiz-adv-x="462" 
d="M394 646c0 -24.667 -13.6689 -44.332 -41.002 -58.999c27.333 -14.667 41 -34.334 41 -59.001c0 -16.667 -6.5 -30.5 -19.5 -41.5s-26 -16.5 -39 -16.5s-25.5 2.33301 -37.5 7c-0.666992 -20 -7.16699 -36.167 -19.5 -48.5s-28.333 -18.5 -48 -18.5
s-35.667 6.16699 -48 18.5s-18.5 28.5 -18.5 48.5c-11.333 -4.66699 -23.666 -7 -36.999 -7s-26.5 5.5 -39.5 16.5s-19.5 24.833 -19.5 41.5c0 25.333 13.667 45 41 59c-27.333 14 -41 33.667 -41 59c0 16.667 6.33301 30.5 19 41.5s26 16.5 40 16.5s26.333 -2.66699 37 -8
c0 20.667 6.16699 37.334 18.5 50.001s28.333 19 48 19s35.834 -6.33301 48.501 -19s19 -29.334 19 -50.001c10.667 5.33301 23 8 37 8s27.333 -5.5 40 -16.5s19 -24.833 19 -41.5z" />
    <glyph glyph-name="plus" unicode="+" horiz-adv-x="592" 
d="M235 435l-3.00098 96.999c0 24 5.83301 43 17.5 57s27.5 21 47.5 21s36 -7.16699 48 -21.5s18 -33.5 18 -57.5l-3 -96l109 2c20.667 0 37.834 -6 51.501 -18s20.5 -26.833 20.5 -44.5s-6.83301 -32.334 -20.5 -44.001s-28.5 -17.5 -44.5 -17.5s-54.667 0.666992 -116 2
l3 -109c0 -24 -5.83301 -43.333 -17.5 -58s-27.667 -22 -48 -22s-36.333 7.5 -48 22.5s-17.5 34.5 -17.5 58.5l3 109l-109 -2c-21.333 0 -38.833 5.83301 -52.5 17.5s-20.5 26.334 -20.5 44.001s7 32.334 21 44.001s29 17.5 45 17.5s54.667 -0.666992 116 -2z" />
    <glyph glyph-name="comma" unicode="," horiz-adv-x="264" 
d="M56 -3l-10.001 76.001c0 22.667 7.5 42.667 22.5 60s34 26 57 26s41.167 -8 54.5 -24s20 -35.333 20 -58c0 -45.333 -14.333 -92 -43 -140s-55 -72 -79 -72c-15.333 0 -26.666 4.66699 -33.999 14s-11 19.166 -11 29.499s3.83301 24.333 11.5 42s11.5 33.167 11.5 46.5z
" />
    <glyph glyph-name="hyphen" unicode="-" horiz-adv-x="500" 
d="M251 432l106 5c20.667 0 37.834 -6 51.501 -18s20.5 -26.667 20.5 -44s-6.83301 -32 -20.5 -44s-30.834 -18 -51.501 -18l-106 5l-107 -4c-20.667 0 -38 5.83301 -52 17.5s-21 26.167 -21 43.5s7 31.833 21 43.5s31.333 17.5 52 17.5z" />
    <glyph glyph-name="period" unicode="." horiz-adv-x="287" 
d="M203.5 140c14.333 -16 21.5 -35.665 21.5 -58.998s-8.16699 -44.333 -24.5 -63s-36.666 -28 -60.999 -28s-43.5 8.16699 -57.5 24.5s-21 36.166 -21 59.499s8 44.166 24 62.499s36.167 27.5 60.5 27.5s43.666 -8 57.999 -24z" />
    <glyph glyph-name="slash" unicode="/" horiz-adv-x="452" 
d="M108.5 183c17.667 62.667 34.002 125.831 49.002 189.498s42.5 186.834 82.5 369.501c15.333 64.667 42 97 80 97c20.667 0 37.5 -6.83301 50.5 -20.5s19.5 -29.5 19.5 -47.5s-3.33301 -39.833 -10 -65.5s-19 -70.167 -37 -133.5
c-30.667 -109.333 -74.667 -295.666 -132 -558.999c-4 -18 -8.33301 -33 -13 -45s-12.834 -23.667 -24.501 -35s-26.834 -17 -45.501 -17s-34.5 6.83301 -47.5 20.5s-19.5 29.5 -19.5 47.5s3.5 40 10.5 66z" />
    <glyph glyph-name="zero" unicode="0" horiz-adv-x="731" 
d="M664 375c0 -68.667 -11.167 -132.165 -33.5 -190.498s-56.5 -106.166 -102.5 -143.499s-99.5 -56 -160.5 -56s-114.833 18.667 -161.5 56s-81.667 85.166 -105 143.499s-35 121.833 -35 190.5c0 105.333 27.667 196.666 83 273.999s128.333 116 219 116
s162.667 -38.333 216 -115s80 -168.334 80 -275.001zM480 188.502c28 51.667 42 113.667 42 186s-14 134.333 -42 186s-65.5 77.5 -112.5 77.5s-85.333 -26.167 -115 -78.5s-44.5 -114 -44.5 -185s14.833 -132.667 44.5 -185s68 -78.5 115 -78.5s84.5 25.833 112.5 77.5z
" />
    <glyph glyph-name="one" unicode="1" horiz-adv-x="510" 
d="M235 98l5.99902 255.998c0 22.667 -0.333008 42.667 -1 60c-0.666992 50.667 -1 101 -1 151c-22 -26.667 -42.5 -53.667 -61.5 -81s-32.833 -46 -41.5 -56c-15.333 -18 -32.166 -27 -50.499 -27s-33.833 5.83301 -46.5 17.5s-19 26.834 -19 45.501s5.5 36.5 16.5 53.5
s28 38.833 51 65.5s43.333 51.834 61 75.501s31.667 41.167 42 52.5s23.5 22.333 39.5 33s32.333 16 49 16c68.667 0 103 -44 103 -132l-5 -258l8 -272c0 -72 -25 -108 -75 -108s-75 36 -75 108z" />
    <glyph glyph-name="two" unicode="2" horiz-adv-x="616" 
d="M315 122l163 5.99902c24.667 0 44.5 -6 59.5 -18s22.5 -28.167 22.5 -48.5s-7.5 -36.666 -22.5 -48.999s-34.833 -18.5 -59.5 -18.5l-163 6l-173 -6c-60.667 0 -91 25 -91 75c0 18 8.83301 41.333 26.5 70s35.334 53.5 53.001 74.5l74 85.5l67 77
c13 15.333 29.5 36 49.5 62c37.333 48.667 56 86.5 56 113.5s-8.16699 48.167 -24.5 63.5s-33.833 23 -52.5 23s-33.5 -3.66699 -44.5 -11s-20.333 -16.166 -28 -26.499l-23.5 -30.5c-18 -25.333 -38 -38 -60 -38s-39.333 6.16699 -52 18.5s-19 26.833 -19 43.5
c0 35.333 21.167 72.666 63.5 111.999s96.833 59 163.5 59s119.667 -20 159 -60s59 -89.333 59 -148c0 -45.333 -20.667 -96 -62 -152c-28 -38.667 -70.333 -91 -127 -157c-52.667 -64 -85.334 -105.667 -98.001 -125c17.333 -0.666992 45.333 -1 84 -1z" />
    <glyph glyph-name="three" unicode="3" horiz-adv-x="627" 
d="M319 750l134.998 4.00293c58.667 0 88 -24.667 88 -74c0 -22 -32.667 -69.333 -98 -142c-31.333 -35.333 -48.666 -55 -51.999 -59c55.333 -20.667 98.833 -52 130.5 -94s47.5 -88.667 47.5 -140c0 -68.667 -24 -129 -72 -181s-113.333 -78 -196 -78
c-64 0 -120 17.5 -168 52.5s-72 69.833 -72 104.5c0 15.333 4.66699 28.833 14 40.5s21.5 17.5 36.5 17.5s29.333 -4.66699 43 -14s26.167 -19.5 37.5 -30.5s26.833 -21.167 46.5 -30.5s40.167 -14 61.5 -14c37.333 0 67.833 12.5 91.5 37.5s35.5 55.5 35.5 91.5
s-11.333 65.667 -34 89s-50 37.666 -82 42.999c-20.667 -20 -38.667 -33.667 -54 -41s-33.833 -11 -55.5 -11s-39.167 6.66699 -52.5 20s-20 30.333 -20 51s9.33301 40.5 28 59.5s46.667 33.5 84 43.5c42.667 47.333 80.334 91.666 113.001 132.999
c-6.66699 0.666992 -17 1 -31 1l-161 -7c-24.667 0 -44.5 6 -59.5 18s-22.5 28.167 -22.5 48.5s7.5 36.666 22.5 48.999s34.833 18.5 59.5 18.5z" />
    <glyph glyph-name="four" unicode="4" horiz-adv-x="653" 
d="M370 352l1 127c0 36 -0.333008 63.333 -1 82c-34 -39.333 -86.667 -109 -158 -209h158zM510 672l-4 -316.999c13.333 1.33301 23.333 2 30 2c20.667 0 38 -6 52 -18s21 -27.667 21 -47c0 -43.333 -33 -65 -99 -65c2.66699 -56 4 -99 4 -129c0 -72 -25.333 -108 -76 -108
s-76 36 -76 108c0 32 1.33301 75.333 4 130h-258c-24 0 -43 6.66699 -57 20s-21 29.166 -21 47.499s6.5 38.333 19.5 60s38.5 55.167 76.5 100.5l187 228c38.667 50.667 76 76 112 76c23.333 0 43.333 -6.83301 60 -20.5s25 -36.167 25 -67.5z" />
    <glyph glyph-name="five" unicode="5" horiz-adv-x="644" 
d="M309 750l156.002 5.99902c24.667 0 44.5 -6.16699 59.5 -18.5s22.5 -28.666 22.5 -48.999s-7.5 -36.5 -22.5 -48.5s-34.833 -18 -59.5 -18l-156 6c-38 0 -64.667 -0.333008 -80 -1c2 -44 3 -70 3 -78l-3 -63c30.667 18 66 27 106 27c79.333 0 141 -24.333 185 -73
s66 -109.667 66 -183s-24.667 -137 -74 -191s-115.333 -81 -198 -81c-69.333 0 -127.5 20.333 -174.5 61s-70.5 78 -70.5 112c0 18 6 33.167 18 45.5s26.667 18.5 44 18.5s30.666 -3.33301 39.999 -10s18.666 -16.667 27.999 -30c32.667 -46.667 73 -70 121 -70
c35.333 0 64.833 14.667 88.5 44s35.5 63.166 35.5 101.499s-10.167 70 -30.5 95s-47.666 37.5 -81.999 37.5s-67.833 -10 -100.5 -30s-57.334 -30 -74.001 -30c-48.667 0 -73 23 -73 69c0 16.667 2.33301 41 7 73s7 56.333 7 73s-2 39.334 -6 68.001s-6 51 -6 67
c0 49.333 29.333 74 88 74z" />
    <glyph glyph-name="six" unicode="6" horiz-adv-x="645" 
d="M522 426c43.333 -50.667 65.002 -110.332 65.002 -178.999s-22.667 -129.334 -68 -182.001s-108.5 -79 -189.5 -79s-145 28.5 -192 85.5s-70.5 128.5 -70.5 214.5s16.333 164.833 49 236.5s79 129 139 172s126.667 64.5 200 64.5c31.333 0 55.333 -5.66699 72 -17
s25 -26.333 25 -45s-8.83301 -34.667 -26.5 -48s-42.834 -20 -75.501 -20c-90.667 0 -160.667 -51.333 -210 -154c37.333 18 72.666 27 105.999 27c74 0 132.667 -25.333 176 -76zM248.502 151.502c20.333 -26.333 47 -39.502 80 -39.502s60.667 12.833 83 38.5
s33.5 57 33.5 94s-10.333 68.167 -31 93.5s-47.5 38 -80.5 38s-60.5 -12.667 -82.5 -38s-33 -56.166 -33 -92.499s10.167 -67.666 30.5 -93.999z" />
    <glyph glyph-name="seven" unicode="7" horiz-adv-x="559" 
d="M280 750l169.001 6.00293c24.667 0 44.167 -6.5 58.5 -19.5s21.5 -30.333 21.5 -52s-5.83301 -45.167 -17.5 -70.5s-31.5 -63.666 -59.5 -114.999s-60.333 -118.333 -97 -201s-64.667 -159.334 -84 -230.001c-7.33301 -26.667 -16.5 -46.167 -27.5 -58.5
s-25.833 -18.5 -44.5 -18.5s-34.667 6.66699 -48 20s-20 29.666 -20 48.999c0 37.333 30 126.666 90 267.999c23.333 55.333 69.666 155 138.999 299c-15.333 0.666992 -42 1 -80 1l-162 -6c-24.667 0 -44.5 6 -59.5 18s-22.5 28.167 -22.5 48.5s7.5 36.666 22.5 48.999
s34.833 18.5 59.5 18.5z" />
    <glyph glyph-name="eight" unicode="8" horiz-adv-x="664" 
d="M600 214c0 -63.333 -25 -117.166 -75 -161.499s-114.333 -66.5 -193 -66.5s-143 22.167 -193 66.5s-75 98.166 -75 161.499c0 82 44.333 150 133 204c-64 44.667 -96 97.667 -96 159c0 51.333 21.833 95.5 65.5 132.5s98.667 55.5 165 55.5s121.5 -18.5 165.5 -55.5
s66 -83 66 -138s-30.333 -106.167 -91 -153.5c85.333 -55.333 128 -123.333 128 -204zM459 214c0 51.333 -42.333 95.333 -127 132c-84.667 -36.667 -127 -80.667 -127 -132c0 -30.667 12.167 -55.334 36.5 -74.001s54.5 -28 90.5 -28s66.167 9.33301 90.5 28
s36.5 43.334 36.5 74.001zM424 576c0 17.333 -9.33203 32 -27.999 44s-39.834 18 -63.501 18s-45 -6 -64 -18s-28.5 -26.667 -28.5 -44c0 -28.667 31.333 -59 94 -91c60 30.667 90 61 90 91z" />
    <glyph glyph-name="nine" unicode="9" horiz-adv-x="642" 
d="M120.5 327c-43 52 -64.5 112.334 -64.5 181.001s23.333 128.667 70 180s109.667 77 189 77s142.5 -28.667 189.5 -86s70.5 -130 70.5 -218c0 -134 -36.667 -246.833 -110 -338.5s-166 -137.5 -278 -137.5c-30.667 0 -54.334 6.16699 -71.001 18.5s-25 27.666 -25 45.999
s6.83301 34 20.5 47s35.834 20.167 66.501 21.5c50 2.66699 94.833 18 134.5 46s70.167 65.333 91.5 112c-34.667 -18 -70.667 -27 -108 -27c-74 0 -132.5 26 -175.5 78zM230 600.001c-22 -25.333 -33.001 -56.501 -33.001 -93.501s9.83301 -68 29.5 -93
s46.834 -37.5 81.501 -37.5s63.167 13.833 85.5 41.5s33.5 59.334 33.5 95.001s-10.833 65.5 -32.5 89.5s-49 36 -82 36s-60.5 -12.667 -82.5 -38z" />
    <glyph glyph-name="colon" unicode=":" horiz-adv-x="306" 
d="M213.5 140c14.333 -16 21.5 -35.665 21.5 -58.998s-8.16699 -44.333 -24.5 -63s-36.666 -28 -60.999 -28s-43.5 8.16699 -57.5 24.5s-21 36.166 -21 59.499s8 44.166 24 62.499s36.167 27.5 60.5 27.5s43.666 -8 57.999 -24zM213.5 480.002
c14.333 -16 21.5 -35.665 21.5 -58.998s-8.16699 -44.333 -24.5 -63s-36.666 -28 -60.999 -28s-43.5 8.16699 -57.5 24.5s-21 36.166 -21 59.499s8 44.166 24 62.499s36.167 27.5 60.5 27.5s43.666 -8 57.999 -24z" />
    <glyph glyph-name="semicolon" unicode=";" horiz-adv-x="308" 
d="M210.5 480c14.333 -16 21.5 -35.665 21.5 -58.998s-8.16699 -44.333 -24.5 -63s-36.666 -28 -60.999 -28s-43.5 8.16699 -57.5 24.5s-21 36.166 -21 59.499s8 44.166 24 62.499s36.167 27.5 60.5 27.5s43.666 -8 57.999 -24zM75 -2.99805l-10.001 76.001
c0 22.667 7.5 42.667 22.5 60s34 26 57 26s41.167 -8 54.5 -24s20 -35.333 20 -58c0 -45.333 -14.333 -92 -43 -140s-55 -72 -79 -72c-15.333 0 -26.666 4.66699 -33.999 14s-11 19.166 -11 29.499s3.83301 24.333 11.5 42s11.5 33.167 11.5 46.5z" />
    <glyph glyph-name="less" unicode="&#x3c;" horiz-adv-x="624" 
d="M256 389.5c-10 -5.66699 -15.001 -10 -15.001 -13s5 -7.33301 15 -13s23.333 -12 40 -19s34.667 -14.167 54 -21.5l60 -22l55.5 -19c16.333 -5.33301 30.5 -10.166 42.5 -14.499s18.333 -6.5 19 -6.5c34.667 -14 52 -34.667 52 -62
c0 -16.667 -5.66699 -30.334 -17 -41.001s-24 -16 -38 -16s-29 2.5 -45 7.5s-31.667 10.667 -47 17l-70.5 30.5c-31.667 14 -57 24.833 -76 32.5l-58 22.5c-19.667 7.33301 -34.334 13 -44.001 17s-21.5 9.16699 -35.5 15.5s-24.333 12.166 -31 17.499s-13.667 12 -21 20
c-13.333 13.333 -20 28.5 -20 45.5s1.33301 30 4 39s7.83398 17.333 15.501 25s14.834 14.167 21.501 19.5s17 11.333 31 18s25.833 11.834 35.5 15.501l44 17l58 23c19 7.66699 44.333 18.5 76 32.5l70.5 31c39.333 16 68 24 86 24s32.667 -5.33301 44 -16
s17 -24.334 17 -41.001c0 -27.333 -17.333 -48 -52 -62c-0.666992 0 -7 -2.16699 -19 -6.5s-26.167 -9.16602 -42.5 -14.499l-55.5 -19c-20.667 -7.33301 -40.667 -14.833 -60 -22.5l-54 -22c-16.667 -7 -30 -13.333 -40 -19z" />
    <glyph glyph-name="equal" unicode="=" horiz-adv-x="664" 
d="M333 541l176 5c20.667 0 37.834 -6 51.501 -18s20.5 -26.667 20.5 -44s-6.83301 -32 -20.5 -44s-30.834 -18 -51.501 -18l-176 5l-177 -4c-20.667 0 -38 5.83301 -52 17.5s-21 26.167 -21 43.5s7 31.833 21 43.5s31.333 17.5 52 17.5zM333 324l176 5
c20.667 0 37.834 -6 51.501 -18s20.5 -26.667 20.5 -44s-6.83301 -32 -20.5 -44s-30.834 -18 -51.501 -18l-176 5l-177 -4c-20.667 0 -38 5.83301 -52 17.5s-21 26.167 -21 43.5s7 31.833 21 43.5s31.333 17.5 52 17.5z" />
    <glyph glyph-name="greater" unicode="&#x3e;" horiz-adv-x="624" 
d="M368 363.5c10 5.66699 15.001 10 15.001 13s-5 7.33301 -15 13s-23.333 12 -40 19l-54 22c-19.333 7.66699 -39.333 15.167 -60 22.5l-55.5 19c-16.333 5.33301 -30.5 10.166 -42.5 14.499s-18.333 6.5 -19 6.5c-34.667 14 -52 34.667 -52 62
c0 16.667 5.66699 30.334 17 41.001s24 16 38 16s29 -2.5 45 -7.5s31.667 -10.667 47 -17l70.5 -30.5c31.667 -14 57 -24.833 76 -32.5l58 -23l44 -17c9.66699 -3.66699 21.5 -8.83398 35.5 -15.501s24.333 -12.667 31 -18s13.667 -11.666 21 -18.999
c13.333 -13.333 20 -32 20 -56c0 -22.667 -5.16699 -39.334 -15.5 -50.001s-18.833 -18.667 -25.5 -24s-17 -11.166 -31 -17.499s-25.833 -11.5 -35.5 -15.5s-24.334 -9.66699 -44.001 -17l-58 -22.5c-19 -7.66699 -44.333 -18.5 -76 -32.5l-70.5 -31
c-39.333 -16 -68 -24 -86 -24s-32.667 5.33301 -44 16s-17 24.334 -17 41.001c0 27.333 17.333 48 52 62c0.666992 0 7 2.16699 19 6.5s26.167 9.16602 42.5 14.499l55.5 19l60 22c19.333 7.33301 37.333 14.5 54 21.5s30 13.333 40 19z" />
    <glyph glyph-name="question" unicode="?" horiz-adv-x="547" 
d="M492 568c0 -28 -9.66797 -56.835 -29.001 -86.502s-40.666 -54.5 -63.999 -74.5c-62 -53.333 -93 -92.666 -93 -117.999c0 -56 -22 -84 -66 -84c-20 0 -36.5 7.33301 -49.5 22s-19.5 34.334 -19.5 59.001s6.16699 47.834 18.5 69.501s27.166 41 44.499 58l52 49.5
c42.667 38.667 64 73.667 64 105c0 20.667 -8.5 37.5 -25.5 50.5s-36.333 19.5 -58 19.5s-40.667 -6.5 -57 -19.5s-31.666 -26 -45.999 -39s-30.5 -19.5 -48.5 -19.5s-32.667 6.16699 -44 18.5s-17 26.833 -17 43.5c0 31.333 21.667 63.166 65 95.499s91 48.5 143 48.5
c68 0 123.333 -19 166 -57s64 -85 64 -141zM292.999 126.498c13.333 -15 20 -33.5 20 -55.5s-7.66699 -41.833 -23 -59.5s-34.5 -26.5 -57.5 -26.5s-41 7.66699 -54 23s-19.5 34 -19.5 56s7.5 41.667 22.5 59s34 26 57 26s41.167 -7.5 54.5 -22.5z" />
    <glyph glyph-name="at" unicode="@" horiz-adv-x="979" 
d="M915 368c0 -70 -20.999 -128.501 -62.999 -175.501s-91.833 -70.5 -149.5 -70.5s-100.834 18.333 -129.501 55c-34.667 -36.667 -75 -55 -121 -55c-32 0 -60.667 7.16699 -86 21.5s-45 32.833 -59 55.5c-28 45.333 -42 93 -42 143c0 64.667 20.833 120.667 62.5 168
s94.5 71 158.5 71c24 0 48 -7.33301 72 -22c12.667 14.667 30.667 22 54 22c44 0 66 -32.667 66 -98c0 -8 -3.16699 -31.667 -9.5 -71s-9.5 -71.666 -9.5 -96.999c0 -47.333 16 -71 48 -71c20 0 37.833 10 53.5 30s23.5 52 23.5 96c0 88.667 -28.5 156.334 -85.5 203.001
s-127.333 70 -211 70s-154.167 -28.833 -211.5 -86.5s-86 -129.834 -86 -216.501s25 -154.834 75 -204.501s109.667 -74.5 179 -74.5c22 0 47.167 3.66699 75.5 11s50.666 11 66.999 11s30 -4.5 41 -13.5s16.5 -20.833 16.5 -35.5c0 -25.333 -18.667 -46.5 -56 -63.5
s-86.333 -25.5 -147 -25.5c-109.333 0 -201.166 36.5 -275.499 109.5s-111.5 167.833 -111.5 284.5s41.5 216.834 124.5 300.501s186.333 125.5 310 125.5s225.667 -35.667 306 -107s120.5 -168 120.5 -290zM540.001 328.999v113.001c-18 14.667 -37.667 22 -59 22
s-40.833 -11.333 -58.5 -34s-26.5 -49.834 -26.5 -81.501s5 -58 15 -79s25.667 -31.5 47 -31.5c28 0 55.333 30.333 82 91z" />
    <glyph glyph-name="A" unicode="A" horiz-adv-x="692" 
d="M454 221c-52 2.66699 -95.001 3.99902 -129.001 3.99902s-64 -0.666992 -90 -2c-8 -20.667 -17.833 -51.5 -29.5 -92.5s-20.5 -70.167 -26.5 -87.5c-12 -35.333 -34 -53 -66 -53c-18.667 0 -33.667 5.66699 -45 17s-17 27.166 -17 47.499s17.333 75.5 52 165.5
c-34.667 8 -52 28 -52 60c0 43.333 31 65 93 65c9.33301 28.667 27.333 80.334 54 155.001s43.834 123.5 51.501 146.5s13.667 39.5 18 49.5s10.166 20.667 17.499 32c14 21.333 35 32 63 32c20.667 0 39 -6.33301 55 -19c10 -8 19 -23.5 27 -46.5l24.5 -72
c8.33301 -25 17.333 -50.667 27 -77l40 -114.5c17 -50 26.833 -78.667 29.5 -86c3.33301 0.666992 9.33301 1 18 1c22.667 0 41.334 -6.5 56.001 -19.5s22 -28.833 22 -47.5c0 -30.667 -18.667 -51 -56 -61c37.333 -96.667 56 -152.667 56 -168
s-6.16699 -29.166 -18.5 -41.499s-28.5 -18.5 -48.5 -18.5c-30 0 -52 16.667 -66 50c-3.33301 8 -23.333 68.333 -60 181zM270.999 337.999c16.667 -1.33301 41.3311 -2 73.998 -2s57.334 0.666992 74.001 2c-43.333 157.333 -67.666 236 -72.999 236
c-4.66699 0 -24 -59 -58 -177z" />
    <glyph glyph-name="B" unicode="B" horiz-adv-x="728" 
d="M675 221c0 -72 -30.168 -129.338 -90.501 -172.005s-135.666 -64 -225.999 -64s-162 9.5 -215 28.5s-79.5 43.167 -79.5 72.5c0 31.333 14.667 49.666 44 54.999c2 66.667 3 145.834 3 237.501s-1 162.834 -3 213.501c-27.333 12.667 -41 30.334 -41 53.001
s10.833 41.834 32.5 57.501s48.167 27.834 79.5 36.501c62.667 17.333 118 26 166 26s90.833 -6.5 128.5 -19.5s67.167 -30.167 88.5 -51.5c41.333 -41.333 62 -85.333 62 -132c0 -57.333 -25.667 -107.666 -77 -150.999c37.333 -20.667 68 -48 92 -82s36 -70 36 -108z
M252.999 117.995c25.333 -4.66699 61.1689 -7 107.502 -7s86.5 9.83301 120.5 29.5s51 48.5 51 86.5c0 28 -13.833 51.667 -41.5 71s-57.834 32.333 -90.501 39c-35.333 -9.33301 -64.833 -14 -88.5 -14s-44.834 0.666992 -63.501 2c1.33301 -116 3 -185 5 -207z
M452.502 614.995c-23.667 16 -55.333 24.001 -95 24.001s-75.5 -4 -107.5 -12v-165c25.333 2.66699 48.5 4 69.5 4s43.833 -2.66699 68.5 -8c20.667 2.66699 42.5 13.167 65.5 31.5s34.5 42.166 34.5 71.499c0 20 -11.833 38 -35.5 54z" />
    <glyph glyph-name="C" unicode="C" horiz-adv-x="704" 
d="M659 121c0 -30.667 -25.333 -61 -76 -91s-111.667 -45 -183 -45c-96.667 0 -177 38 -241 114s-96 168.333 -96 277s32.167 200.667 96.5 276s144.833 113 241.5 113c61.333 0 116.5 -12.667 165.5 -38s73.5 -54 73.5 -86c0 -19.333 -6.33301 -34.833 -19 -46.5
s-28.834 -17.5 -48.501 -17.5s-44.167 10.167 -73.5 30.5s-62 30.5 -98 30.5c-56.667 0 -103.5 -25.833 -140.5 -77.5s-55.5 -113 -55.5 -184s18.333 -133 55 -186s82.167 -79.5 136.5 -79.5s105.5 14.333 153.5 43c22 13.333 40.833 20 56.5 20s28.334 -5 38.001 -15
s14.5 -22.667 14.5 -38z" />
    <glyph glyph-name="D" unicode="D" horiz-adv-x="775" 
d="M115 375l-5 227.998c-27.333 8 -41 27 -41 57c0 20 14.5 38.333 43.5 55s62.167 28.834 99.5 36.501s72.666 11.5 105.999 11.5c65.333 0 123.833 -11 175.5 -33s93.167 -51.333 124.5 -88c63.333 -75.333 95 -165.333 95 -270c0 -100.667 -30.667 -188.667 -92 -264
c-30 -37.333 -70.167 -67.166 -120.5 -89.499s-110.166 -33.5 -179.499 -33.5s-129.333 10 -180 30s-76 45 -76 75s15.667 48.667 47 56zM572 375.998c0 72 -21.833 133.667 -65.5 185s-106.5 77 -188.5 77c-22.667 0 -44 -3 -64 -9c-2 -40.667 -3 -124 -3 -250
s1.33301 -213 4 -261c21.333 -4.66699 45.333 -7 72 -7c54 0 100 13 138 39c71.333 50 107 125.333 107 226z" />
    <glyph glyph-name="E" unicode="E" horiz-adv-x="629" 
d="M346 0l-152 -5.99805c-24.667 0 -45.167 8 -61.5 24s-24.5 37.333 -24.5 64l6 251c-41.333 6 -62 27.667 -62 65c0 18 5.66699 32.667 17 44s26 18.666 44 21.999l-5 183c-7.33301 14 -11 30.333 -11 49c0 40 31.667 60 95 60l152 -6l157 6
c25.333 0 45.5 -6.16699 60.5 -18.5s22.5 -28.833 22.5 -49.5s-7.5 -36.834 -22.5 -48.501s-35.167 -17.5 -60.5 -17.5l-157 6c-36 0 -67.333 -1 -94 -3v-166c10.667 -0.666992 25 -1 43 -1l161 7c24 0 43.667 -6.16699 59 -18.5s23 -28.666 23 -48.999
s-7.66699 -36.333 -23 -48s-35 -17.5 -59 -17.5l-158 6h-14c-9.33301 -0.666992 -20 -1 -32 -1c0 -92.667 0.666992 -163.667 2 -213c18 -1.33301 49.333 -2 94 -2l157 6c25.333 0 45.5 -5.83301 60.5 -17.5s22.5 -27.834 22.5 -48.501s-7.5 -37.167 -22.5 -49.5
s-35.167 -18.5 -60.5 -18.5z" />
    <glyph glyph-name="F" unicode="F" horiz-adv-x="620" 
d="M106 98l8 235.002c-41.333 6 -62 27.667 -62 65c0 18 5.66699 32.667 17 44s26 18.666 44 21.999l-5 183c-7.33301 14 -11 30.333 -11 49c0 40 31.667 60 95 60l152 -6l157 6c25.333 0 45.5 -6.16699 60.5 -18.5s22.5 -28.833 22.5 -49.5s-7.5 -36.834 -22.5 -48.501
s-35.167 -17.5 -60.5 -17.5l-157 6c-36 0 -67.333 -1 -94 -3v-166c8 -0.666992 19 -1 33 -1l161 7c24 0 43.667 -6.16699 59 -18.5s23 -28.833 23 -49.5s-7.5 -36.667 -22.5 -48s-34.833 -17 -59.5 -17l-158 6h-10c-7.33301 -0.666992 -16 -1 -26 -1
c5.33301 -112 8 -191.667 8 -239c0 -72 -25.333 -108 -76 -108s-76 36 -76 108z" />
    <glyph glyph-name="G" unicode="G" horiz-adv-x="766" 
d="M400 425l114 -6.00098l117 6c24 0 43.667 -7.66699 59 -23s23 -34.666 23 -57.999c0 -109.333 -29.167 -196.5 -87.5 -261.5s-134.5 -97.5 -228.5 -97.5s-173 38 -237 114s-96 168.333 -96 277s33 200.667 99 276s149.333 113 250 113c64.667 0 123.334 -14 176.001 -42
s79 -58.333 79 -91c0 -18.667 -6 -33.5 -18 -44.5s-27.333 -16.5 -46 -16.5s-36.334 5.5 -53.001 16.5s-36 22.167 -58 33.5s-48.667 17 -80 17c-60 0 -109.5 -25.667 -148.5 -77s-58.5 -112.666 -58.5 -183.999s18.5 -133.5 55.5 -186.5s83.833 -79.5 140.5 -79.5
c42.667 0 79 16.167 109 48.5s48 77.833 54 136.5c-7.33301 0.666992 -25.333 1 -54 1l-111 -5c-24.667 0 -44.667 6.16699 -60 18.5s-23 28.666 -23 48.999s7.66699 36.333 23 48s35.333 17.5 60 17.5z" />
    <glyph glyph-name="H" unicode="H" horiz-adv-x="776" 
d="M525 453l-5.99902 198.001c0 72.667 25.167 109 75.5 109s75.5 -36.333 75.5 -109c0 -41.333 -2.33301 -105.666 -7 -192.999c20 -4 35.833 -12.333 47.5 -25s17.5 -27.667 17.5 -45s-5.66699 -32.333 -17 -45s-27.333 -20.334 -48 -23.001l7 -222
c0 -72 -25.167 -108 -75.5 -108s-75.5 36 -75.5 108l6 227l-139 3l-135 -3l7 -227c0 -72 -25.333 -108 -76 -108s-76 36 -76 108l7 222c-20.667 2.66699 -36.5 10.5 -47.5 23.5s-16.5 28 -16.5 45s5.83301 31.833 17.5 44.5s27.167 21 46.5 25l-6 192
c0 72.667 25.333 109 76 109s76 -36.333 76 -109c0 -42.667 -2.33301 -108.334 -7 -197.001l134 -3c45.333 0 91.666 1 138.999 3z" />
    <glyph glyph-name="I" unicode="I" horiz-adv-x="490" 
d="M125 756l122 -6.00195l122 6c24.667 0 44.5 -6 59.5 -18s22.5 -28.167 22.5 -48.5s-7.5 -36.5 -22.5 -48.5s-34.833 -18 -59.5 -18l-47 3c-4.66699 -98.667 -7 -182.5 -7 -251.5s2.33301 -152.833 7 -251.5c24 2.66699 39.667 4 47 4c24.667 0 44.5 -6 59.5 -18
s22.5 -28.167 22.5 -48.5s-7.5 -36.5 -22.5 -48.5s-34.833 -18 -59.5 -18l-122 6l-122 -7c-25.333 0 -45.5 6 -60.5 18s-22.5 28.333 -22.5 49s7.5 36.834 22.5 48.501s35.167 17.5 60.5 17.5l47 -4c4.66699 98.667 7 182.667 7 252s-2.33301 153.333 -7 252
c-20 -2 -39.167 -3 -57.5 -3s-35 5.83301 -50 17.5s-22.5 27.834 -22.5 48.501s7.5 37 22.5 49s35.167 18 60.5 18z" />
    <glyph glyph-name="J" unicode="J" horiz-adv-x="599" 
d="M332 750l139 6.00098c24.667 0 44.5 -6 59.5 -18s22.5 -28.333 22.5 -49c0 -36 -21.333 -58 -64 -66c-0.666992 -50 -1 -170 -1 -360c0 -50 -7 -93.667 -21 -131s-33 -66.333 -57 -87c-46.667 -40 -100.167 -60 -160.5 -60s-109.833 12.833 -148.5 38.5
s-58 52.167 -58 79.5c0 18.667 6 33.667 18 45s26.5 17 43.5 17s38.167 -8.83301 63.5 -26.5s52 -26.5 80 -26.5s52.333 13.667 73 41s31 70.666 31 129.999l-2 344l-138 -6c-25.333 0 -45.333 6 -60 18s-22 28.333 -22 49s7.5 37.167 22.5 49.5s34.833 18.5 59.5 18.5z" />
    <glyph glyph-name="K" unicode="K" horiz-adv-x="701" 
d="M254 650c0 -10 -2.33301 -71.002 -7 -183.002c22.667 1.33301 37.667 2 45 2s24.333 -1.66699 51 -5c26 22 50.333 53 73 93s41 81.667 55 125c16 52 41 78 75 78c18 0 33.5 -6.16699 46.5 -18.5s19.5 -27.833 19.5 -46.5c0 -39.333 -16.333 -90.166 -49 -152.499
s-69.334 -115.5 -110.001 -159.5c32 -67.333 67.667 -127.666 107 -180.999s67 -84 83 -92c4 -2 9.83301 -3.5 17.5 -4.5s13.167 -3 16.5 -6s5 -9.16699 5 -18.5c0 -22 -8.16699 -42.667 -24.5 -62s-36.833 -29 -61.5 -29s-47.167 8.16699 -67.5 24.5
s-44.666 45.833 -72.999 88.5s-71.5 114.667 -129.5 216c-24 -4 -41.833 -6 -53.5 -6s-20.167 0.666992 -25.5 2l7 -216c0 -72.667 -25.333 -109 -76 -109s-76 36.333 -76 109l8 281l-8 270c0 72.667 25.333 109 76 109s76 -36.333 76 -109z" />
    <glyph glyph-name="L" unicode="L" horiz-adv-x="595" 
d="M341 122l137 6.00098c25.333 0 45.5 -5.83301 60.5 -17.5s22.5 -27.834 22.5 -48.501s-7.5 -37.167 -22.5 -49.5s-35.167 -18.5 -60.5 -18.5l-137 6l-151 -6c-24.667 0 -45.167 8 -61.5 24s-24.5 37.333 -24.5 64l6 298l-8 271c0 72.667 25.333 109 76 109
s76 -36.333 76 -109l-8 -271c0 -34 2.33301 -119.333 7 -256c34.667 -1.33301 64 -2 88 -2z" />
    <glyph glyph-name="M" unicode="M" horiz-adv-x="906" 
d="M801 374l8.00391 -274c0 -72 -25.333 -108 -76 -108s-76 36 -76 108c0 28 1.5 78 4.5 150s4.5 125 4.5 159l-143 -247c-18 -33.333 -40.5 -50 -67.5 -50s-49.167 16 -66.5 48l-143 247l9 -309c0 -72 -25.333 -108 -76 -108s-76 36 -76 108l8 274l-5 306
c0 26 7.16699 46.167 21.5 60.5s31.5 21.5 51.5 21.5c29.333 0 52.666 -16.667 69.999 -50c133.333 -262.667 202.666 -394 207.999 -394s57.666 99 156.999 297l49 99c17.333 33.333 40.666 50 69.999 50c20 0 37.167 -7.16699 51.5 -21.5s21.5 -34.5 21.5 -60.5z" />
    <glyph glyph-name="N" unicode="N" horiz-adv-x="765" 
d="M655 380l3 -299.999c0 -60 -25 -90 -75 -90c-29.333 0 -52.333 13.667 -69 41l-262 439c-1.33301 -16 -2 -42.667 -2 -80l7 -292c0 -72 -25.333 -108 -76 -108s-76 36 -76 108l8 272c0 24.667 -1.33301 69.667 -4 135s-4 120.666 -4 165.999c0 59.333 24.667 89 74 89
c34 0 58.667 -13.333 74 -40l267 -458l-1 118l-8 272c0 72 25.333 108 76 108s76 -36 76 -108z" />
    <glyph glyph-name="O" unicode="O" 
d="M559 191c39.333 53.333 59 115.166 59 185.499s-19.5 131.666 -58.5 183.999s-88.333 78.5 -148 78.5s-109 -26.167 -148 -78.5s-58.5 -113.666 -58.5 -183.999s19.667 -132.166 59 -185.499s88.5 -80 147.5 -80s108.167 26.667 147.5 80zM660.5 651.5
c66.333 -75.667 99.5 -167.667 99.5 -276s-33.333 -200.5 -100 -276.5s-149.5 -114 -248.5 -114s-181.833 38 -248.5 114s-100 168.167 -100 276.5s33.5 200.333 100.5 276s150 113.5 249 113.5s181.667 -37.833 248 -113.5z" />
    <glyph glyph-name="P" unicode="P" horiz-adv-x="657" 
d="M97 98l8.00098 272c0 30.667 -2.33301 104.334 -7 221.001c-24 13.333 -36 34.666 -36 63.999c0 20.667 10 38.667 30 54s45 27 75 35c56 14 108 21 156 21c103.333 0 182 -24.5 236 -73.5s81 -108.833 81 -179.5s-26.833 -130.667 -80.5 -180s-122.834 -74 -207.501 -74
c-50.667 0 -87 1.33301 -109 4l6 -164c0 -72 -25.333 -108 -76 -108s-76 36 -76 108zM241.001 394c39.333 -7.33301 77.832 -11.002 115.499 -11.002s70.667 11.833 99 35.5s42.5 54.334 42.5 92.001s-15 68.334 -45 92.001s-71.667 35.5 -125 35.5
c-29.333 0 -56.666 -4 -81.999 -12c-3.33301 -82 -5 -159.333 -5 -232z" />
    <glyph glyph-name="Q" unicode="Q" horiz-adv-x="825" 
d="M763 374c0 -64.667 -13.499 -124.666 -40.499 -179.999s-63.5 -101 -109.5 -137c28.667 -40.667 43 -70.334 43 -89.001s-5.66699 -33.667 -17 -45s-25.333 -17 -42 -17s-31.834 6.83301 -45.501 20.5s-28.5 37.167 -44.5 70.5c-26.667 -8 -58.667 -12 -96 -12
c-99.333 0 -182.333 37.833 -249 113.5s-100 167.667 -100 276s33.5 200.5 100.5 276.5s150.5 114 250.5 114s183.333 -37.833 250 -113.5s100 -168.167 100 -277.5zM621.001 374.001c0 71.333 -19.833 133.333 -59.5 186s-89.5 79 -149.5 79s-109.667 -26.333 -149 -79
s-59 -114 -59 -184s19.833 -131.667 59.5 -185s89.167 -80 148.5 -80c7.33301 0 17 0.666992 29 2c-22 32.667 -35 54.167 -39 64.5s-6 21.833 -6 34.5s5.83301 24.667 17.5 36s25.5 17 41.5 17s30.5 -6.16699 43.5 -18.5s27.167 -36.833 42.5 -73.5
c25.333 24.667 45 54.667 59 90s21 72.333 21 111z" />
    <glyph glyph-name="R" unicode="R" horiz-adv-x="699" 
d="M102 98l8 272.004c0 50.667 -2 126 -6 226c-28 11.333 -42 30.666 -42 57.999c0 18.667 10.167 35.5 30.5 50.5s45.5 26.833 75.5 35.5c60 16.667 112 25 156 25c99.333 0 174.666 -22.833 225.999 -68.5s77 -101.5 77 -167.5c0 -38.667 -12 -76.834 -36 -114.501
s-56 -68.167 -96 -91.5c66.667 -132.667 115.334 -204 146.001 -214l14 -4.5c5.33301 -1.66699 8.66602 -2.83398 9.99902 -3.50098s3.33301 -1.5 6 -2.5s4.33398 -2.5 5.00098 -4.5c0.666992 -4.66699 1 -10 1 -16c0 -25.333 -9.16699 -46.5 -27.5 -63.5
s-38.833 -25.5 -61.5 -25.5c-36 0 -71 23.167 -105 69.5s-74 120.166 -120 221.499c-17.333 -1.33301 -36.5 -2 -57.5 -2s-40.833 2 -59.5 6c5.33301 -90.667 8 -152.667 8 -186c0 -72 -25.333 -108 -76 -108s-76 36 -76 108zM246 419.004
c22 6.66699 47.1689 9.99902 75.502 9.99902s57.166 -4.33301 86.499 -13c18 7.33301 35.333 21.333 52 42s25 42.334 25 65.001c0 35.333 -13.333 63.333 -40 84s-65.334 31 -116.001 31c-22.667 0 -48.667 -4 -78 -12c-3.33301 -123.333 -5 -192.333 -5 -207z" />
    <glyph glyph-name="S" unicode="S" horiz-adv-x="608" 
d="M559 213c0 -64.667 -24.332 -118.834 -72.999 -162.501s-111.667 -65.5 -189 -65.5c-62 0 -118.667 14.833 -170 44.5s-77 60.834 -77 93.501c0 18 6.16699 32.833 18.5 44.5s27.666 17.5 45.999 17.5s36.333 -6.16699 54 -18.5s37 -24.666 58 -36.999
s46.667 -18.5 77 -18.5s57 9.16699 80 27.5s34.5 43.166 34.5 74.499c0 33.333 -28.667 67 -86 101l-55.5 32l-58.5 34c-13.333 8 -30.833 20.167 -52.5 36.5s-38.167 31.5 -49.5 45.5c-28 34.667 -42 72 -42 112c0 52 22.5 96.833 67.5 134.5s98 56.5 159 56.5
s113.167 -11.667 156.5 -35s65 -49.666 65 -78.999c0 -19.333 -6 -34.333 -18 -45s-27 -16 -45 -16s-41.333 8.16699 -70 24.5s-55.5 24.5 -80.5 24.5s-46.667 -6.16699 -65 -18.5s-27.5 -27.833 -27.5 -46.5c0 -20 12.667 -39.333 38 -58
c20 -14.667 46.167 -31.334 78.5 -50.001l69.5 -40.5c14 -8.33301 32.833 -21.5 56.5 -39.5s41.5 -34.333 53.5 -49s22.833 -33 32.5 -55s14.5 -45 14.5 -69z" />
    <glyph glyph-name="T" unicode="T" horiz-adv-x="605" 
d="M377 370l8 -272c0 -72 -25.333 -108 -76 -108s-76 36 -76 108l8 272c0 54.667 -2.33301 140.667 -7 258l-119 -6c-25.333 0 -45.5 6 -60.5 18s-22.5 28.333 -22.5 49s7.5 37 22.5 49s35.167 18 60.5 18l190 -6l190 6c25.333 0 45.5 -6 60.5 -18s22.5 -28.333 22.5 -49
s-7.5 -37 -22.5 -49s-35.167 -18 -60.5 -18l-113 6c-3.33301 -88 -5 -174 -5 -258z" />
    <glyph glyph-name="U" unicode="U" horiz-adv-x="743" 
d="M656 652l-10 -396.001c0 -74.667 -23.833 -138.5 -71.5 -191.5s-115.5 -79.5 -203.5 -79.5s-155.833 26.333 -203.5 79s-71.5 116.334 -71.5 191.001l-10 396c0 72.667 25.333 109 76 109s76 -36.333 76 -109l-7 -321c0 -106 23.333 -173.333 70 -202
c19.333 -11.333 42.833 -17 70.5 -17s51 5.83301 70 17.5s33.167 28.167 42.5 49.5c18 40 27 91 27 153l-7 321c0 72.667 25.333 109 76 109s76 -36.333 76 -109z" />
    <glyph glyph-name="V" unicode="V" horiz-adv-x="666" 
d="M382.5 7c-17 -11.333 -34.3311 -17 -51.998 -17s-35.167 6.16699 -52.5 18.5s-30.333 31.5 -39 57.5c-52 156.667 -92.833 276 -122.5 358l-60.5 168c-17.333 48 -26 80.667 -26 98s5.66699 33.333 17 48s27.666 22 48.999 22c35.333 0 59.666 -20.667 72.999 -62
l67 -214c58.667 -191.333 90.5 -287 95.5 -287s25 53 60 159s69.833 217.333 104.5 334c14 46.667 37.667 70 71 70c22 0 39.5 -7 52.5 -21s19.5 -28.667 19.5 -44s-7.33301 -43.833 -22 -85.5l-81 -222l-115 -324.5c-8.66699 -26 -21.5 -44.667 -38.5 -56z" />
    <glyph glyph-name="W" unicode="W" horiz-adv-x="953" 
d="M720 50c-8 -20.667 -18.167 -35.8301 -30.5 -45.4971s-29.166 -14.5 -50.499 -14.5c-38.667 0 -66.334 24.333 -83.001 73c-8.66699 24.667 -18.667 59.334 -30 104.001c-26 101.333 -40.833 152 -44.5 152s-11.167 -20.167 -22.5 -60.5l-22 -78.5
c-11.333 -43.333 -23.333 -85.833 -36 -127.5s-39.667 -62.5 -81 -62.5s-68.333 19 -81 57c-8.66699 18.667 -32.334 89.167 -71.001 211.5s-65.667 205.666 -81 249.999l-33 94.5c-14.667 41.333 -22 72.166 -22 92.499s6.33301 36.166 19 47.499s28.667 17 48 17
c36 0 61.333 -23.667 76 -71c14 -48.667 37.667 -126.334 71 -233.001c50.667 -161.333 77.334 -242 80.001 -242c5.33301 0 24 62.667 56 188l16 63c15.333 62.667 42.333 94 81 94c24.667 0 43.667 -7.83301 57 -23.5s24 -39.167 32 -70.5c46 -166 71.667 -249 77 -249
c6.66699 0 52 155.333 136 466c14.667 52 37 78 67 78c22.667 0 40 -6.83301 52 -20.5s18 -27.5 18 -41.5s-2 -29.5 -6 -46.5s-8.5 -33 -13.5 -48l-23.5 -70l-31.5 -96.5l-43.5 -136z" />
    <glyph glyph-name="X" unicode="X" horiz-adv-x="708" 
d="M264 393c-64.667 103.333 -112.667 173.004 -144 209.004c-15.333 19.333 -34 30.666 -56 33.999c-6 1.33301 -10.667 2.66602 -14 3.99902c-8 4 -12 16.333 -12 37s7.5 40 22.5 58s33.5 27 55.5 27c40.667 0 76 -23.667 106 -71l119 -187c20 30 40.667 64.167 62 102.5
l48 85c10.667 18.333 23.334 34.333 38.001 48s30.5 20.5 47.5 20.5s31.667 -6.5 44 -19.5s18.5 -28 18.5 -45s-5.33301 -34.5 -16 -52.5s-32.834 -51.333 -66.501 -100s-66.834 -100.667 -99.501 -156c76 -116 133 -196 171 -240c15.333 -19.333 34 -31 56 -35
c6 -0.666992 10.667 -1.66699 14 -3c8 -4 12 -16.333 12 -37s-7.5 -40 -22.5 -58s-33.5 -27 -55.5 -27c-37.333 0 -72.333 23.667 -105 71l-149 218c-20 -30 -44.333 -70.5 -73 -121.5s-49.667 -86.5 -63 -106.5c-25.333 -38 -50.666 -57 -75.999 -57
c-18 0 -33.167 6.5 -45.5 19.5s-18.5 27.833 -18.5 44.5s7 36.667 21 60s39.5 61.666 76.5 114.999s71.833 107.666 104.5 162.999z" />
    <glyph glyph-name="Y" unicode="Y" horiz-adv-x="602" 
d="M223 98c0 32 2.33008 97.0029 6.99707 195.003c-21.333 43.333 -50.666 96.166 -87.999 158.499l-89 153c-22 39.667 -33 69 -33 88s5.83301 35 17.5 48s26.667 19.5 45 19.5s32.5 -3.16699 42.5 -9.5s20.667 -18.666 32 -36.999s22 -37.833 32 -58.5
c40.667 -84.667 78.667 -157 114 -217c38 66.667 69 124.667 93 174s41.5 83.166 52.5 101.499s21.333 30.666 31 36.999s23.334 9.5 41.001 9.5s32.334 -6.83301 44.001 -20.5s17.5 -29.334 17.5 -47.001s-11.333 -46.667 -34 -87s-53 -91.666 -91 -153.999
s-67.667 -115.5 -89 -159.5c4.66699 -88.667 7 -153.334 7 -194.001c0 -72 -25.333 -108 -76 -108s-76 36 -76 108z" />
    <glyph glyph-name="Z" unicode="Z" horiz-adv-x="617" 
d="M334 122l163.001 6c24.667 0 44.5 -6 59.5 -18s22.5 -28.167 22.5 -48.5s-7.5 -36.666 -22.5 -48.999s-34.833 -18.5 -59.5 -18.5l-163 6l-213 -6c-53.333 0 -80 21.333 -80 64c0 26 15.667 61.333 47 106c54 76.667 109.333 162.667 166 258l122 205
c-15.333 0.666992 -42 1 -80 1l-162 -6c-24.667 0 -44.5 6 -59.5 18s-22.5 28.167 -22.5 48.5s7.5 36.666 22.5 48.999s34.833 18.5 59.5 18.5l162 -6l189 6c53.333 0 80 -20.667 80 -62c0 -21.333 -5.33301 -42 -16 -62s-34.5 -56.667 -71.5 -110
s-72.5 -108.333 -106.5 -165l-140 -234c21.333 -0.666992 55.666 -1 102.999 -1z" />
    <glyph glyph-name="bracketleft" unicode="[" horiz-adv-x="452" 
d="M228 39l110 4.00098c24 0 43.833 -5.83301 59.5 -17.5s23.5 -27.334 23.5 -47.001s-7.66699 -35.334 -23 -47.001s-35.333 -17.5 -60 -17.5l-88 3l-92 -4c-22.667 0 -41 6.83301 -55 20.5s-21 32.167 -21 55.5l5 386l-6 388c0 24.667 7 43.5 21 56.5s32.667 19.5 56 19.5
l92 -4l88 3c24 0 43.833 -6 59.5 -18s23.5 -27.5 23.5 -46.5s-7.83301 -34.5 -23.5 -46.5s-35.5 -18 -59.5 -18l-110 3c-4 -110.667 -6 -221.667 -6 -333s2 -224.666 6 -339.999z" />
    <glyph glyph-name="backslash" unicode="\" horiz-adv-x="452" 
d="M212 742c40 -182.667 67.5029 -305.833 82.5029 -369.5s31.333 -126.834 49 -189.501l37 -133c7 -26 10.5 -48 10.5 -66s-6.5 -33.833 -19.5 -47.5s-28.833 -20.5 -47.5 -20.5s-33.834 5.66699 -45.501 17s-19.834 23 -24.501 35s-16.834 63.167 -36.501 153.5l-55.5 245
c-17.333 73 -35 141.333 -53 205s-30.333 108.334 -37 134.001s-10 47.5 -10 65.5s6.5 33.833 19.5 47.5s29.833 20.5 50.5 20.5c38 0 64.667 -32.333 80 -97z" />
    <glyph glyph-name="bracketright" unicode="]" horiz-adv-x="452" 
d="M202 -83l-88 -3.00098c-24.667 0 -44.667 5.83301 -60 17.5s-23 27.334 -23 47.001s7.83301 35.334 23.5 47.001s35.5 17.5 59.5 17.5l110 -4c4 115.333 6 228.666 6 339.999s-2 222.333 -6 333l-110 -3c-24 0 -43.833 6 -59.5 18s-23.5 27.5 -23.5 46.5
s7.83301 34.5 23.5 46.5s35.5 18 59.5 18l88 -3l92 4c23.333 0 42 -6.5 56 -19.5s21 -31.833 21 -56.5l-6 -388l5 -386c0 -23.333 -7 -41.833 -21 -55.5s-32.333 -20.5 -55 -20.5z" />
    <glyph glyph-name="asciicircum" unicode="^" horiz-adv-x="591" 
d="M297 761c42 0 72.667 -18.501 92 -55.501s38.166 -69.833 56.499 -98.5l44.5 -68.5c11.333 -17 19 -28.833 23 -35.5s9 -15.667 15 -27c10 -18 15 -35.333 15 -52s-5.66699 -31 -17 -43s-24.166 -18 -38.499 -18s-26.166 2.66699 -35.499 8s-17.833 13.833 -25.5 25.5
s-14.5 23.5 -20.5 35.5c-58 124 -94.333 186 -109 186c-8.66699 0 -28.334 -28.333 -59.001 -85c-11.333 -20 -24 -44.833 -38 -74.5s-24.667 -50.5 -32 -62.5c-15.333 -22 -33 -33 -53 -33s-35.667 6 -47 18s-17 24.167 -17 36.5s1 22.5 3 30.5s6 17.5 12 28.5
s11 19.833 15 26.5s11.667 18.334 23 35.001c42.667 64 75.667 118.667 99 164c20.667 39.333 52 59 94 59z" />
    <glyph glyph-name="underscore" unicode="_" horiz-adv-x="626" 
d="M313 -10l186 5c20.667 0 37.834 -6 51.501 -18s20.5 -26.667 20.5 -44s-6.83301 -32 -20.5 -44s-30.834 -18 -51.501 -18l-186 5l-187 -4c-20.667 0 -38 5.83301 -52 17.5s-21 26.167 -21 43.5s7 31.833 21 43.5s31.333 17.5 52 17.5z" />
    <glyph glyph-name="grave" unicode="`" horiz-adv-x="342" 
d="M78 677c0 17.333 5.33008 33.165 15.9971 47.498s23.834 21.5 39.501 21.5s27.5 -1.5 35.5 -4.5s14.833 -7.83301 20.5 -14.5s10 -12.5 13 -17.5s6.83301 -13 11.5 -24s7.83398 -18 9.50098 -21s9.33398 -14.667 23.001 -35s20.5 -36.166 20.5 -47.499
s-4.33301 -21.166 -13 -29.499s-20.667 -12.5 -36 -12.5c-24 0 -53.333 14.667 -88 44s-52 60.333 -52 93z" />
    <glyph glyph-name="a" unicode="a" horiz-adv-x="808" 
d="M666.5 731.5c15.667 -22.333 23.499 -50.334 23.499 -84.001s-9.33301 -127.5 -28 -281.5c0 -36 3.83301 -83.5 11.5 -142.5s17.834 -92.833 30.501 -101.5c12 -8 20.667 -13 26 -15s9 -3.66699 11 -5c3.33301 -3.33301 5 -10 5 -20
c0 -25.333 -8.66699 -47.666 -26 -66.999s-39.833 -29 -67.5 -29s-50.5 11.833 -68.5 35.5s-30.333 53.834 -37 90.501c-62 -84.667 -134.667 -127 -218 -127c-44.667 0 -84.667 11.5 -120 34.5s-63.333 53.167 -84 90.5c-42 76 -63 160.333 -63 253
c0 109.333 29.333 203.666 88 282.999s134.667 119 228 119c54.667 0 106.667 -14.667 156 -44c10 29.333 32.667 44 68 44c27.333 0 48.833 -11.167 64.5 -33.5zM535.999 356.999l-5 220c-47.333 40.667 -98.333 61 -153 61c-46 0 -86.5 -26.167 -121.5 -78.5
s-52.5 -115.5 -52.5 -189.5s11.5 -135.5 34.5 -184.5s55 -73.5 96 -73.5s82.667 27.333 125 82s67.833 109 76.5 163z" />
    <glyph glyph-name="b" unicode="b" horiz-adv-x="728" 
d="M675 221c0 -72 -30.168 -129.338 -90.501 -172.005s-135.666 -64 -225.999 -64s-162 9.5 -215 28.5s-79.5 43.167 -79.5 72.5c0 31.333 14.667 49.666 44 54.999c2 66.667 3 145.834 3 237.501s-1 162.834 -3 213.501c-27.333 12.667 -41 30.334 -41 53.001
s10.833 41.834 32.5 57.501s48.167 27.834 79.5 36.501c62.667 17.333 118 26 166 26s90.833 -6.5 128.5 -19.5s67.167 -30.167 88.5 -51.5c41.333 -41.333 62 -85.333 62 -132c0 -57.333 -25.667 -107.666 -77 -150.999c37.333 -20.667 68 -48 92 -82s36 -70 36 -108z
M252.999 117.995c25.333 -4.66699 61.1689 -7 107.502 -7s86.5 9.83301 120.5 29.5s51 48.5 51 86.5c0 28 -13.833 51.667 -41.5 71s-57.834 32.333 -90.501 39c-35.333 -9.33301 -64.833 -14 -88.5 -14s-44.834 0.666992 -63.501 2c1.33301 -116 3 -185 5 -207z
M452.502 614.995c-23.667 16 -55.333 24.001 -95 24.001s-75.5 -4 -107.5 -12v-165c25.333 2.66699 48.5 4 69.5 4s43.833 -2.66699 68.5 -8c20.667 2.66699 42.5 13.167 65.5 31.5s34.5 42.166 34.5 71.499c0 20 -11.833 38 -35.5 54z" />
    <glyph glyph-name="c" unicode="c" horiz-adv-x="704" 
d="M659 121c0 -30.667 -25.333 -61 -76 -91s-111.667 -45 -183 -45c-96.667 0 -177 38 -241 114s-96 168.333 -96 277s32.167 200.667 96.5 276s144.833 113 241.5 113c61.333 0 116.5 -12.667 165.5 -38s73.5 -54 73.5 -86c0 -19.333 -6.33301 -34.833 -19 -46.5
s-28.834 -17.5 -48.501 -17.5s-44.167 10.167 -73.5 30.5s-62 30.5 -98 30.5c-56.667 0 -103.5 -25.833 -140.5 -77.5s-55.5 -113 -55.5 -184s18.333 -133 55 -186s82.167 -79.5 136.5 -79.5s105.5 14.333 153.5 43c22 13.333 40.833 20 56.5 20s28.334 -5 38.001 -15
s14.5 -22.667 14.5 -38z" />
    <glyph glyph-name="d" unicode="d" horiz-adv-x="775" 
d="M115 375l-5 227.998c-27.333 8 -41 27 -41 57c0 20 14.5 38.333 43.5 55s62.167 28.834 99.5 36.501s72.666 11.5 105.999 11.5c65.333 0 123.833 -11 175.5 -33s93.167 -51.333 124.5 -88c63.333 -75.333 95 -165.333 95 -270c0 -100.667 -30.667 -188.667 -92 -264
c-30 -37.333 -70.167 -67.166 -120.5 -89.499s-110.166 -33.5 -179.499 -33.5s-129.333 10 -180 30s-76 45 -76 75s15.667 48.667 47 56zM572 375.998c0 72 -21.833 133.667 -65.5 185s-106.5 77 -188.5 77c-22.667 0 -44 -3 -64 -9c-2 -40.667 -3 -124 -3 -250
s1.33301 -213 4 -261c21.333 -4.66699 45.333 -7 72 -7c54 0 100 13 138 39c71.333 50 107 125.333 107 226z" />
    <glyph glyph-name="e" unicode="e" horiz-adv-x="744" 
d="M559 542c0 24 -9.66699 46 -29 66s-47 30 -83 30c-47.333 0 -87.5 -20 -120.5 -60s-56.167 -88 -69.5 -144c40 -9.33301 84.833 -14 134.5 -14s90 10.667 121 32s46.5 51.333 46.5 90zM604 33.5c-49.333 -32.333 -101.999 -48.502 -157.999 -48.502
s-104.167 9.83301 -144.5 29.5s-73.5 46.167 -99.5 79.5c-54.667 68.667 -85.334 149.667 -92.001 243c-45.333 18 -68 45.667 -68 83c0 18.667 6.16699 33.834 18.5 45.501s27.5 17.5 45.5 17.5c5.33301 0 11.333 -1 18 -3c23.333 82.667 63 150.834 119 204.501
s121.5 80.5 196.5 80.5s137.333 -21.5 187 -64.5s74.5 -94.333 74.5 -154s-15 -108.5 -45 -146.5c-56.667 -69.333 -144.334 -104 -263.001 -104c-39.333 0 -85 4.33301 -137 13c10 -56 31 -103 63 -141s68.667 -57 110 -57c46 0 95 15.667 147 47
c17.333 10.667 33.333 16 48 16s27.334 -5 38.001 -15s16 -22.667 16 -38c0 -26 -24.667 -55.167 -74 -87.5z" />
    <glyph glyph-name="f" unicode="f" horiz-adv-x="620" 
d="M106 98l8 235.002c-41.333 6 -62 27.667 -62 65c0 18 5.66699 32.667 17 44s26 18.666 44 21.999l-5 183c-7.33301 14 -11 30.333 -11 49c0 40 31.667 60 95 60l152 -6l157 6c25.333 0 45.5 -6.16699 60.5 -18.5s22.5 -28.833 22.5 -49.5s-7.5 -36.834 -22.5 -48.501
s-35.167 -17.5 -60.5 -17.5l-157 6c-36 0 -67.333 -1 -94 -3v-166c8 -0.666992 19 -1 33 -1l161 7c24 0 43.667 -6.16699 59 -18.5s23 -28.833 23 -49.5s-7.5 -36.667 -22.5 -48s-34.833 -17 -59.5 -17l-158 6h-10c-7.33301 -0.666992 -16 -1 -26 -1
c5.33301 -112 8 -191.667 8 -239c0 -72 -25.333 -108 -76 -108s-76 36 -76 108z" />
    <glyph glyph-name="g" unicode="g" horiz-adv-x="766" 
d="M400 425l114 -6.00098l117 6c24 0 43.667 -7.66699 59 -23s23 -34.666 23 -57.999c0 -109.333 -29.167 -196.5 -87.5 -261.5s-134.5 -97.5 -228.5 -97.5s-173 38 -237 114s-96 168.333 -96 277s33 200.667 99 276s149.333 113 250 113c64.667 0 123.334 -14 176.001 -42
s79 -58.333 79 -91c0 -18.667 -6 -33.5 -18 -44.5s-27.333 -16.5 -46 -16.5s-36.334 5.5 -53.001 16.5s-36 22.167 -58 33.5s-48.667 17 -80 17c-60 0 -109.5 -25.667 -148.5 -77s-58.5 -112.666 -58.5 -183.999s18.5 -133.5 55.5 -186.5s83.833 -79.5 140.5 -79.5
c42.667 0 79 16.167 109 48.5s48 77.833 54 136.5c-7.33301 0.666992 -25.333 1 -54 1l-111 -5c-24.667 0 -44.667 6.16699 -60 18.5s-23 28.666 -23 48.999s7.66699 36.333 23 48s35.333 17.5 60 17.5z" />
    <glyph glyph-name="h" unicode="h" horiz-adv-x="776" 
d="M525 453l-5.99902 198.001c0 72.667 25.167 109 75.5 109s75.5 -36.333 75.5 -109c0 -41.333 -2.33301 -105.666 -7 -192.999c20 -4 35.833 -12.333 47.5 -25s17.5 -27.667 17.5 -45s-5.66699 -32.333 -17 -45s-27.333 -20.334 -48 -23.001l7 -222
c0 -72 -25.167 -108 -75.5 -108s-75.5 36 -75.5 108l6 227l-139 3l-135 -3l7 -227c0 -72 -25.333 -108 -76 -108s-76 36 -76 108l7 222c-20.667 2.66699 -36.5 10.5 -47.5 23.5s-16.5 28 -16.5 45s5.83301 31.833 17.5 44.5s27.167 21 46.5 25l-6 192
c0 72.667 25.333 109 76 109s76 -36.333 76 -109c0 -42.667 -2.33301 -108.334 -7 -197.001l134 -3c45.333 0 91.666 1 138.999 3z" />
    <glyph glyph-name="i" unicode="i" horiz-adv-x="490" 
d="M125 756l122 -6.00195l122 6c24.667 0 44.5 -6 59.5 -18s22.5 -28.167 22.5 -48.5s-7.5 -36.5 -22.5 -48.5s-34.833 -18 -59.5 -18l-47 3c-4.66699 -98.667 -7 -182.5 -7 -251.5s2.33301 -152.833 7 -251.5c24 2.66699 39.667 4 47 4c24.667 0 44.5 -6 59.5 -18
s22.5 -28.167 22.5 -48.5s-7.5 -36.5 -22.5 -48.5s-34.833 -18 -59.5 -18l-122 6l-122 -7c-25.333 0 -45.5 6 -60.5 18s-22.5 28.333 -22.5 49s7.5 36.834 22.5 48.501s35.167 17.5 60.5 17.5l47 -4c4.66699 98.667 7 182.667 7 252s-2.33301 153.333 -7 252
c-20 -2 -39.167 -3 -57.5 -3s-35 5.83301 -50 17.5s-22.5 27.834 -22.5 48.501s7.5 37 22.5 49s35.167 18 60.5 18z" />
    <glyph glyph-name="j" unicode="j" horiz-adv-x="599" 
d="M332 750l139 6.00098c24.667 0 44.5 -6 59.5 -18s22.5 -28.333 22.5 -49c0 -36 -21.333 -58 -64 -66c-0.666992 -50 -1 -170 -1 -360c0 -50 -7 -93.667 -21 -131s-33 -66.333 -57 -87c-46.667 -40 -100.167 -60 -160.5 -60s-109.833 12.833 -148.5 38.5
s-58 52.167 -58 79.5c0 18.667 6 33.667 18 45s26.5 17 43.5 17s38.167 -8.83301 63.5 -26.5s52 -26.5 80 -26.5s52.333 13.667 73 41s31 70.666 31 129.999l-2 344l-138 -6c-25.333 0 -45.333 6 -60 18s-22 28.333 -22 49s7.5 37.167 22.5 49.5s34.833 18.5 59.5 18.5z" />
    <glyph glyph-name="k" unicode="k" horiz-adv-x="701" 
d="M254 650c0 -10 -2.33301 -71.002 -7 -183.002c22.667 1.33301 37.667 2 45 2s24.333 -1.66699 51 -5c26 22 50.333 53 73 93s41 81.667 55 125c16 52 41 78 75 78c18 0 33.5 -6.16699 46.5 -18.5s19.5 -27.833 19.5 -46.5c0 -39.333 -16.333 -90.166 -49 -152.499
s-69.334 -115.5 -110.001 -159.5c32 -67.333 67.667 -127.666 107 -180.999s67 -84 83 -92c4 -2 9.83301 -3.5 17.5 -4.5s13.167 -3 16.5 -6s5 -9.16699 5 -18.5c0 -22 -8.16699 -42.667 -24.5 -62s-36.833 -29 -61.5 -29s-47.167 8.16699 -67.5 24.5
s-44.666 45.833 -72.999 88.5s-71.5 114.667 -129.5 216c-24 -4 -41.833 -6 -53.5 -6s-20.167 0.666992 -25.5 2l7 -216c0 -72.667 -25.333 -109 -76 -109s-76 36.333 -76 109l8 281l-8 270c0 72.667 25.333 109 76 109s76 -36.333 76 -109z" />
    <glyph glyph-name="l" unicode="l" horiz-adv-x="595" 
d="M341 122l137 6.00098c25.333 0 45.5 -5.83301 60.5 -17.5s22.5 -27.834 22.5 -48.501s-7.5 -37.167 -22.5 -49.5s-35.167 -18.5 -60.5 -18.5l-137 6l-151 -6c-24.667 0 -45.167 8 -61.5 24s-24.5 37.333 -24.5 64l6 298l-8 271c0 72.667 25.333 109 76 109
s76 -36.333 76 -109l-8 -271c0 -34 2.33301 -119.333 7 -256c34.667 -1.33301 64 -2 88 -2z" />
    <glyph glyph-name="m" unicode="m" horiz-adv-x="1216" 
d="M226 392l5.99707 -294.003c0 -72 -25 -108 -75 -108c-56 0 -84 42.333 -84 127c0 66.667 8.66699 157 26 271c0 31.333 -3.66699 79 -11 143s-11 110.833 -11 140.5s6.66699 52.334 20 68.001s32 23.5 56 23.5c48.667 0 73 -37.667 73 -113
c55.333 73.333 123.333 110 204 110c48 0 89.833 -11.667 125.5 -35s63.167 -54.333 82.5 -93c24 36 55.333 66.333 94 91s80.334 37 125.001 37c75.333 0 133.833 -26.167 175.5 -78.5s62.5 -116.166 62.5 -191.499l-6 -255c0 -64 4 -99.667 12 -107
c6.66699 -6 15.334 -10 26.001 -12s17.834 -5.16699 21.501 -9.5s5.5 -10.5 5.5 -18.5c0 -28 -9.5 -51.667 -28.5 -71s-41.167 -29 -66.5 -29c-42 0 -71 14.5 -87 43.5s-24 71.833 -24 128.5l5 268c0 61.333 -9.16699 110.666 -27.5 147.999s-45.666 56 -81.999 56
s-73.333 -24.167 -111 -72.5s-64.167 -104.166 -79.5 -167.499l6 -294c0 -72 -25 -108 -75 -108c-56 0 -84 42.333 -84 127c0 66.667 8.66699 157 26 271c0 76 -9 135.667 -27 179s-45.333 65 -82 65s-73.834 -24.167 -111.501 -72.5s-64.167 -104.166 -79.5 -167.499z" />
    <glyph glyph-name="n" unicode="n" horiz-adv-x="808" 
d="M540 160l5 267.998c0 61.333 -10 110.666 -30 147.999s-49.333 56 -88 56s-78 -24.167 -118 -72.5s-68 -104.166 -84 -167.499l6 -294c0 -72 -25 -108 -75 -108c-56 0 -84 42.333 -84 127c0 66.667 8.66699 157 26 271c0 31.333 -3.66699 79 -11 143
s-11 110.833 -11 140.5s6.66699 52.334 20 68.001s32 23.5 56 23.5c48.667 0 73 -37.667 73 -113c58 73.333 127.833 110 209.5 110s144.167 -26.167 187.5 -78.5s65 -116.166 65 -191.499l-6 -255c0 -63.333 4 -99 12 -107c4.66699 -4.66699 11.667 -8 21 -10s17 -5 23 -9
s9 -11 9 -21c0 -28 -9.5 -51.667 -28.5 -71s-41.167 -29 -66.5 -29c-42 0 -71 14.5 -87 43.5s-24 71.833 -24 128.5z" />
    <glyph glyph-name="o" unicode="o" 
d="M559 191c39.333 53.333 59 115.166 59 185.499s-19.5 131.666 -58.5 183.999s-88.333 78.5 -148 78.5s-109 -26.167 -148 -78.5s-58.5 -113.666 -58.5 -183.999s19.667 -132.166 59 -185.499s88.5 -80 147.5 -80s108.167 26.667 147.5 80zM660.5 651.5
c66.333 -75.667 99.5 -167.667 99.5 -276s-33.333 -200.5 -100 -276.5s-149.5 -114 -248.5 -114s-181.833 38 -248.5 114s-100 168.167 -100 276.5s33.5 200.333 100.5 276s150 113.5 249 113.5s181.667 -37.833 248 -113.5z" />
    <glyph glyph-name="p" unicode="p" horiz-adv-x="657" 
d="M97 98l8.00098 272c0 30.667 -2.33301 104.334 -7 221.001c-24 13.333 -36 34.666 -36 63.999c0 20.667 10 38.667 30 54s45 27 75 35c56 14 108 21 156 21c103.333 0 182 -24.5 236 -73.5s81 -108.833 81 -179.5s-26.833 -130.667 -80.5 -180s-122.834 -74 -207.501 -74
c-50.667 0 -87 1.33301 -109 4l6 -164c0 -72 -25.333 -108 -76 -108s-76 36 -76 108zM241.001 394c39.333 -7.33301 77.832 -11.002 115.499 -11.002s70.667 11.833 99 35.5s42.5 54.334 42.5 92.001s-15 68.334 -45 92.001s-71.667 35.5 -125 35.5
c-29.333 0 -56.666 -4 -81.999 -12c-3.33301 -82 -5 -159.333 -5 -232z" />
    <glyph glyph-name="q" unicode="q" horiz-adv-x="825" 
d="M763 374c0 -64.667 -13.499 -124.666 -40.499 -179.999s-63.5 -101 -109.5 -137c28.667 -40.667 43 -70.334 43 -89.001s-5.66699 -33.667 -17 -45s-25.333 -17 -42 -17s-31.834 6.83301 -45.501 20.5s-28.5 37.167 -44.5 70.5c-26.667 -8 -58.667 -12 -96 -12
c-99.333 0 -182.333 37.833 -249 113.5s-100 167.667 -100 276s33.5 200.5 100.5 276.5s150.5 114 250.5 114s183.333 -37.833 250 -113.5s100 -168.167 100 -277.5zM621.001 374.001c0 71.333 -19.833 133.333 -59.5 186s-89.5 79 -149.5 79s-109.667 -26.333 -149 -79
s-59 -114 -59 -184s19.833 -131.667 59.5 -185s89.167 -80 148.5 -80c7.33301 0 17 0.666992 29 2c-22 32.667 -35 54.167 -39 64.5s-6 21.833 -6 34.5s5.83301 24.667 17.5 36s25.5 17 41.5 17s30.5 -6.16699 43.5 -18.5s27.167 -36.833 42.5 -73.5
c25.333 24.667 45 54.667 59 90s21 72.333 21 111z" />
    <glyph glyph-name="r" unicode="r" horiz-adv-x="565" 
d="M223 352l8 -255.999c0 -72 -25 -108 -75 -108c-56 0 -84 42.333 -84 127c0 60 8.66699 150.333 26 271c0 31.333 -3.66699 79 -11 143s-11 110.833 -11 140.5s6.66699 52.334 20 68.001s31.833 23.5 55.5 23.5s42 -9 55 -27s19.5 -43 19.5 -75
c20.667 31.333 46.5 56.666 77.5 75.999s66.167 29 105.5 29s71.333 -10 96 -30s37 -41.833 37 -65.5s-7.33301 -42.834 -22 -57.501s-31 -22 -49 -22s-36.5 7.83301 -55.5 23.5s-31.833 23.5 -38.5 23.5c-23.333 0 -52.333 -31.833 -87 -95.5s-57 -126.5 -67 -188.5z" />
    <glyph glyph-name="s" unicode="s" horiz-adv-x="608" 
d="M559 213c0 -64.667 -24.332 -118.834 -72.999 -162.501s-111.667 -65.5 -189 -65.5c-62 0 -118.667 14.833 -170 44.5s-77 60.834 -77 93.501c0 18 6.16699 32.833 18.5 44.5s27.666 17.5 45.999 17.5s36.333 -6.16699 54 -18.5s37 -24.666 58 -36.999
s46.667 -18.5 77 -18.5s57 9.16699 80 27.5s34.5 43.166 34.5 74.499c0 33.333 -28.667 67 -86 101l-55.5 32l-58.5 34c-13.333 8 -30.833 20.167 -52.5 36.5s-38.167 31.5 -49.5 45.5c-28 34.667 -42 72 -42 112c0 52 22.5 96.833 67.5 134.5s98 56.5 159 56.5
s113.167 -11.667 156.5 -35s65 -49.666 65 -78.999c0 -19.333 -6 -34.333 -18 -45s-27 -16 -45 -16s-41.333 8.16699 -70 24.5s-55.5 24.5 -80.5 24.5s-46.667 -6.16699 -65 -18.5s-27.5 -27.833 -27.5 -46.5c0 -20 12.667 -39.333 38 -58
c20 -14.667 46.167 -31.334 78.5 -50.001l69.5 -40.5c14 -8.33301 32.833 -21.5 56.5 -39.5s41.5 -34.333 53.5 -49s22.833 -33 32.5 -55s14.5 -45 14.5 -69z" />
    <glyph glyph-name="t" unicode="t" horiz-adv-x="605" 
d="M115 756l190 -6l190 6c25.333 0 45.5 -6 60.5 -18s22.5 -28.333 22.5 -49s-7.5 -37 -22.5 -49s-35.167 -18 -60.5 -18l-113 6c-3.33301 -88 -5 -174 -5 -258l8 -272c0 -72 -25.333 -108 -76 -108s-76 36 -76 108l8 272c0 54.667 -2.33301 140.667 -7 258l-119 -6
c-25.333 0 -45.5 6 -60.5 18s-22.5 28.333 -22.5 49s7.5 37 22.5 49s35.167 18 60.5 18z" />
    <glyph glyph-name="u" unicode="u" horiz-adv-x="821" 
d="M549 359l-6 293.999c0 72 25 108 75 108c56 0 84 -42.333 84 -127c0 -66.667 -8.66699 -157 -26 -271c0 -36 3.66699 -82.333 11 -139s17.333 -89.334 30 -98.001c12 -8 20.667 -13 26 -15s9 -3.66699 11 -5c3.33301 -3.33301 5 -10 5 -20
c0 -25.333 -8.66699 -47.666 -26 -66.999s-39.833 -29 -67.5 -29s-50.5 11.833 -68.5 35.5s-30.333 53.834 -37 90.501c-21.333 -34.667 -52.333 -64.167 -93 -88.5s-84.667 -36.5 -132 -36.5c-78.667 0 -139.667 26.167 -183 78.5s-65 116.166 -65 191.499l6 255
c0 27.333 -3.5 56.833 -10.5 88.5s-10.5 58.334 -10.5 80.001s7.5 39.667 22.5 54s34.5 21.5 58.5 21.5c55.333 0 83 -42 83 -126l-7 -311c0 -61.333 10 -110.666 30 -147.999s49.333 -56 88 -56s78 24.167 118 72.5s68 104.166 84 167.499z" />
    <glyph glyph-name="v" unicode="v" horiz-adv-x="666" 
d="M382.5 7c-17 -11.333 -34.3311 -17 -51.998 -17s-35.167 6.16699 -52.5 18.5s-30.333 31.5 -39 57.5c-52 156.667 -92.833 276 -122.5 358l-60.5 168c-17.333 48 -26 80.667 -26 98s5.66699 33.333 17 48s27.666 22 48.999 22c35.333 0 59.666 -20.667 72.999 -62
l67 -214c58.667 -191.333 90.5 -287 95.5 -287s25 53 60 159s69.833 217.333 104.5 334c14 46.667 37.667 70 71 70c22 0 39.5 -7 52.5 -21s19.5 -28.667 19.5 -44s-7.33301 -43.833 -22 -85.5l-81 -222l-115 -324.5c-8.66699 -26 -21.5 -44.667 -38.5 -56z" />
    <glyph glyph-name="w" unicode="w" horiz-adv-x="953" 
d="M720 50c-8 -20.667 -18.167 -35.8301 -30.5 -45.4971s-29.166 -14.5 -50.499 -14.5c-38.667 0 -66.334 24.333 -83.001 73c-8.66699 24.667 -18.667 59.334 -30 104.001c-26 101.333 -40.833 152 -44.5 152s-11.167 -20.167 -22.5 -60.5l-22 -78.5
c-11.333 -43.333 -23.333 -85.833 -36 -127.5s-39.667 -62.5 -81 -62.5s-68.333 19 -81 57c-8.66699 18.667 -32.334 89.167 -71.001 211.5s-65.667 205.666 -81 249.999l-33 94.5c-14.667 41.333 -22 72.166 -22 92.499s6.33301 36.166 19 47.499s28.667 17 48 17
c36 0 61.333 -23.667 76 -71c14 -48.667 37.667 -126.334 71 -233.001c50.667 -161.333 77.334 -242 80.001 -242c5.33301 0 24 62.667 56 188l16 63c15.333 62.667 42.333 94 81 94c24.667 0 43.667 -7.83301 57 -23.5s24 -39.167 32 -70.5c46 -166 71.667 -249 77 -249
c6.66699 0 52 155.333 136 466c14.667 52 37 78 67 78c22.667 0 40 -6.83301 52 -20.5s18 -27.5 18 -41.5s-2 -29.5 -6 -46.5s-8.5 -33 -13.5 -48l-23.5 -70l-31.5 -96.5l-43.5 -136z" />
    <glyph glyph-name="x" unicode="x" horiz-adv-x="708" 
d="M264 393c-64.667 103.333 -112.667 173.004 -144 209.004c-15.333 19.333 -34 30.666 -56 33.999c-6 1.33301 -10.667 2.66602 -14 3.99902c-8 4 -12 16.333 -12 37s7.5 40 22.5 58s33.5 27 55.5 27c38 0 73.333 -23.667 106 -71l119 -187c20 30 40.667 64.167 62 102.5
l48 85c10.667 18.333 23.334 34.333 38.001 48s30.5 20.5 47.5 20.5s31.667 -6.5 44 -19.5s18.5 -28 18.5 -45s-5.33301 -34.5 -16 -52.5s-32.834 -51.333 -66.501 -100s-66.834 -100.667 -99.501 -156c76 -116 133 -196 171 -240c15.333 -19.333 34 -31 56 -35
c6 -0.666992 10.667 -1.66699 14 -3c8 -4 12 -16.333 12 -37s-7.5 -40 -22.5 -58s-33.5 -27 -55.5 -27c-37.333 0 -72.333 23.667 -105 71l-149 218c-20 -30 -44.333 -70.5 -73 -121.5s-49.667 -86.5 -63 -106.5c-25.333 -38 -50.666 -57 -75.999 -57
c-18 0 -33.167 6.5 -45.5 19.5s-18.5 27.833 -18.5 44.5s7 36.667 21 60s39.5 61.666 76.5 114.999s71.833 107.666 104.5 162.999z" />
    <glyph glyph-name="y" unicode="y" horiz-adv-x="602" 
d="M223 98c0 32 2.33008 97.0029 6.99707 195.003c-21.333 43.333 -50.666 96.166 -87.999 158.499l-89 153c-22 39.667 -33 69 -33 88s5.83301 35 17.5 48s26.667 19.5 45 19.5s32.5 -3.16699 42.5 -9.5s20.667 -18.666 32 -36.999s22 -37.833 32 -58.5
c40.667 -84.667 78.667 -157 114 -217c38 66.667 69 124.667 93 174s41.5 83.166 52.5 101.499s21.333 30.666 31 36.999s23.334 9.5 41.001 9.5s32.334 -6.83301 44.001 -20.5s17.5 -29.334 17.5 -47.001s-11.333 -46.667 -34 -87s-53 -91.666 -91 -153.999
s-67.667 -115.5 -89 -159.5c4.66699 -88.667 7 -153.334 7 -194.001c0 -72 -25.333 -108 -76 -108s-76 36 -76 108z" />
    <glyph glyph-name="z" unicode="z" horiz-adv-x="617" 
d="M334 122l163.001 6c24.667 0 44.5 -6 59.5 -18s22.5 -28.167 22.5 -48.5s-7.5 -36.666 -22.5 -48.999s-34.833 -18.5 -59.5 -18.5l-163 6l-213 -6c-53.333 0 -80 21.333 -80 64c0 26 15.667 61.333 47 106c54 76.667 109.333 162.667 166 258l122 205
c-15.333 0.666992 -42 1 -80 1l-162 -6c-24.667 0 -44.5 6 -59.5 18s-22.5 28.167 -22.5 48.5s7.5 36.666 22.5 48.999s34.833 18.5 59.5 18.5l162 -6l189 6c53.333 0 80 -20.667 80 -62c0 -21.333 -5.33301 -42 -16 -62s-34.5 -56.667 -71.5 -110
s-72.5 -108.333 -106.5 -165l-140 -234c21.333 -0.666992 55.666 -1 102.999 -1z" />
    <glyph glyph-name="braceleft" unicode="{" horiz-adv-x="405" 
d="M246 374c25.333 -32.667 38 -85.3389 38 -158.006c0 -22.667 -2.16699 -48.667 -6.5 -78s-6.5 -49.333 -6.5 -60s4.5 -19.5 13.5 -26.5s19 -11.833 30 -14.5s21 -9.16699 30 -19.5s13.5 -24.666 13.5 -42.999s-6.16699 -33.5 -18.5 -45.5s-28.833 -18 -49.5 -18
c-44 0 -82.167 12.833 -114.5 38.5s-48.5 62.167 -48.5 109.5c0 18.667 2.33301 45.167 7 79.5s7 63.833 7 88.5s-2.33301 44.334 -7 59.001c-8 -1.33301 -14.333 -2 -19 -2c-26 0 -48.5 7.66699 -67.5 23s-28.5 37.333 -28.5 66s9.5 50.667 28.5 66s41.833 23 68.5 23
c4.66699 0 11 -0.666992 19 -2c4.66699 14.667 7 34.334 7 59.001s-2.33301 54.167 -7 88.5s-7 60.833 -7 79.5c0 47.333 16.167 83.833 48.5 109.5s70.5 38.5 114.5 38.5c20.667 0 37.167 -6 49.5 -18s18.5 -27.167 18.5 -45.5s-4.5 -32.666 -13.5 -42.999
s-18.833 -16.833 -29.5 -19.5c-29.333 -7.33301 -44 -21.666 -44 -42.999c0 -9.33301 2.16699 -28.666 6.5 -57.999s6.5 -55.333 6.5 -78c0 -70.667 -13 -122.667 -39 -156z" />
    <glyph glyph-name="bar" unicode="|" horiz-adv-x="296" 
d="M211 339l4 -311c0 -71.333 -22.667 -107 -68 -107c-44 0 -66 35.667 -66 107l4 311l-5 311c0 73.333 22.667 110 68 110s68 -36.667 68 -110z" />
    <glyph glyph-name="braceright" unicode="}" horiz-adv-x="405" 
d="M159 374c-26 33.333 -39 85.3379 -39 156.005c0 22.667 2.16699 48.667 6.5 78s6.5 49.333 6.5 60s-4.5 19.5 -13.5 26.5s-19 11.833 -30 14.5s-21 9.16699 -30 19.5s-13.5 24.666 -13.5 42.999s6.16699 33.5 18.5 45.5s28.833 18 49.5 18
c44 0 82.167 -12.833 114.5 -38.5s48.5 -62.167 48.5 -109.5c0 -18.667 -2.33301 -45.167 -7 -79.5s-7 -63.833 -7 -88.5s2.33301 -44.334 7 -59.001c8 1.33301 14.333 2 19 2c26.667 0 49.5 -7.66699 68.5 -23s28.5 -37.333 28.5 -66s-9.5 -50.667 -28.5 -66
s-41.5 -23 -67.5 -23c-4.66699 0 -11 0.666992 -19 2c-4.66699 -14.667 -7 -34.334 -7 -59.001s2.33301 -54.167 7 -88.5s7 -60.833 7 -79.5c0 -47.333 -16.167 -83.833 -48.5 -109.5s-70.5 -38.5 -114.5 -38.5c-20.667 0 -37.167 6 -49.5 18s-18.5 27.167 -18.5 45.5
s4.5 32.666 13.5 42.999s18.833 16.833 29.5 19.5c29.333 7.33301 44 21.666 44 42.999c0 9.33301 -2.16699 28.666 -6.5 57.999s-6.5 55.333 -6.5 78c0 72.667 12.667 125.334 38 158.001z" />
    <glyph glyph-name="asciitilde" unicode="~" horiz-adv-x="622" 
d="M570 399c0 -22.667 -17.0059 -46.167 -51.0059 -70.5s-69.667 -36.5 -107 -36.5c-24 0 -55 8.16699 -93 24.5s-63.167 24.5 -75.5 24.5s-30.166 -8.5 -53.499 -25.5s-45 -25.5 -65 -25.5s-36.167 5.5 -48.5 16.5s-18.5 25.5 -18.5 43.5c0 26 16.5 50.5 49.5 73.5
s73.5 34.5 121.5 34.5c24.667 0 55.834 -8.33301 93.501 -25s65.334 -25 83.001 -25s37.834 7.16699 60.501 21.5s41.334 21.5 56.001 21.5s26.334 -5 35.001 -15s13 -22.333 13 -37z" />
    <glyph glyph-name="nbspace" unicode="&#xa0;" horiz-adv-x="290" 
 />
    <glyph glyph-name="exclamdown" unicode="&#xa1;" horiz-adv-x="314" 
d="M90 214l-1 149c0 26 6.16699 46.667 18.5 62s29 23 50 23s37.667 -7.66699 50 -23s18.5 -36 18.5 -62l-2 -149l7 -201c0 -31.333 -6.5 -55.5 -19.5 -72.5s-31.167 -25.5 -54.5 -25.5s-41.5 8.5 -54.5 25.5s-19.5 41.167 -19.5 72.5zM100 548.5
c-13.333 15 -20 33.5 -20 55.5s7.66699 41.833 23 59.5s34.5 26.5 57.5 26.5s41 -7.66699 54 -23s19.5 -34 19.5 -56s-7.5 -41.667 -22.5 -59s-34 -26 -57 -26s-41.167 7.5 -54.5 22.5z" />
    <glyph glyph-name="cent" unicode="&#xa2;" horiz-adv-x="711" 
d="M658 121c0 -24.667 -17.1709 -49.832 -51.5039 -75.499s-78.166 -43.5 -131.499 -53.5c-7.33301 -49.333 -29.333 -74 -66 -74c-35.333 0 -56.666 24 -63.999 72c-82.667 12.667 -150.5 53.167 -203.5 121.5s-79.5 147.833 -79.5 238.5s26.333 169.834 79 237.501
s120.334 108.5 203.001 122.5c6.66699 51.333 28.667 77 66 77s59.333 -26.667 66 -80c46 -9.33301 84.667 -24.833 116 -46.5s47 -43.5 47 -65.5s-6.33301 -38.833 -19 -50.5s-26.667 -17.5 -42 -17.5s-28 2.16699 -38 6.5s-21.5 10.666 -34.5 18.999
s-22.833 14.166 -29.5 17.499c-2 -134 -3 -207.833 -3 -221.5s1 -89.5 3 -227.5c18 4.66699 40.167 14.667 66.5 30s47.333 23 63 23s28.334 -5 38.001 -15s14.5 -22.667 14.5 -38zM241.996 493.002c-25.333 -42.667 -38 -90.168 -38 -142.501
s12.833 -100.166 38.5 -143.499s59.5 -72.333 101.5 -87c2 138 3 219.333 3 244s-0.666992 64 -2 118s-2 86 -2 96c-42 -14 -75.667 -42.333 -101 -85z" />
    <glyph glyph-name="sterling" unicode="&#xa3;" horiz-adv-x="593" 
d="M311 121l143.996 6.99707c24.667 0 44.334 -6 59.001 -18s22 -28.333 22 -49s-7.33301 -36.834 -22 -48.501s-34.334 -17.5 -59.001 -17.5l-144 5l-143 -5c-25.333 0 -45.5 6.66699 -60.5 20s-22.5 31.833 -22.5 55.5s5.83301 44.834 17.5 63.501
s23.5 40.334 35.5 65.001s18 55 18 91c-60.667 0 -91 20.333 -91 61c0 36.667 24.667 56.334 74 59.001c-13.333 56.667 -20 97.334 -20 122.001c0 51.333 18.5 94.333 55.5 129s88.167 52 153.5 52c50 0 93.167 -11.5 129.5 -34.5s54.5 -47.833 54.5 -74.5
c0 -16.667 -5.16699 -31.5 -15.5 -44.5s-24.666 -19.5 -42.999 -19.5s-41.166 7.66699 -68.499 23s-49.666 23 -66.999 23s-31.333 -5.16699 -42 -15.5s-16 -24.5 -16 -42.5s6 -58 18 -120l115 3c24.667 0 44 -5.5 58 -16.5s21 -25.667 21 -44s-7 -33 -21 -44
s-33.333 -16.5 -58 -16.5l-100 3c-1.33301 -68 -13.666 -125 -36.999 -171z" />
    <glyph glyph-name="currency" unicode="&#xa4;" horiz-adv-x="676" 
d="M542 473c14 -30.667 21 -64.165 21 -100.498s-7 -69.833 -21 -100.5c29.333 -26.667 47.666 -44.834 54.999 -54.501s11 -22.167 11 -37.5s-6.83301 -29.333 -20.5 -42s-29 -19 -46 -19s-30.5 3.33301 -40.5 10s-25.333 21.334 -46 44.001
c-33.333 -19.333 -72.166 -29 -116.499 -29s-83.833 9.66699 -118.5 29c-20.667 -22.667 -35.667 -37.334 -45 -44.001s-22.833 -10 -40.5 -10s-33.334 6.16699 -47.001 18.5s-20.5 26.5 -20.5 42.5s3.5 28.833 10.5 38.5s25.167 27.5 54.5 53.5
c-13.333 32 -20 65.5 -20 100.5s6.66699 68.5 20 100.5c-29.333 26 -47.5 43.833 -54.5 53.5s-10.5 22.5 -10.5 38.5s6.83301 30.167 20.5 42.5s29.334 18.5 47.001 18.5s31.167 -3.33301 40.5 -10s24.333 -21.334 45 -44.001c34.667 19.333 74.167 29 118.5 29
s83.166 -9.66699 116.499 -29c20.667 22.667 36 37.334 46 44.001s23.5 10 40.5 10s32.333 -6.33301 46 -19s20.5 -26.667 20.5 -42s-3.66699 -27.833 -11 -37.5s-25.666 -27.834 -54.999 -54.501zM402.5 448.002c-18.333 21.333 -39.998 32.002 -64.998 32.002
s-46.833 -10.5 -65.5 -31.5s-28 -46.333 -28 -76s9.16699 -55.334 27.5 -77.001s40.166 -32.5 65.499 -32.5s47.166 10.833 65.499 32.5s27.5 47.167 27.5 76.5s-9.16699 54.666 -27.5 75.999z" />
    <glyph glyph-name="yen" unicode="&#xa5;" horiz-adv-x="671" 
d="M337 -10c-50.667 0 -75.999 35.999 -75.999 107.999v32c-17.333 -0.666992 -50.666 -1 -99.999 -1c-20.667 0 -38 5.83301 -52 17.5s-21 26.167 -21 43.5s7 31.833 21 43.5s34.833 17.5 62.5 17.5s59.5 -0.666992 95.5 -2c-19.333 36.667 -30.333 57.334 -33 62.001h-73
c-20.667 0 -38 5.83301 -52 17.5s-21 26.167 -21 43.5s7 31.833 21 43.5s32.333 17.5 55 17.5l-34 57l-18.5 31.5c-7 11.667 -12 20.667 -15 27s-7.16699 14.333 -12.5 24s-9.16602 17.334 -11.499 23.001l-7.5 18.5c-4.66699 12.667 -7 26.167 -7 40.5s5.83301 28 17.5 41
s26.5 19.5 44.5 19.5s31.667 -2.83301 41 -8.5s19.833 -17.5 31.5 -35.5s22.5 -37 32.5 -57l116 -221c48.667 88.667 82.5 152.667 101.5 192s34.167 68 45.5 86s21.666 29.833 30.999 35.5s22.666 8.5 39.999 8.5s31.833 -6.83301 43.5 -20.5s17.5 -29.167 17.5 -46.5
c0 -20.667 -13.333 -53.334 -40 -98.001l-16 -27l-16.5 -27.5l-18 -30.5c-7.66699 -13.333 -13.834 -23.666 -18.501 -30.999c22 0 40 -5.83301 54 -17.5s21 -26.334 21 -44.001s-6.83301 -32.5 -20.5 -44.5s-33.667 -18 -60 -18s-48.166 0.333008 -65.499 1l-33 -63
c52 2.66699 88 4 108 4s36.833 -6 50.5 -18s20.5 -26.667 20.5 -44s-6.83301 -32 -20.5 -44s-33.334 -18 -59.001 -18s-57.167 1 -94.5 3c0.666992 -7.33301 1 -18.333 1 -33c0 -72 -25.333 -108 -76 -108z" />
    <glyph glyph-name="brokenbar" unicode="&#xa6;" horiz-adv-x="306" 
d="M215 595l5 -83c0 -24 -6.16699 -43.667 -18.5 -59s-29 -23 -50 -23s-37.167 7.5 -48.5 22.5s-17 34.833 -17 59.5l4 83l-3 83c0 24.667 5.5 44.5 16.5 59.5s27 22.5 48 22.5s37.5 -7.5 49.5 -22.5s18 -34.833 18 -59.5zM215 155l5 -83c0 -24 -6.16699 -43.667 -18.5 -59
s-29 -23 -50 -23s-37.167 7.5 -48.5 22.5s-17 34.833 -17 59.5l4 83l-3 83c0 24.667 5.5 44.5 16.5 59.5s27 22.5 48 22.5s37.5 -7.5 49.5 -22.5s18 -34.833 18 -59.5z" />
    <glyph glyph-name="section" unicode="&#xa7;" horiz-adv-x="590" 
d="M459 197c28 -28 42 -60.3311 42 -96.998c0 -50 -20.833 -93.333 -62.5 -130s-95.834 -55 -162.501 -55c-50 0 -98.667 14.333 -146 43s-71 57 -71 85c0 17.333 5.5 31.166 16.5 41.499s25.167 15.5 42.5 15.5s40.833 -9.66699 70.5 -29s57.834 -29 84.501 -29
s48 5.33301 64 16s24 23.667 24 39s-9.33301 29.333 -28 42s-43.5 26.834 -74.5 42.501s-55 28.5 -72 38.5s-35.833 22.667 -56.5 38c-40 31.333 -60 68.666 -60 111.999c0 27.333 8.33301 52.166 25 74.499s39.667 40.166 69 53.499c-41.333 34.667 -62 72.334 -62 113.001
s19.833 76.5 59.5 107.5s86.667 46.5 141 46.5s100.5 -10.667 138.5 -32s57 -46.333 57 -75c0 -15.333 -5.66699 -28.333 -17 -39s-25 -16 -41 -16s-36.5 6 -61.5 18s-47.833 18 -68.5 18c-44.667 0 -67 -10.667 -67 -32c0 -10 6.16699 -20.833 18.5 -32.5
s24.5 -21 36.5 -28s31.5 -17.667 58.5 -32s48 -26 63 -35s33.167 -21.5 54.5 -37.5c40 -32 60 -71.667 60 -119s-25 -89.333 -75 -126zM397 329.002c0 15.333 -13.668 31.499 -41.001 48.499s-52.166 25.5 -74.499 25.5s-40.5 -2.83301 -54.5 -8.5s-21 -13.167 -21 -22.5
s9.83301 -21 29.5 -35s55.5 -35.333 107.5 -64c36 10.667 54 29.334 54 56.001z" />
    <glyph glyph-name="dieresis" unicode="&#xa8;" horiz-adv-x="542" 
d="M447 701.5c13.333 -15 20 -33.5 20 -55.5s-7.66699 -41.833 -23 -59.5s-34.5 -26.5 -57.5 -26.5s-41 7.66699 -54 23s-19.5 34 -19.5 56s7.5 41.667 22.5 59s34 26 57 26s41.167 -7.5 54.5 -22.5zM209 701.5c13.333 -15 20 -33.5 20 -55.5s-7.66699 -41.833 -23 -59.5
s-34.5 -26.5 -57.5 -26.5s-41 7.66699 -54 23s-19.5 34 -19.5 56s7.5 41.667 22.5 59s34 26 57 26s41.167 -7.5 54.5 -22.5z" />
    <glyph glyph-name="copyright" unicode="&#xa9;" horiz-adv-x="788" 
d="M399 620c28.667 0 55.0029 -6.83398 79.0029 -20.501s36 -29.5 36 -47.5c0 -32.667 -17 -49 -51 -49c-8 0 -18.333 3.33301 -31 10s-22.334 10 -29.001 10c-18.667 0 -33 -7.16699 -43 -21.5s-15 -31.166 -15 -50.499s5.66699 -35.833 17 -49.5s25 -20.5 41 -20.5
c7.33301 0 18.666 3 33.999 9s28.333 9 39 9s20.5 -4.16699 29.5 -12.5s13.5 -20 13.5 -35s-11.333 -30 -34 -45s-51.334 -22.5 -86.001 -22.5c-45.333 0 -83.5 16.667 -114.5 50s-46.5 73 -46.5 119s15 85.333 45 118s68.667 49 116 49zM718.003 448.999
c0 -87.333 -31.5 -161.833 -94.5 -223.5s-139.333 -92.5 -229 -92.5s-166.334 31 -230.001 93s-95.5 136.5 -95.5 223.5s31.833 161.333 95.5 223s140.334 92.5 230.001 92.5s166 -30.833 229 -92.5s94.5 -136.167 94.5 -223.5zM541.503 300.999
c41 40.667 61.5 90.168 61.5 148.501s-20.5 107.833 -61.5 148.5s-90.5 61 -148.5 61s-107.333 -20.333 -148 -61s-61 -90.334 -61 -149.001s20.333 -108.167 61 -148.5s90 -60.5 148 -60.5s107.5 20.333 148.5 61z" />
    <glyph glyph-name="ordfeminine" unicode="&#xaa;" horiz-adv-x="435" 
d="M247 599l-0.998047 45.002c-16.667 11.333 -31.834 17 -45.501 17s-25.167 -6.33301 -34.5 -19s-14 -27.834 -14 -45.501s2.83301 -32.334 8.5 -44.001s14 -17.5 25 -17.5s22.667 6.5 35 19.5s21.166 27.833 26.499 44.5zM357.002 682.002
c0 -5.33301 -1.99805 -21.998 -5.99805 -49.998s-6 -49 -6 -63s2 -24.667 6 -32s8.33301 -11.333 13 -12c12 -2 18 -7.66699 18 -17c0 -21.333 -6.16699 -38.5 -18.5 -51.5s-28.5 -19.5 -48.5 -19.5s-36.667 13.667 -50 41c-25.333 -27.333 -53.333 -41 -84 -41
c-40.667 0 -72.334 16.167 -95.001 48.5s-34 69.666 -34 111.999s14.167 80.166 42.5 113.499s64.166 50 107.499 50c21.333 0 42.333 -6.33301 63 -19c10 12.667 22 19 36 19c37.333 0 56 -26.333 56 -79z" />
    <glyph glyph-name="guillemotleft" unicode="&#xab;" horiz-adv-x="611" 
d="M232 434c-34.667 -30 -51.9961 -49.5 -51.9961 -58.5s17.333 -28.5 52 -58.5c12.667 -10.667 22 -19 28 -25c16.667 -16.667 25 -33 25 -49s-5.83301 -29.833 -17.5 -41.5s-23.5 -17.5 -35.5 -17.5s-21.833 2.16699 -29.5 6.5s-13.834 8.83301 -18.501 13.5
s-12.667 13.5 -24 26.5s-21 23.5 -29 31.5s-18.167 17.667 -30.5 29s-21.5 20 -27.5 26s-11.5 14.167 -16.5 24.5s-7.5 21.833 -7.5 34.5s2.5 24.167 7.5 34.5s10.5 18.333 16.5 24l27.5 25.5c12.333 11.333 22.5 21 30.5 29s17.667 18.5 29 31.5s19.333 21.833 24 26.5
c13.333 13.333 27.666 20 42.999 20s28.833 -5.83301 40.5 -17.5s17.5 -23.667 17.5 -36s-2.83301 -23.166 -8.5 -32.499s-11.334 -16.833 -17.001 -22.5s-14.834 -13.834 -27.501 -24.501zM491.004 434c-34.667 -30 -51.9961 -49.5 -51.9961 -58.5s17.333 -28.5 52 -58.5
c12.667 -10.667 21.667 -19 27 -25c17.333 -16.667 26 -33 26 -49s-5.83301 -29.833 -17.5 -41.5s-23.5 -17.5 -35.5 -17.5s-21.833 2.16699 -29.5 6.5s-13.834 8.83301 -18.501 13.5s-12.667 13.5 -24 26.5s-21 23.5 -29 31.5s-18.167 17.667 -30.5 29s-21.5 20 -27.5 26
s-11.5 14.167 -16.5 24.5s-7.5 21.833 -7.5 34.5s2.5 24.167 7.5 34.5s10.5 18.333 16.5 24l27.5 25.5c12.333 11.333 22.5 21 30.5 29s17.667 18.5 29 31.5s19.333 21.833 24 26.5c13.333 13.333 27.666 20 42.999 20s28.833 -5.83301 40.5 -17.5s17.5 -23.667 17.5 -36
s-2.83301 -23.166 -8.5 -32.499s-11.334 -16.833 -17.001 -22.5s-14.834 -13.834 -27.501 -24.501z" />
    <glyph glyph-name="logicalnot" unicode="&#xac;" horiz-adv-x="707" 
d="M622 301l2 -66.001c0 -22.667 -6.16699 -41 -18.5 -55s-28.5 -21 -48.5 -21s-36.167 7 -48.5 21s-18.5 32.333 -18.5 55l2 70l-150 1l-183 -4c-22 0 -40.167 5.83301 -54.5 17.5s-21.5 26.5 -21.5 44.5s7 32.5 21 43.5s32.333 16.5 55 16.5l183 -3l205 3
c18 0 35.333 -5.16699 52 -15.5s25 -28.166 25 -53.499z" />
    <glyph glyph-name="uni00AD" unicode="&#xad;" horiz-adv-x="438" 
d="M220 317l86 5c20.667 0 37.834 -6 51.501 -18s20.5 -26.667 20.5 -44s-6.83301 -32 -20.5 -44s-30.834 -18 -51.501 -18l-86 5l-87 -4c-20.667 0 -38 5.83301 -52 17.5s-21 26.167 -21 43.5s7 31.833 21 43.5s31.333 17.5 52 17.5z" />
    <glyph glyph-name="registered" unicode="&#xae;" horiz-adv-x="787" 
d="M364 470l21.999 -4c11.333 0 20.166 3 26.499 9s9.5 13.333 9.5 22s-3.16699 16.667 -9.5 24s-14.666 11 -24.999 11s-18.166 -1.33301 -23.499 -4v-58zM717.999 449c0 -87.333 -31.5 -161.833 -94.5 -223.5s-139.333 -92.5 -229 -92.5s-166.334 31 -230.001 93
s-95.5 136.5 -95.5 223.5s31.833 161.333 95.5 223s140.334 92.5 230.001 92.5s166 -30.833 229 -92.5s94.5 -136.167 94.5 -223.5zM541.499 301c41 40.667 61.5 90.168 61.5 148.501s-20.5 107.833 -61.5 148.5s-90.5 61 -148.5 61s-107.333 -20.333 -148 -61
s-61 -90.334 -61 -149.001s20.333 -108.167 61 -148.5s90 -60.5 148 -60.5s107.5 20.333 148.5 61zM274.999 460.001l-3.99707 97.9961c0 24.667 10 41.334 30 50.001s50 13 90 13s71.667 -11.667 95 -35s35 -51.166 35 -83.499s-16 -60.166 -48 -83.499
c4.66699 -14 10.667 -24.5 18 -31.5s13.666 -10.833 18.999 -11.5c14.667 -2 22 -10.667 22 -26s-5.66699 -29.166 -17 -41.499s-23.333 -18.5 -36 -18.5s-24.834 4.83301 -36.501 14.5s-21.167 20.167 -28.5 31.5c-20.667 31.333 -34.334 47 -41.001 47
c0.666992 -7.33301 1 -19.333 1 -36s-4.33301 -30.5 -13 -41.5s-21 -16.5 -37 -16.5c-35.333 0 -53 18.667 -53 56z" />
    <glyph glyph-name="macron" unicode="&#xaf;" horiz-adv-x="496" 
d="M251 728l116 5c20.667 0 37.834 -6 51.501 -18s20.5 -26.667 20.5 -44s-6.83301 -32 -20.5 -44s-30.834 -18 -51.501 -18l-116 5l-117 -4c-20.667 0 -38 5.83301 -52 17.5s-21 26.167 -21 43.5s7 31.833 21 43.5s31.333 17.5 52 17.5z" />
    <glyph glyph-name="degree" unicode="&#xb0;" horiz-adv-x="407" 
d="M311.5 719.5c27.667 -29 41.5 -64.333 41.5 -106s-13.833 -77 -41.5 -106s-63.667 -43.5 -108 -43.5s-80.333 14.333 -108 43s-41.5 64 -41.5 106s13.833 77.5 41.5 106.5s63.667 43.5 108 43.5s80.333 -14.5 108 -43.5zM233 578.5c7.33301 9 11 20.333 11 34
s-3.66699 25.334 -11 35.001s-17 14.5 -29 14.5s-21.833 -4.83301 -29.5 -14.5s-11.5 -21.334 -11.5 -35.001s3.83301 -25 11.5 -34s17.5 -13.5 29.5 -13.5s21.667 4.5 29 13.5z" />
    <glyph glyph-name="plusminus" unicode="&#xb1;" horiz-adv-x="642" 
d="M322 170l176 5c20.667 0 37.834 -6 51.501 -18s20.5 -26.667 20.5 -44s-6.83301 -32 -20.5 -44s-30.834 -18 -51.501 -18l-176 5l-177 -4c-20.667 0 -38 5.83301 -52 17.5s-21 26.167 -21 43.5s7 31.833 21 43.5s31.333 17.5 52 17.5zM259 525l-3.00195 86.999
c0 24 5.83301 43 17.5 57s27.5 21 47.5 21s36 -7.16699 48 -21.5s18 -33.5 18 -57.5l-3 -86l113 2c20.667 0 37.834 -6 51.501 -18s20.5 -26.833 20.5 -44.5s-6.83301 -32.334 -20.5 -44.001s-29.167 -17.5 -46.5 -17.5s-56.666 0.666992 -117.999 2l3 -99
c0 -24 -5.83301 -43.333 -17.5 -58s-27.667 -22 -48 -22s-36.333 7.5 -48 22.5s-17.5 34.5 -17.5 58.5l3 99l-114 -2c-21.333 0 -38.833 5.83301 -52.5 17.5s-20.5 26.334 -20.5 44.001s7 32.334 21 44.001s29.833 17.5 47.5 17.5s57.167 -0.666992 118.5 -2z" />
    <glyph glyph-name="twosuperior" unicode="&#xb2;" horiz-adv-x="432" 
d="M220 446l82.001 3.00098c22.667 0 41.167 -4.83301 55.5 -14.5s21.5 -24.167 21.5 -43.5c0 -39.333 -25.667 -59 -77 -59l-90 3l-86 -3c-18.667 0 -35.334 5.16699 -50.001 15.5s-22 25.333 -22 45s14.667 46 44 79s58.5 64.167 87.5 93.5s43.5 48.333 43.5 57
c0 19.333 -8.66699 29 -26 29c-12.667 0 -27.167 -6.5 -43.5 -19.5s-31.5 -19.5 -45.5 -19.5s-25.5 5 -34.5 15s-13.5 21.333 -13.5 34c0 24 14.5 47.167 43.5 69.5s64.667 33.5 107 33.5s76.333 -11.833 102 -35.5s38.5 -50.834 38.5 -81.501
c0 -29.333 -11 -58.333 -33 -87c-24 -30.667 -58.667 -68.667 -104 -114z" />
    <glyph glyph-name="threesuperior" unicode="&#xb3;" horiz-adv-x="432" 
d="M206 750l75.001 2.99902c11.333 0 22.333 -1.16699 33 -3.5s21.667 -8.66602 33 -18.999s17 -22.833 17 -37.5s-3.33301 -26.5 -10 -35.5s-17 -19.333 -31 -31s-23.667 -20.167 -29 -25.5c58 -27.333 87 -70.333 87 -129c0 -40 -15.833 -75.5 -47.5 -106.5
s-74.167 -46.5 -127.5 -46.5c-40 0 -75.5 10.167 -106.5 30.5s-46.5 40 -46.5 59s5.16699 33.5 15.5 43.5s22 15 35 15s28.333 -6.33301 46 -19s34.667 -19 51 -19s29.333 3.83301 39 11.5s14.5 17.5 14.5 29.5c0 28.667 -12.333 47 -37 55
c-14.667 -15.333 -30.834 -23 -48.501 -23s-32.667 5.5 -45 16.5s-18.5 23.833 -18.5 38.5c0 22.667 15.667 39.667 47 51c14.667 12 27 24.333 37 37c-36 -2 -55.667 -3 -59 -3c-21.333 0 -38.333 4.5 -51 13.5s-19 22 -19 39s6.33301 31 19 42s29.667 16.5 51 16.5z" />
    <glyph glyph-name="acute" unicode="&#xb4;" horiz-adv-x="342" 
d="M264 677c0 -32.667 -17.335 -63.666 -52.002 -92.999s-64 -44 -88 -44c-15.333 0 -27.333 4.16699 -36 12.5s-13 18.166 -13 29.499s6.83301 27.166 20.5 47.499s21.334 32 23.001 35s4.83398 10 9.50098 21s8.5 19 11.5 24s7.16699 10.833 12.5 17.5
c11.333 12.667 27.5 19 48.5 19s36.833 -7.16699 47.5 -21.5s16 -30.166 16 -47.499z" />
    <glyph glyph-name="mu" unicode="&#xb5;" horiz-adv-x="876" 
d="M573 359l-6 294c0 72 25 108 75 108c56 0 84 -42.333 84 -127c0 -66.667 -8.66699 -157 -26 -271c0 -36 3.66699 -82.333 11 -139s17.333 -89.334 30 -98.001c12 -8 20.667 -13 26 -15s9 -3.66699 11 -5c3.33301 -3.33301 5 -10 5 -20
c0 -25.333 -8.66699 -47.666 -26 -66.999s-39.833 -29 -67.5 -29s-50.5 11.833 -68.5 35.5s-30.333 53.834 -37 90.501c-20.667 -34.667 -50.334 -64.167 -89.001 -88.5s-78.667 -36.5 -120 -36.5s-78.333 9 -111 27c-3.33301 -74.667 -28.666 -112 -75.999 -112
c-50.667 0 -76 36.333 -76 109l8 323l-7 312c0 73.333 25.333 110 76 110s76 -36.667 76 -110l-9 -312c0 -32.667 0.333008 -57 1 -73c12.667 -97.333 51 -146 115 -146c38 0 77 24.167 117 72.5s68 104.166 84 167.499z" />
    <glyph glyph-name="mu" unicode="&#x3bc;" horiz-adv-x="876" 
d="M573 359l-6 294c0 72 25 108 75 108c56 0 84 -42.333 84 -127c0 -66.667 -8.66699 -157 -26 -271c0 -36 3.66699 -82.333 11 -139s17.333 -89.334 30 -98.001c12 -8 20.667 -13 26 -15s9 -3.66699 11 -5c3.33301 -3.33301 5 -10 5 -20
c0 -25.333 -8.66699 -47.666 -26 -66.999s-39.833 -29 -67.5 -29s-50.5 11.833 -68.5 35.5s-30.333 53.834 -37 90.501c-20.667 -34.667 -50.334 -64.167 -89.001 -88.5s-78.667 -36.5 -120 -36.5s-78.333 9 -111 27c-3.33301 -74.667 -28.666 -112 -75.999 -112
c-50.667 0 -76 36.333 -76 109l8 323l-7 312c0 73.333 25.333 110 76 110s76 -36.667 76 -110l-9 -312c0 -32.667 0.333008 -57 1 -73c12.667 -97.333 51 -146 115 -146c38 0 77 24.167 117 72.5s68 104.166 84 167.499z" />
    <glyph glyph-name="paragraph" unicode="&#xb6;" horiz-adv-x="732" 
d="M621 270l5.00098 -258.001c-1.33301 -64.667 -25 -97 -71 -97c-22.667 0 -39.834 8.66699 -51.501 26s-17.5 41 -17.5 71l5 258l-4 366h-108c-3.33301 -158 -5 -280 -5 -366l6 -258c0 -29.333 -6 -52.666 -18 -69.999s-29.333 -26 -52 -26s-40.167 8.66699 -52.5 26
s-18.5 40.666 -18.5 69.999l6 288c-59.333 8.66699 -107 33 -143 73s-54 87.667 -54 143c0 73.333 23 130.833 69 172.5s109 63.167 189 64.5l132 -3l109 3c24 0 43 -8.66699 57 -26s21 -40.666 21 -69.999z" />
    <glyph glyph-name="periodcentered" unicode="&#xb7;" horiz-adv-x="290" 
d="M202 439.5c13.333 -15 20 -33.5 20 -55.5s-7.66699 -41.833 -23 -59.5s-34.5 -26.5 -57.5 -26.5s-41 7.66699 -54 23s-19.5 34 -19.5 56s7.5 41.667 22.5 59s34 26 57 26s41.167 -7.5 54.5 -22.5z" />
    <glyph glyph-name="cedilla" unicode="&#xb8;" horiz-adv-x="341" 
d="M102 20h105.999c2 -41.333 11.667 -71.333 29 -90c26.667 -29.333 40 -56.833 40 -82.5s-12.167 -48.334 -36.5 -68.001s-54 -29.5 -89 -29.5s-65 10 -90 30s-37.5 39.667 -37.5 59c0 11.333 3.5 20.833 10.5 28.5s16.333 11.5 28 11.5s24.834 -4.16699 39.501 -12.5
s26.334 -12.5 35.001 -12.5c15.333 0 23 6.33301 23 19c0 6 -6.33301 15.333 -19 28s-22.334 25.334 -29.001 38.001s-10 39.667 -10 81z" />
    <glyph glyph-name="onesuperior" unicode="&#xb9;" horiz-adv-x="357" 
d="M281 544l3 -136.999c0 -23.333 -5.83301 -41.833 -17.5 -55.5s-27.334 -20.5 -47.001 -20.5s-35.334 6.83301 -47.001 20.5s-17.5 32.167 -17.5 55.5c0 7.33301 0.333008 27.666 1 60.999s1 67.333 1 102c-27.333 -33.333 -49.833 -50 -67.5 -50s-32.167 5 -43.5 15
s-17 22.167 -17 36.5s4.33301 27.5 13 39.5s22 27.5 40 46.5s33.333 35.833 46 50.5s21.334 24 26.001 28c20.667 16 41.834 24 63.501 24s38.167 -7.66699 49.5 -23s17 -36 17 -62z" />
    <glyph glyph-name="ordmasculine" unicode="&#xba;" horiz-adv-x="431" 
d="M332.5 718c30.333 -31.333 45.501 -70.833 45.501 -118.5s-15 -86.667 -45 -117s-69.333 -45.5 -118 -45.5s-87.834 15.167 -117.501 45.5s-44.5 69.333 -44.5 117s15 87.167 45 118.5s69 47 117 47s87.167 -15.667 117.5 -47zM262.001 601
c0 18.667 -4 33.834 -12 45.501s-19.5 17.5 -34.5 17.5s-26.5 -5.83301 -34.5 -17.5s-12 -26.834 -12 -45.501c0 -42 15.5 -63 46.5 -63s46.5 21 46.5 63z" />
    <glyph glyph-name="guillemotright" unicode="&#xbb;" horiz-adv-x="610" 
d="M379 317c34.667 30 51.9961 49.5 51.9961 58.5s-17.333 28.5 -52 58.5c-12.667 10.667 -21.667 18.667 -27 24c-17.333 17.333 -26 34 -26 50s5.83301 29.833 17.5 41.5s23.5 17.5 35.5 17.5s21.833 -2.16699 29.5 -6.5s13.834 -8.83301 18.501 -13.5
s12.667 -13.5 24 -26.5s21 -23.5 29 -31.5s18.167 -17.667 30.5 -29l27.5 -25.5c6 -5.66699 11.5 -13.667 16.5 -24s7.5 -21.833 7.5 -34.5s-2.5 -24.167 -7.5 -34.5s-10.5 -18.5 -16.5 -24.5s-15.167 -14.667 -27.5 -26s-22.5 -21 -30.5 -29s-17.667 -18.5 -29 -31.5
s-19.333 -21.833 -24 -26.5c-13.333 -13.333 -27.666 -20 -42.999 -20s-28.833 5.83301 -40.5 17.5s-17.5 23.667 -17.5 36s2.83301 23.166 8.5 32.499s11.334 16.833 17.001 22.5s14.834 13.834 27.501 24.501zM119.996 317c34.667 30 51.9961 49.5 51.9961 58.5
s-17.333 28.5 -52 58.5l-28 24c-16.667 17.333 -25 34 -25 50s5.83301 29.833 17.5 41.5s23.5 17.5 35.5 17.5s21.833 -2.16699 29.5 -6.5s13.834 -8.83301 18.501 -13.5s12.667 -13.5 24 -26.5s21 -23.5 29 -31.5s18.167 -17.667 30.5 -29l27.5 -25.5
c6 -5.66699 11.5 -13.667 16.5 -24s7.5 -21.833 7.5 -34.5s-2.5 -24.167 -7.5 -34.5s-10.5 -18.5 -16.5 -24.5s-15.167 -14.667 -27.5 -26s-22.5 -21 -30.5 -29s-17.667 -18.5 -29 -31.5s-19.333 -21.833 -24 -26.5c-13.333 -13.333 -27.666 -20 -42.999 -20
s-28.833 5.83301 -40.5 17.5s-17.5 23.667 -17.5 36s2.83301 23.166 8.5 32.499s11.334 16.833 17.001 22.5s14.834 13.834 27.501 24.501z" />
    <glyph glyph-name="onequarter" unicode="&#xbc;" horiz-adv-x="1020" 
d="M298 544l3.00195 -136.999c0 -23.333 -5.83301 -41.833 -17.5 -55.5s-27.334 -20.5 -47.001 -20.5s-35.334 6.83301 -47.001 20.5s-17.5 32.167 -17.5 55.5c0 7.33301 0.333008 27.666 1 60.999s1 67.333 1 102c-27.333 -33.333 -49.833 -50 -67.5 -50
s-32.167 5 -43.5 15s-17 22.167 -17 36.5s4.33301 27.5 13 39.5s22 27.5 40 46.5s33.333 35.833 46 50.5s21.667 24 27 28c20 16 40.833 24 62.5 24s38.167 -7.66699 49.5 -23s17 -36 17 -62zM593.502 510.001l-55.5 -141.499c-14 -37 -32 -90 -54 -159
s-38.167 -117.833 -48.5 -146.5s-21.166 -48 -32.499 -58s-25.333 -15 -42 -15s-32 5.66699 -46 17s-21 27.666 -21 48.999c0 20 8 50.167 24 90.5l33.5 85l27 69l34 88c11 29 44.833 129.833 101.5 302.5c8.66699 26 18.5 44 29.5 54s25.167 15 42.5 15
s33.166 -5.33301 47.499 -16s21.5 -25 21.5 -43s-4.5 -40 -13.5 -66s-25 -67.667 -48 -125zM912.002 118.002l1.99902 -58.001c0 -46.667 -21 -70 -63 -70s-63 22.333 -63 67c0 1.33301 0.666992 22.333 2 63l-127 -2c-22.667 0 -39.167 5.83301 -49.5 17.5
s-15.5 24.334 -15.5 38.001s7.83301 32 23.5 55s59.834 81.833 132.501 176.5c24 32 51.667 48 83 48c21.333 0 39.5 -8 54.5 -24s22.5 -35.333 22.5 -58l-3 -145c38.667 -4 58 -21.667 58 -53c0 -32.667 -19 -51 -57 -55zM738.001 218.001h58v82
c-22.667 -30.667 -42 -58 -58 -82z" />
    <glyph glyph-name="onehalf" unicode="&#xbd;" horiz-adv-x="991" 
d="M298 544l3.00195 -136.999c0 -23.333 -5.83301 -41.833 -17.5 -55.5s-27.334 -20.5 -47.001 -20.5s-35.334 6.83301 -47.001 20.5s-17.5 32.167 -17.5 55.5c0 7.33301 0.333008 27.666 1 60.999s1 67.333 1 102c-27.333 -33.333 -49.833 -50 -67.5 -50
s-32.167 5 -43.5 15s-17 22.167 -17 36.5s4.33301 27.5 13 39.5s22 27.5 40 46.5s33.333 35.833 46 50.5s21.667 24 27 28c20 16 40.833 24 62.5 24s38.167 -7.66699 49.5 -23s17 -36 17 -62zM593.502 510.001l-55.5 -141.499c-14 -37 -32 -90 -54 -159
s-38.167 -117.833 -48.5 -146.5s-21.166 -48 -32.499 -58s-25.333 -15 -42 -15s-32 5.66699 -46 17s-21 27.666 -21 48.999c0 20 8 50.167 24 90.5l33.5 85l27 69l34 88c11 29 44.833 129.833 101.5 302.5c8.66699 26 18.5 44 29.5 54s25.167 15 42.5 15
s33.166 -5.33301 47.499 -16s21.5 -25 21.5 -43s-4.5 -40 -13.5 -66s-25 -67.667 -48 -125zM776.002 112.002l82.001 3.00098c22.667 0 41.167 -4.83301 55.5 -14.5s21.5 -24.167 21.5 -43.5c0 -39.333 -25.667 -59 -77 -59l-90 3l-86 -3
c-18.667 0 -35.334 5.16699 -50.001 15.5s-22 25.333 -22 45s14.5 46 43.5 79s58.167 64.167 87.5 93.5s44 48.333 44 57c0 19.333 -8.66699 29 -26 29c-12.667 0 -27.167 -6.5 -43.5 -19.5s-31.5 -19.5 -45.5 -19.5s-25.5 5 -34.5 15s-13.5 21.333 -13.5 34
c0 24 14.5 47.167 43.5 69.5s64.667 33.5 107 33.5s76.333 -11.833 102 -35.5s38.5 -50.834 38.5 -81.501c0 -29.333 -11 -58.333 -33 -87c-24 -30.667 -58.667 -68.667 -104 -114z" />
    <glyph glyph-name="threequarters" unicode="&#xbe;" horiz-adv-x="1084" 
d="M659.5 510l-55.5 -141.499c-14 -37 -32 -90 -54 -159s-38.167 -117.833 -48.5 -146.5s-21.166 -48 -32.499 -58s-25.333 -15 -42 -15s-32 5.66699 -46 17s-21 27.666 -21 48.999c0 20 8 50.167 24 90.5l33.5 85l27 69l34 88c11 29 44.833 129.833 101.5 302.5
c8.66699 26 18.5 44 29.5 54s25.167 15 42.5 15s33.166 -5.33301 47.499 -16s21.5 -25 21.5 -43s-4.5 -40 -13.5 -66s-25 -67.667 -48 -125zM978 118.001l1.99902 -58.001c0 -46.667 -21 -70 -63 -70s-63 22.333 -63 67c0 1.33301 0.666992 22.333 2 63l-127 -2
c-22.667 0 -39.167 5.83301 -49.5 17.5s-15.5 24.334 -15.5 38.001s7.83301 32 23.5 55s59.834 81.833 132.501 176.5c24 32 51.667 48 83 48c21.333 0 39.5 -8 54.5 -24s22.5 -35.333 22.5 -58l-3 -145c38.667 -4 58 -21.667 58 -53c0 -32.667 -19 -51 -57 -55z
M803.999 218h58v82c-22.667 -30.667 -42 -58 -58 -82zM211.999 750l75.002 2.99902c11.333 0 22.333 -1.16699 33 -3.5s21.667 -8.66602 33 -18.999s17 -22.833 17 -37.5s-3.33301 -26.5 -10 -35.5s-17 -19.333 -31 -31s-23.667 -20.167 -29 -25.5
c58 -27.333 87 -70.333 87 -129c0 -40 -15.833 -75.5 -47.5 -106.5s-74.167 -46.5 -127.5 -46.5c-40 0 -75.5 10.167 -106.5 30.5s-46.5 40 -46.5 59s5.16699 33.5 15.5 43.5s22.166 15 35.499 15s28.833 -6.33301 46.5 -19s34.5 -19 50.5 -19s28.833 3.83301 38.5 11.5
s14.5 17.5 14.5 29.5c0 28.667 -12.333 47 -37 55c-14.667 -15.333 -30.834 -23 -48.501 -23s-32.667 5.5 -45 16.5s-18.5 23.833 -18.5 38.5c0 22.667 15.667 39.667 47 51c14.667 12 27 24.333 37 37c-36 -2 -55.667 -3 -59 -3c-21.333 0 -38.333 4.5 -51 13.5
s-19 22 -19 39s6.33301 31 19 42s29.667 16.5 51 16.5z" />
    <glyph glyph-name="questiondown" unicode="&#xbf;" horiz-adv-x="539" 
d="M52 113c0 28 9.66797 56.835 29.001 86.502s40.666 54.5 63.999 74.5c62 53.333 93 92.666 93 117.999c0 56 22 84 66 84c20 0 36.5 -7.33301 49.5 -22s19.5 -34.334 19.5 -59.001s-6.16699 -47.834 -18.5 -69.501s-27.166 -41 -44.499 -58l-52 -49.5
c-42.667 -38.667 -64 -73.667 -64 -105c0 -20.667 8.5 -37.5 25.5 -50.5s36.333 -19.5 58 -19.5s40.667 6.5 57 19.5s31.666 26 45.999 39s30.5 19.5 48.5 19.5s32.667 -6.16699 44 -18.5s17 -26.833 17 -43.5c0 -31.333 -21.667 -63.166 -65 -95.499s-91 -48.5 -143 -48.5
c-68 0 -123.333 19 -166 57s-64 85 -64 141zM251.001 554.502c-13.333 15 -20 33.5 -20 55.5s7.66699 41.833 23 59.5s34.5 26.5 57.5 26.5s41 -7.66699 54 -23s19.5 -34 19.5 -56s-7.5 -41.667 -22.5 -59s-34 -26 -57 -26s-41.167 7.5 -54.5 22.5z" />
    <glyph glyph-name="Agrave" unicode="&#xc0;" horiz-adv-x="692" 
d="M454 221c-52 2.66699 -95.001 3.99902 -129.001 3.99902s-64 -0.666992 -90 -2c-8 -20.667 -17.833 -51.5 -29.5 -92.5s-20.5 -70.167 -26.5 -87.5c-12 -35.333 -34 -53 -66 -53c-18.667 0 -33.667 5.66699 -45 17s-17 27.166 -17 47.499s17.333 75.5 52 165.5
c-34.667 8 -52 28 -52 60c0 43.333 31 65 93 65c9.33301 28.667 27.333 80.334 54 155.001s43.834 123.5 51.501 146.5s13.667 39.5 18 49.5s10.166 20.667 17.499 32c14 21.333 35 32 63 32c20.667 0 39 -6.33301 55 -19c10 -8 19 -23.5 27 -46.5l24.5 -72
c8.33301 -25 17.333 -50.667 27 -77l40 -114.5c17 -50 26.833 -78.667 29.5 -86c3.33301 0.666992 9.33301 1 18 1c22.667 0 41.334 -6.5 56.001 -19.5s22 -28.833 22 -47.5c0 -30.667 -18.667 -51 -56 -61c37.333 -96.667 56 -152.667 56 -168
s-6.16699 -29.166 -18.5 -41.499s-28.5 -18.5 -48.5 -18.5c-30 0 -52 16.667 -66 50c-3.33301 8 -23.333 68.333 -60 181zM270.999 337.999c16.667 -1.33301 41.3311 -2 73.998 -2s57.334 0.666992 74.001 2c-43.333 157.333 -67.666 236 -72.999 236
c-4.66699 0 -24 -59 -58 -177zM235.996 926.999c0 17.333 5.33008 33.165 15.9971 47.498s23.834 21.5 39.501 21.5s27.5 -1.5 35.5 -4.5s14.833 -7.83301 20.5 -14.5s10 -12.5 13 -17.5s6.83301 -13 11.5 -24s7.83398 -18 9.50098 -21s9.33398 -14.667 23.001 -35
s20.5 -36.166 20.5 -47.499s-4.33301 -21.166 -13 -29.499s-20.667 -12.5 -36 -12.5c-24 0 -53.333 14.667 -88 44s-52 60.333 -52 93z" />
    <glyph glyph-name="Aacute" unicode="&#xc1;" horiz-adv-x="692" 
d="M454 221c-52 2.66699 -95.001 3.99902 -129.001 3.99902s-64 -0.666992 -90 -2c-8 -20.667 -17.833 -51.5 -29.5 -92.5s-20.5 -70.167 -26.5 -87.5c-12 -35.333 -34 -53 -66 -53c-18.667 0 -33.667 5.66699 -45 17s-17 27.166 -17 47.499s17.333 75.5 52 165.5
c-34.667 8 -52 28 -52 60c0 43.333 31 65 93 65c9.33301 28.667 27.333 80.334 54 155.001s43.834 123.5 51.501 146.5s13.667 39.5 18 49.5s10.166 20.667 17.499 32c14 21.333 35 32 63 32c20.667 0 39 -6.33301 55 -19c10 -8 19 -23.5 27 -46.5l24.5 -72
c8.33301 -25 17.333 -50.667 27 -77l40 -114.5c17 -50 26.833 -78.667 29.5 -86c3.33301 0.666992 9.33301 1 18 1c22.667 0 41.334 -6.5 56.001 -19.5s22 -28.833 22 -47.5c0 -30.667 -18.667 -51 -56 -61c37.333 -96.667 56 -152.667 56 -168
s-6.16699 -29.166 -18.5 -41.499s-28.5 -18.5 -48.5 -18.5c-30 0 -52 16.667 -66 50c-3.33301 8 -23.333 68.333 -60 181zM270.999 337.999c16.667 -1.33301 41.3311 -2 73.998 -2s57.334 0.666992 74.001 2c-43.333 157.333 -67.666 236 -72.999 236
c-4.66699 0 -24 -59 -58 -177zM464.996 926.999c0 -32.667 -17.335 -63.666 -52.002 -92.999s-64 -44 -88 -44c-15.333 0 -27.333 4.16699 -36 12.5s-13 18.166 -13 29.499s6.83301 27.166 20.5 47.499s21.334 32 23.001 35s4.83398 10 9.50098 21s8.5 19 11.5 24
s7.5 10.833 13.5 17.5c10.667 12.667 26.5 19 47.5 19s36.833 -7.16699 47.5 -21.5s16 -30.166 16 -47.499z" />
    <glyph glyph-name="Acircumflex" unicode="&#xc2;" horiz-adv-x="692" 
d="M454 221c-52 2.66699 -95.001 3.99902 -129.001 3.99902s-64 -0.666992 -90 -2c-8 -20.667 -17.833 -51.5 -29.5 -92.5s-20.5 -70.167 -26.5 -87.5c-12 -35.333 -34 -53 -66 -53c-18.667 0 -33.667 5.66699 -45 17s-17 27.166 -17 47.499s17.333 75.5 52 165.5
c-34.667 8 -52 28 -52 60c0 43.333 31 65 93 65c9.33301 28.667 27.333 80.334 54 155.001s43.834 123.5 51.501 146.5s13.667 39.5 18 49.5s10.166 20.667 17.499 32c14 21.333 35 32 63 32c20.667 0 39 -6.33301 55 -19c10 -8 19 -23.5 27 -46.5l24.5 -72
c8.33301 -25 17.333 -50.667 27 -77l40 -114.5c17 -50 26.833 -78.667 29.5 -86c3.33301 0.666992 9.33301 1 18 1c22.667 0 41.334 -6.5 56.001 -19.5s22 -28.833 22 -47.5c0 -30.667 -18.667 -51 -56 -61c37.333 -96.667 56 -152.667 56 -168
s-6.16699 -29.166 -18.5 -41.499s-28.5 -18.5 -48.5 -18.5c-30 0 -52 16.667 -66 50c-3.33301 8 -23.333 68.333 -60 181zM270.999 337.999c16.667 -1.33301 41.3311 -2 73.998 -2s57.334 0.666992 74.001 2c-43.333 157.333 -67.666 236 -72.999 236
c-4.66699 0 -24 -59 -58 -177zM312.496 1012.5c10.333 5 22.665 7.50195 36.998 7.50195s26.5 -3 36.5 -9s22.833 -18 38.5 -36s27 -30.5 34 -37.5s16.333 -15.833 28 -26.5s19.5 -18 23.5 -22c11.333 -11.333 17 -24.333 17 -39s-5.83301 -27.834 -17.5 -39.501
s-25.667 -17.5 -42 -17.5s-33.166 8 -50.499 24s-32.166 32 -44.499 48s-21.166 24 -26.499 24s-14 -7.66699 -26 -23c-38 -48 -70.333 -72 -97 -72c-15.333 0 -28.833 5.83301 -40.5 17.5s-17.5 23.167 -17.5 34.5s1.83301 20.5 5.5 27.5s7.5 12.5 11.5 16.5
s11.833 11.333 23.5 22s21.167 19.667 28.5 27s16.666 17.166 27.999 29.499s20 21.5 26 27.5s14.167 11.5 24.5 16.5z" />
    <glyph glyph-name="Atilde" unicode="&#xc3;" horiz-adv-x="692" 
d="M454 221c-52 2.66699 -95.001 3.99902 -129.001 3.99902s-64 -0.666992 -90 -2c-8 -20.667 -17.833 -51.5 -29.5 -92.5s-20.5 -70.167 -26.5 -87.5c-12 -35.333 -34 -53 -66 -53c-18.667 0 -33.667 5.66699 -45 17s-17 27.166 -17 47.499s17.333 75.5 52 165.5
c-34.667 8 -52 28 -52 60c0 43.333 31 65 93 65c9.33301 28.667 27.333 80.334 54 155.001s43.834 123.5 51.501 146.5s13.667 39.5 18 49.5s10.166 20.667 17.499 32c14 21.333 35 32 63 32c20.667 0 39 -6.33301 55 -19c10 -8 19 -23.5 27 -46.5l24.5 -72
c8.33301 -25 17.333 -50.667 27 -77l40 -114.5c17 -50 26.833 -78.667 29.5 -86c3.33301 0.666992 9.33301 1 18 1c22.667 0 41.334 -6.5 56.001 -19.5s22 -28.833 22 -47.5c0 -30.667 -18.667 -51 -56 -61c37.333 -96.667 56 -152.667 56 -168
s-6.16699 -29.166 -18.5 -41.499s-28.5 -18.5 -48.5 -18.5c-30 0 -52 16.667 -66 50c-3.33301 8 -23.333 68.333 -60 181zM270.999 337.999c16.667 -1.33301 41.3311 -2 73.998 -2s57.334 0.666992 74.001 2c-43.333 157.333 -67.666 236 -72.999 236
c-4.66699 0 -24 -59 -58 -177zM566.996 918.999c0 -22.667 -13.834 -46.167 -41.501 -70.5s-54.167 -36.5 -79.5 -36.5s-54.833 8.16699 -88.5 24.5s-55.667 24.5 -66 24.5s-25.666 -9.16699 -45.999 -27.5s-39.5 -27.5 -57.5 -27.5s-33 6.16699 -45 18.5s-18 27.5 -18 45.5
c0 26 14.333 50 43 72s64 33 106 33c21.333 0 50 -8 86 -24s61.333 -24 76 -24s30 7.33301 46 22s30.167 22 42.5 22s22.5 -5 30.5 -15s12 -22.333 12 -37z" />
    <glyph glyph-name="Adieresis" unicode="&#xc4;" horiz-adv-x="692" 
d="M454 221c-52 2.66699 -95.001 3.99902 -129.001 3.99902s-64 -0.666992 -90 -2c-8 -20.667 -17.833 -51.5 -29.5 -92.5s-20.5 -70.167 -26.5 -87.5c-12 -35.333 -34 -53 -66 -53c-18.667 0 -33.667 5.66699 -45 17s-17 27.166 -17 47.499s17.333 75.5 52 165.5
c-34.667 8 -52 28 -52 60c0 43.333 31 65 93 65c9.33301 28.667 27.333 80.334 54 155.001s43.834 123.5 51.501 146.5s13.667 39.5 18 49.5s10.166 20.667 17.499 32c14 21.333 35 32 63 32c20.667 0 39 -6.33301 55 -19c10 -8 19 -23.5 27 -46.5l24.5 -72
c8.33301 -25 17.333 -50.667 27 -77l40 -114.5c17 -50 26.833 -78.667 29.5 -86c3.33301 0.666992 9.33301 1 18 1c22.667 0 41.334 -6.5 56.001 -19.5s22 -28.833 22 -47.5c0 -30.667 -18.667 -51 -56 -61c37.333 -96.667 56 -152.667 56 -168
s-6.16699 -29.166 -18.5 -41.499s-28.5 -18.5 -48.5 -18.5c-30 0 -52 16.667 -66 50c-3.33301 8 -23.333 68.333 -60 181zM270.999 337.999c16.667 -1.33301 41.3311 -2 73.998 -2s57.334 0.666992 74.001 2c-43.333 157.333 -67.666 236 -72.999 236
c-4.66699 0 -24 -59 -58 -177zM521.996 946.499c13.333 -15 20 -33.5 20 -55.5s-7.66699 -41.833 -23 -59.5s-34.5 -26.5 -57.5 -26.5s-41 7.66699 -54 23s-19.5 34 -19.5 56s7.5 41.667 22.5 59s34 26 57 26s41.167 -7.5 54.5 -22.5zM283.996 946.499
c13.333 -15 20 -33.5 20 -55.5s-7.66699 -41.833 -23 -59.5s-34.5 -26.5 -57.5 -26.5s-41 7.66699 -54 23s-19.5 34 -19.5 56s7.5 41.667 22.5 59s34 26 57 26s41.167 -7.5 54.5 -22.5z" />
    <glyph glyph-name="Aring" unicode="&#xc5;" horiz-adv-x="692" 
d="M454 221c-52 2.66699 -95.001 3.99902 -129.001 3.99902s-64 -0.666992 -90 -2c-8 -20.667 -17.833 -51.5 -29.5 -92.5s-20.5 -70.167 -26.5 -87.5c-12 -35.333 -34 -53 -66 -53c-18.667 0 -33.667 5.66699 -45 17s-17 27.166 -17 47.499s17.333 75.5 52 165.5
c-34.667 8 -52 28 -52 60c0 43.333 31 65 93 65c9.33301 28.667 27.333 80.334 54 155.001s43.834 123.5 51.501 146.5s13.667 39.5 18 49.5s10.166 20.667 17.499 32c14 21.333 35 32 63 32c20.667 0 39 -6.33301 55 -19c10 -8 19 -23.5 27 -46.5l24.5 -72
c8.33301 -25 17.333 -50.667 27 -77l40 -114.5c17 -50 26.833 -78.667 29.5 -86c3.33301 0.666992 9.33301 1 18 1c22.667 0 41.334 -6.5 56.001 -19.5s22 -28.833 22 -47.5c0 -30.667 -18.667 -51 -56 -61c37.333 -96.667 56 -152.667 56 -168
s-6.16699 -29.166 -18.5 -41.499s-28.5 -18.5 -48.5 -18.5c-30 0 -52 16.667 -66 50c-3.33301 8 -23.333 68.333 -60 181zM270.999 337.999c16.667 -1.33301 41.3311 -2 73.998 -2s57.334 0.666992 74.001 2c-43.333 157.333 -67.666 236 -72.999 236
c-4.66699 0 -24 -59 -58 -177zM422.496 986.499c20.333 -19.667 30.5 -43.667 30.5 -72s-9.83301 -52 -29.5 -71s-45.5 -28.5 -77.5 -28.5s-57.833 9.5 -77.5 28.5s-29.5 42.667 -29.5 71s10.167 52.333 30.5 72s45.833 29.5 76.5 29.5s56.167 -9.83301 76.5 -29.5z
M376.996 913.999c0 8 -2.83301 15 -8.5 21s-13.167 9 -22.5 9s-17 -3 -23 -9s-9 -13 -9 -21s3 -15 9 -21s13.667 -9 23 -9s16.833 3 22.5 9s8.5 13 8.5 21z" />
    <glyph glyph-name="AE" unicode="&#xc6;" horiz-adv-x="867" 
d="M365 338l-36 216c-4.66699 0 -21.667 -54 -51 -162l-14 -54c20 -1.33301 38.667 -2 56 -2s32.333 0.666992 45 2zM611 122l156.998 6.00098c25.333 0 45.5 -5.83301 60.5 -17.5s22.5 -27.834 22.5 -48.501s-7.5 -37.167 -22.5 -49.5s-35.167 -18.5 -60.5 -18.5l-157 6
l-123 -5c-50.667 0 -80 21.333 -88 64c-14 80.667 -23.333 136 -28 166h-72c-45.333 -1.33301 -69.333 -2 -72 -2c-8 -20.667 -17.833 -51.5 -29.5 -92.5s-20.5 -70.167 -26.5 -87.5c-12 -35.333 -34 -53 -66 -53c-18.667 0 -33.667 5.66699 -45 17s-17 27.166 -17 47.499
s17.333 75.5 52 165.5c-34.667 8 -52 28 -52 60c0 43.333 31 65 93 65c9.33301 28.667 27.333 80.334 54 155.001s44.667 126.334 54 155.001c22 66.667 52.667 100 92 100l200 -5l167 6c25.333 0 45.5 -6.16699 60.5 -18.5s22.5 -28.833 22.5 -49.5
s-7.5 -36.834 -22.5 -48.501s-35.167 -17.5 -60.5 -17.5l-157 6c-36 0 -72 -1.33301 -108 -4c8.66699 -39.333 18.667 -93 30 -161l187 6c24 0 43.667 -6.16699 59 -18.5s23 -28.666 23 -48.999s-7.66699 -36.333 -23 -48s-33.333 -17.5 -54 -17.5
s-49.167 0.833008 -85.5 2.5s-64.166 2.5 -83.499 2.5c22.667 -126.667 36.334 -199.334 41.001 -218.001c18 -0.666992 44 -1 78 -1z" />
    <glyph glyph-name="Ccedilla" unicode="&#xc7;" horiz-adv-x="704" 
d="M659 121c0 -27.333 -20.5029 -54.833 -61.5029 -82.5s-92.167 -44.5 -153.5 -50.5c3.33301 -10 14.5 -27.333 33.5 -52s28.5 -48.667 28.5 -72s-12.167 -44.833 -36.5 -64.5s-54 -29.5 -89 -29.5s-65 10 -90 30s-37.5 39.667 -37.5 59c0 11.333 3.5 20.833 10.5 28.5
s16.333 11.5 28 11.5s24.834 -4.16699 39.501 -12.5s26.334 -12.5 35.001 -12.5c15.333 0 23 6.33301 23 19c0 4 -9 17 -27 39s-28 42 -30 60c-79.333 17.333 -144 61.833 -194 133.5s-75 155.167 -75 250.5c0 108.667 32.167 200.667 96.5 276s144.833 113 241.5 113
c61.333 0 116.5 -12.667 165.5 -38s73.5 -54 73.5 -86c0 -19.333 -6.33301 -34.833 -19 -46.5s-28.5 -17.5 -47.5 -17.5s-45.667 10.167 -80 30.5s-65.166 30.5 -92.499 30.5c-56.667 0 -103.5 -25.833 -140.5 -77.5s-55.5 -113 -55.5 -184s18.333 -133 55 -186
s83.334 -79.5 140.001 -79.5c26 0 49.5 3.33301 70.5 10s37.167 13.667 48.5 21c31.333 21.333 57.666 32 78.999 32s36.833 -5 46.5 -15s14.5 -22.667 14.5 -38z" />
    <glyph glyph-name="Egrave" unicode="&#xc8;" horiz-adv-x="629" 
d="M346 0l-152 -5.99805c-24.667 0 -45.167 8 -61.5 24s-24.5 37.333 -24.5 64l6 251c-41.333 6 -62 27.667 -62 65c0 18 5.66699 32.667 17 44s26 18.666 44 21.999l-5 183c-7.33301 14 -11 30.333 -11 49c0 40 31.667 60 95 60l152 -6l157 6
c25.333 0 45.5 -6.16699 60.5 -18.5s22.5 -28.833 22.5 -49.5s-7.5 -36.834 -22.5 -48.501s-35.167 -17.5 -60.5 -17.5l-157 6c-36 0 -67.333 -1 -94 -3v-166c10.667 -0.666992 25 -1 43 -1l161 7c24 0 43.667 -6.16699 59 -18.5s23 -28.666 23 -48.999
s-7.66699 -36.333 -23 -48s-35 -17.5 -59 -17.5l-158 6h-14c-9.33301 -0.666992 -20 -1 -32 -1c0 -92.667 0.666992 -163.667 2 -213c18 -1.33301 49.333 -2 94 -2l157 6c25.333 0 45.5 -5.83301 60.5 -17.5s22.5 -27.834 22.5 -48.501s-7.5 -37.167 -22.5 -49.5
s-35.167 -18.5 -60.5 -18.5zM219 927.002c0 17.333 5.33008 33.165 15.9971 47.498s23.834 21.5 39.501 21.5s27.5 -1.5 35.5 -4.5s14.833 -7.83301 20.5 -14.5s10 -12.5 13 -17.5s6.83301 -13 11.5 -24s7.83398 -18 9.50098 -21s9.33398 -14.667 23.001 -35
s20.5 -36.166 20.5 -47.499s-4.33301 -21.166 -13 -29.499s-20.667 -12.5 -36 -12.5c-24 0 -53.333 14.667 -88 44s-52 60.333 -52 93z" />
    <glyph glyph-name="Eacute" unicode="&#xc9;" horiz-adv-x="629" 
d="M346 0l-152 -5.99805c-24.667 0 -45.167 8 -61.5 24s-24.5 37.333 -24.5 64l6 251c-41.333 6 -62 27.667 -62 65c0 18 5.66699 32.667 17 44s26 18.666 44 21.999l-5 183c-7.33301 14 -11 30.333 -11 49c0 40 31.667 60 95 60l152 -6l157 6
c25.333 0 45.5 -6.16699 60.5 -18.5s22.5 -28.833 22.5 -49.5s-7.5 -36.834 -22.5 -48.501s-35.167 -17.5 -60.5 -17.5l-157 6c-36 0 -67.333 -1 -94 -3v-166c10.667 -0.666992 25 -1 43 -1l161 7c24 0 43.667 -6.16699 59 -18.5s23 -28.666 23 -48.999
s-7.66699 -36.333 -23 -48s-35 -17.5 -59 -17.5l-158 6h-14c-9.33301 -0.666992 -20 -1 -32 -1c0 -92.667 0.666992 -163.667 2 -213c18 -1.33301 49.333 -2 94 -2l157 6c25.333 0 45.5 -5.83301 60.5 -17.5s22.5 -27.834 22.5 -48.501s-7.5 -37.167 -22.5 -49.5
s-35.167 -18.5 -60.5 -18.5zM458 927.002c0 -32.667 -17.335 -63.666 -52.002 -92.999s-64 -44 -88 -44c-15.333 0 -27.333 4.16699 -36 12.5s-13 18.166 -13 29.499s6.83301 27.166 20.5 47.499s21.334 32 23.001 35s4.83398 10 9.50098 21s8.5 19 11.5 24
s7.16699 10.833 12.5 17.5c11.333 12.667 27.5 19 48.5 19s36.833 -7.16699 47.5 -21.5s16 -30.166 16 -47.499z" />
    <glyph glyph-name="Ecircumflex" unicode="&#xca;" horiz-adv-x="629" 
d="M346 0l-152 -5.99805c-24.667 0 -45.167 8 -61.5 24s-24.5 37.333 -24.5 64l6 251c-41.333 6 -62 27.667 -62 65c0 18 5.66699 32.667 17 44s26 18.666 44 21.999l-5 183c-7.33301 14 -11 30.333 -11 49c0 40 31.667 60 95 60l152 -6l157 6
c25.333 0 45.5 -6.16699 60.5 -18.5s22.5 -28.833 22.5 -49.5s-7.5 -36.834 -22.5 -48.501s-35.167 -17.5 -60.5 -17.5l-157 6c-36 0 -67.333 -1 -94 -3v-166c10.667 -0.666992 25 -1 43 -1l161 7c24 0 43.667 -6.16699 59 -18.5s23 -28.666 23 -48.999
s-7.66699 -36.333 -23 -48s-35 -17.5 -59 -17.5l-158 6h-14c-9.33301 -0.666992 -20 -1 -32 -1c0 -92.667 0.666992 -163.667 2 -213c18 -1.33301 49.333 -2 94 -2l157 6c25.333 0 45.5 -5.83301 60.5 -17.5s22.5 -27.834 22.5 -48.501s-7.5 -37.167 -22.5 -49.5
s-35.167 -18.5 -60.5 -18.5zM298.5 1012.5c10.333 5 22.665 7.50195 36.998 7.50195s26.5 -3 36.5 -9s22.833 -18 38.5 -36s27 -30.5 34 -37.5s16.333 -15.833 28 -26.5s19.5 -18 23.5 -22c11.333 -11.333 17 -24.333 17 -39s-5.83301 -27.834 -17.5 -39.501
s-25.667 -17.5 -42 -17.5s-33.166 8 -50.499 24s-32.166 32 -44.499 48s-21.166 24 -26.499 24s-14 -7.66699 -26 -23c-38 -48 -70.333 -72 -97 -72c-15.333 0 -28.833 5.83301 -40.5 17.5s-17.5 23.167 -17.5 34.5s1.83301 20.5 5.5 27.5s7.5 12.5 11.5 16.5
s11.833 11.333 23.5 22s21.167 19.667 28.5 27s16.666 17.166 27.999 29.499s20 21.5 26 27.5s14.167 11.5 24.5 16.5z" />
    <glyph glyph-name="Edieresis" unicode="&#xcb;" horiz-adv-x="629" 
d="M346 0l-152 -5.99805c-24.667 0 -45.167 8 -61.5 24s-24.5 37.333 -24.5 64l6 251c-41.333 6 -62 27.667 -62 65c0 18 5.66699 32.667 17 44s26 18.666 44 21.999l-5 183c-7.33301 14 -11 30.333 -11 49c0 40 31.667 60 95 60l152 -6l157 6
c25.333 0 45.5 -6.16699 60.5 -18.5s22.5 -28.833 22.5 -49.5s-7.5 -36.834 -22.5 -48.501s-35.167 -17.5 -60.5 -17.5l-157 6c-36 0 -67.333 -1 -94 -3v-166c10.667 -0.666992 25 -1 43 -1l161 7c24 0 43.667 -6.16699 59 -18.5s23 -28.666 23 -48.999
s-7.66699 -36.333 -23 -48s-35 -17.5 -59 -17.5l-158 6h-14c-9.33301 -0.666992 -20 -1 -32 -1c0 -92.667 0.666992 -163.667 2 -213c18 -1.33301 49.333 -2 94 -2l157 6c25.333 0 45.5 -5.83301 60.5 -17.5s22.5 -27.834 22.5 -48.501s-7.5 -37.167 -22.5 -49.5
s-35.167 -18.5 -60.5 -18.5zM512 949.502c13.333 -15 20 -33.5 20 -55.5s-7.66699 -41.833 -23 -59.5s-34.5 -26.5 -57.5 -26.5s-41 7.66699 -54 23s-19.5 34 -19.5 56s7.5 41.667 22.5 59s34 26 57 26s41.167 -7.5 54.5 -22.5zM274 949.502c13.333 -15 20 -33.5 20 -55.5
s-7.66699 -41.833 -23 -59.5s-34.5 -26.5 -57.5 -26.5s-41 7.66699 -54 23s-19.5 34 -19.5 56s7.5 41.667 22.5 59s34 26 57 26s41.167 -7.5 54.5 -22.5z" />
    <glyph glyph-name="Igrave" unicode="&#xcc;" horiz-adv-x="490" 
d="M125 756l122 -6.00195l122 6c24.667 0 44.5 -6 59.5 -18s22.5 -28.167 22.5 -48.5s-7.5 -36.5 -22.5 -48.5s-34.833 -18 -59.5 -18l-47 3c-4.66699 -98.667 -7 -182.5 -7 -251.5s2.33301 -152.833 7 -251.5c24 2.66699 39.667 4 47 4c24.667 0 44.5 -6 59.5 -18
s22.5 -28.167 22.5 -48.5s-7.5 -36.5 -22.5 -48.5s-34.833 -18 -59.5 -18l-122 6l-122 -7c-25.333 0 -45.5 6 -60.5 18s-22.5 28.333 -22.5 49s7.5 36.834 22.5 48.501s35.167 17.5 60.5 17.5l47 -4c4.66699 98.667 7 182.667 7 252s-2.33301 153.333 -7 252
c-20 -2 -39.167 -3 -57.5 -3s-35 5.83301 -50 17.5s-22.5 27.834 -22.5 48.501s7.5 37 22.5 49s35.167 18 60.5 18zM130 928.998c0 17.333 5.33008 33.165 15.9971 47.498s23.834 21.5 39.501 21.5s27.5 -1.5 35.5 -4.5s14.833 -7.83301 20.5 -14.5s10 -12.5 13 -17.5
s6.83301 -13 11.5 -24s7.83398 -18 9.50098 -21s9.33398 -14.667 23.001 -35s20.5 -36.166 20.5 -47.499s-4.33301 -21.166 -13 -29.499s-20.667 -12.5 -36 -12.5c-24 0 -53.333 14.667 -88 44s-52 60.333 -52 93z" />
    <glyph glyph-name="Iacute" unicode="&#xcd;" horiz-adv-x="490" 
d="M125 756l122 -6.00195l122 6c24.667 0 44.5 -6 59.5 -18s22.5 -28.167 22.5 -48.5s-7.5 -36.5 -22.5 -48.5s-34.833 -18 -59.5 -18l-47 3c-4.66699 -98.667 -7 -182.5 -7 -251.5s2.33301 -152.833 7 -251.5c24 2.66699 39.667 4 47 4c24.667 0 44.5 -6 59.5 -18
s22.5 -28.167 22.5 -48.5s-7.5 -36.5 -22.5 -48.5s-34.833 -18 -59.5 -18l-122 6l-122 -7c-25.333 0 -45.5 6 -60.5 18s-22.5 28.333 -22.5 49s7.5 36.834 22.5 48.501s35.167 17.5 60.5 17.5l47 -4c4.66699 98.667 7 182.667 7 252s-2.33301 153.333 -7 252
c-20 -2 -39.167 -3 -57.5 -3s-35 5.83301 -50 17.5s-22.5 27.834 -22.5 48.501s7.5 37 22.5 49s35.167 18 60.5 18zM369 926.998c0 -32.667 -17.335 -63.666 -52.002 -92.999s-64 -44 -88 -44c-15.333 0 -27.333 4.16699 -36 12.5s-13 18.166 -13 29.499
s6.83301 27.166 20.5 47.499s21.334 32 23.001 35s4.83398 10 9.50098 21s8.5 19 11.5 24s7.5 10.833 13.5 17.5c10.667 12.667 26.5 19 47.5 19s36.833 -7.16699 47.5 -21.5s16 -30.166 16 -47.499z" />
    <glyph glyph-name="Icircumflex" unicode="&#xce;" horiz-adv-x="490" 
d="M125 756l122 -6.00195l122 6c24.667 0 44.5 -6 59.5 -18s22.5 -28.167 22.5 -48.5s-7.5 -36.5 -22.5 -48.5s-34.833 -18 -59.5 -18l-47 3c-4.66699 -98.667 -7 -182.5 -7 -251.5s2.33301 -152.833 7 -251.5c24 2.66699 39.667 4 47 4c24.667 0 44.5 -6 59.5 -18
s22.5 -28.167 22.5 -48.5s-7.5 -36.5 -22.5 -48.5s-34.833 -18 -59.5 -18l-122 6l-122 -7c-25.333 0 -45.5 6 -60.5 18s-22.5 28.333 -22.5 49s7.5 36.834 22.5 48.501s35.167 17.5 60.5 17.5l47 -4c4.66699 98.667 7 182.667 7 252s-2.33301 153.333 -7 252
c-20 -2 -39.167 -3 -57.5 -3s-35 5.83301 -50 17.5s-22.5 27.834 -22.5 48.501s7.5 37 22.5 49s35.167 18 60.5 18zM211.5 1014.5c10.333 5 22.665 7.50195 36.998 7.50195s26.5 -3 36.5 -9s22.833 -18 38.5 -36s27 -30.5 34 -37.5s16.333 -15.833 28 -26.5
s19.5 -18 23.5 -22c11.333 -11.333 17 -24.333 17 -39s-5.83301 -27.834 -17.5 -39.501s-25.667 -17.5 -42 -17.5s-33.166 8 -50.499 24s-32.166 32 -44.499 48s-21.166 24 -26.499 24s-14.333 -7.66699 -27 -23c-37.333 -48 -69.333 -72 -96 -72
c-15.333 0 -28.833 5.83301 -40.5 17.5s-17.5 23.167 -17.5 34.5s1.83301 20.5 5.5 27.5s7.5 12.5 11.5 16.5s11.833 11.333 23.5 22s21.167 19.667 28.5 27s16.666 17.166 27.999 29.499s20 21.5 26 27.5s14.167 11.5 24.5 16.5z" />
    <glyph glyph-name="Idieresis" unicode="&#xcf;" horiz-adv-x="490" 
d="M125 756l122 -6.00195l122 6c24.667 0 44.5 -6 59.5 -18s22.5 -28.167 22.5 -48.5s-7.5 -36.5 -22.5 -48.5s-34.833 -18 -59.5 -18l-47 3c-4.66699 -98.667 -7 -182.5 -7 -251.5s2.33301 -152.833 7 -251.5c24 2.66699 39.667 4 47 4c24.667 0 44.5 -6 59.5 -18
s22.5 -28.167 22.5 -48.5s-7.5 -36.5 -22.5 -48.5s-34.833 -18 -59.5 -18l-122 6l-122 -7c-25.333 0 -45.5 6 -60.5 18s-22.5 28.333 -22.5 49s7.5 36.834 22.5 48.501s35.167 17.5 60.5 17.5l47 -4c4.66699 98.667 7 182.667 7 252s-2.33301 153.333 -7 252
c-20 -2 -39.167 -3 -57.5 -3s-35 5.83301 -50 17.5s-22.5 27.834 -22.5 48.501s7.5 37 22.5 49s35.167 18 60.5 18zM421 943.498c13.333 -15 20 -33.5 20 -55.5s-7.66699 -41.833 -23 -59.5s-34.5 -26.5 -57.5 -26.5s-41 7.66699 -54 23s-19.5 34 -19.5 56
s7.5 41.667 22.5 59s34 26 57 26s41.167 -7.5 54.5 -22.5zM183 943.498c13.333 -15 20 -33.5 20 -55.5s-7.66699 -41.833 -23 -59.5s-34.5 -26.5 -57.5 -26.5s-41 7.66699 -54 23s-19.5 34 -19.5 56s7.5 41.667 22.5 59s34 26 57 26s41.167 -7.5 54.5 -22.5z" />
    <glyph glyph-name="Eth" unicode="&#xd0;" horiz-adv-x="778" 
d="M116 435l-4 167.998c-27.333 8 -41 27 -41 57c0 20 14.5 38.333 43.5 55s62.167 28.834 99.5 36.501s72.666 11.5 105.999 11.5c65.333 0 123.833 -11 175.5 -33s93.167 -51.333 124.5 -88c63.333 -75.333 95 -165.333 95 -270c0 -100.667 -30.667 -188.667 -92 -264
c-30 -37.333 -70.167 -67.166 -120.5 -89.499s-110.166 -33.5 -179.499 -33.5s-129.333 10 -180 30s-76 45 -76 75s15.667 48.667 47 56l2 168h-33c-20.667 0 -38 5.83301 -52 17.5s-21 26.167 -21 43.5s7 31.833 21 43.5s30 17.5 48 17.5s30.333 -0.333008 37 -1z
M253 434.998l43 2c20.667 0 37.834 -6 51.501 -18s20.5 -26.667 20.5 -44s-6.83301 -32 -20.5 -44s-30.334 -18 -50.001 -18s-34.5 0.333008 -44.5 1c0 -92.667 1.33301 -158 4 -196c21.333 -4.66699 45.333 -7 72 -7c54 0 100 13 138 39c71.333 50 107 125.333 107 226
c0 72 -21.833 133.667 -65.5 185s-106.5 77 -188.5 77c-22.667 0 -44 -3 -64 -9c-2 -32 -3 -96.667 -3 -194z" />
    <glyph glyph-name="Ntilde" unicode="&#xd1;" horiz-adv-x="765" 
d="M655 380l3 -299.999c0 -60 -25 -90 -75 -90c-29.333 0 -52.333 13.667 -69 41l-262 439c-1.33301 -16 -2 -42.667 -2 -80l7 -292c0 -72 -25.333 -108 -76 -108s-76 36 -76 108l8 272c0 24.667 -1.33301 69.667 -4 135s-4 120.666 -4 165.999c0 59.333 24.667 89 74 89
c34 0 58.667 -13.333 74 -40l267 -458l-1 118l-8 272c0 72 25.333 108 76 108s76 -36 76 -108zM605 929.001c0 -22.667 -13.834 -46.167 -41.501 -70.5s-54.167 -36.5 -79.5 -36.5s-54.833 8.16699 -88.5 24.5s-55.667 24.5 -66 24.5s-25.666 -9.16699 -45.999 -27.5
s-39.5 -27.5 -57.5 -27.5s-33 6.16699 -45 18.5s-18 27.5 -18 45.5c0 26 14.333 50 43 72s64 33 106 33c21.333 0 50 -8 86 -24s61.333 -24 76 -24s30 7.33301 46 22s30.167 22 42.5 22s22.5 -5 30.5 -15s12 -22.333 12 -37z" />
    <glyph glyph-name="Ograve" unicode="&#xd2;" 
d="M559 191c39.333 53.333 59 115.166 59 185.499s-19.5 131.666 -58.5 183.999s-88.333 78.5 -148 78.5s-109 -26.167 -148 -78.5s-58.5 -113.666 -58.5 -183.999s19.667 -132.166 59 -185.499s88.5 -80 147.5 -80s108.167 26.667 147.5 80zM660.5 651.5
c66.333 -75.667 99.5 -167.667 99.5 -276s-33.333 -200.5 -100 -276.5s-149.5 -114 -248.5 -114s-181.833 38 -248.5 114s-100 168.167 -100 276.5s33.5 200.333 100.5 276s150 113.5 249 113.5s181.667 -37.833 248 -113.5zM297 929
c0 17.333 5.33008 33.165 15.9971 47.498s23.834 21.5 39.501 21.5s27.5 -1.5 35.5 -4.5s14.833 -7.83301 20.5 -14.5s10 -12.5 13 -17.5s6.83301 -13 11.5 -24s7.83398 -18 9.50098 -21s9.33398 -14.667 23.001 -35s20.5 -36.166 20.5 -47.499
s-4.33301 -21.166 -13 -29.499s-20.667 -12.5 -36 -12.5c-24 0 -53.333 14.667 -88 44s-52 60.333 -52 93z" />
    <glyph glyph-name="Oacute" unicode="&#xd3;" 
d="M559 191c39.333 53.333 59 115.166 59 185.499s-19.5 131.666 -58.5 183.999s-88.333 78.5 -148 78.5s-109 -26.167 -148 -78.5s-58.5 -113.666 -58.5 -183.999s19.667 -132.166 59 -185.499s88.5 -80 147.5 -80s108.167 26.667 147.5 80zM660.5 651.5
c66.333 -75.667 99.5 -167.667 99.5 -276s-33.333 -200.5 -100 -276.5s-149.5 -114 -248.5 -114s-181.833 38 -248.5 114s-100 168.167 -100 276.5s33.5 200.333 100.5 276s150 113.5 249 113.5s181.667 -37.833 248 -113.5zM526 929
c0 -32.667 -17.335 -63.666 -52.002 -92.999s-64 -44 -88 -44c-15.333 0 -27.333 4.16699 -36 12.5s-13 18.166 -13 29.499s6.83301 27.166 20.5 47.499s21.334 32 23.001 35s4.83398 10 9.50098 21s8.5 19 11.5 24s7.16699 10.833 12.5 17.5c11.333 12.667 27.5 19 48.5 19
s36.833 -7.16699 47.5 -21.5s16 -30.166 16 -47.499z" />
    <glyph glyph-name="Ocircumflex" unicode="&#xd4;" 
d="M559 191c39.333 53.333 59 115.166 59 185.499s-19.5 131.666 -58.5 183.999s-88.333 78.5 -148 78.5s-109 -26.167 -148 -78.5s-58.5 -113.666 -58.5 -183.999s19.667 -132.166 59 -185.499s88.5 -80 147.5 -80s108.167 26.667 147.5 80zM660.5 651.5
c66.333 -75.667 99.5 -167.667 99.5 -276s-33.333 -200.5 -100 -276.5s-149.5 -114 -248.5 -114s-181.833 38 -248.5 114s-100 168.167 -100 276.5s33.5 200.333 100.5 276s150 113.5 249 113.5s181.667 -37.833 248 -113.5zM377.5 1004.5
c10.333 5 22.665 7.50195 36.998 7.50195s26.5 -3 36.5 -9s22.833 -18 38.5 -36s27 -30.5 34 -37.5s16.333 -15.833 28 -26.5s19.5 -18 23.5 -22c11.333 -11.333 17 -24.333 17 -39s-5.83301 -27.834 -17.5 -39.501s-25.667 -17.5 -42 -17.5s-33.166 8 -50.499 24
s-32.166 32 -44.499 48s-21.166 24 -26.499 24s-14.333 -7.66699 -27 -23c-37.333 -48 -69.333 -72 -96 -72c-15.333 0 -28.833 5.83301 -40.5 17.5s-17.5 23.167 -17.5 34.5s1.83301 20.5 5.5 27.5s7.5 12.5 11.5 16.5s11.833 11.333 23.5 22s21.167 19.667 28.5 27
s16.666 17.166 27.999 29.499s20 21.5 26 27.5s14.167 11.5 24.5 16.5z" />
    <glyph glyph-name="Otilde" unicode="&#xd5;" 
d="M559 191c39.333 53.333 59 115.166 59 185.499s-19.5 131.666 -58.5 183.999s-88.333 78.5 -148 78.5s-109 -26.167 -148 -78.5s-58.5 -113.666 -58.5 -183.999s19.667 -132.166 59 -185.499s88.5 -80 147.5 -80s108.167 26.667 147.5 80zM660.5 651.5
c66.333 -75.667 99.5 -167.667 99.5 -276s-33.333 -200.5 -100 -276.5s-149.5 -114 -248.5 -114s-181.833 38 -248.5 114s-100 168.167 -100 276.5s33.5 200.333 100.5 276s150 113.5 249 113.5s181.667 -37.833 248 -113.5zM632 921
c0 -22.667 -13.834 -46.167 -41.501 -70.5s-54.167 -36.5 -79.5 -36.5s-54.833 8.16699 -88.5 24.5s-55.667 24.5 -66 24.5s-25.666 -9.16699 -45.999 -27.5s-39.5 -27.5 -57.5 -27.5s-33 6.16699 -45 18.5s-18 27.5 -18 45.5c0 26 14.333 50 43 72s64 33 106 33
c21.333 0 50 -8 86 -24s61.333 -24 76 -24s30 7.33301 46 22s30.167 22 42.5 22s22.5 -5 30.5 -15s12 -22.333 12 -37z" />
    <glyph glyph-name="Odieresis" unicode="&#xd6;" 
d="M559 191c39.333 53.333 59 115.166 59 185.499s-19.5 131.666 -58.5 183.999s-88.333 78.5 -148 78.5s-109 -26.167 -148 -78.5s-58.5 -113.666 -58.5 -183.999s19.667 -132.166 59 -185.499s88.5 -80 147.5 -80s108.167 26.667 147.5 80zM660.5 651.5
c66.333 -75.667 99.5 -167.667 99.5 -276s-33.333 -200.5 -100 -276.5s-149.5 -114 -248.5 -114s-181.833 38 -248.5 114s-100 168.167 -100 276.5s33.5 200.333 100.5 276s150 113.5 249 113.5s181.667 -37.833 248 -113.5zM587 944.5c13.333 -15 20 -33.5 20 -55.5
s-7.66699 -41.833 -23 -59.5s-34.5 -26.5 -57.5 -26.5s-41 7.66699 -54 23s-19.5 34 -19.5 56s7.5 41.667 22.5 59s34 26 57 26s41.167 -7.5 54.5 -22.5zM349 944.5c13.333 -15 20 -33.5 20 -55.5s-7.66699 -41.833 -23 -59.5s-34.5 -26.5 -57.5 -26.5s-41 7.66699 -54 23
s-19.5 34 -19.5 56s7.5 41.667 22.5 59s34 26 57 26s41.167 -7.5 54.5 -22.5z" />
    <glyph glyph-name="multiply" unicode="&#xd7;" horiz-adv-x="584" 
d="M486 284c15.333 -13.333 23.001 -28.999 23.001 -46.999s-5.83301 -33.333 -17.5 -46s-26.167 -19 -43.5 -19s-40 13 -68 39c-6 5.33301 -17.167 16 -33.5 32s-34.166 32.333 -53.499 49c-20 -16.667 -38.5 -33.334 -55.5 -50.001s-27.833 -27 -32.5 -31
c-28 -26 -50.667 -39 -68 -39s-31.833 6.33301 -43.5 19s-17.5 28 -17.5 46s7.66699 33.667 23 47c10.667 10.667 28.334 25.834 53.001 45.501s43 35.5 55 47.5c-12.667 12.667 -31.334 29 -56.001 49s-43.5 35.833 -56.5 47.5s-19.5 26.5 -19.5 44.5
s5.83301 33.333 17.5 46s26.167 19 43.5 19s40 -13 68 -39c4.66699 -4 15.5 -14.333 32.5 -31s35.5 -33.334 55.5 -50.001c19.333 16.667 37.166 33 53.499 49s27.5 26.667 33.5 32c28 26 50.667 39 68 39s31.833 -6.33301 43.5 -19s17.5 -28 17.5 -46
s-6.5 -32.833 -19.5 -44.5s-31.833 -27.5 -56.5 -47.5s-43.334 -36.333 -56.001 -49c12 -11.333 30.5 -26.833 55.5 -46.5s43.167 -35.167 54.5 -46.5z" />
    <glyph glyph-name="Oslash" unicode="&#xd8;" 
d="M412 765l19.999 -0.999023c14.667 50 39.334 75 74.001 75c20.667 0 37.5 -6.83301 50.5 -20.5s19.5 -28.5 19.5 -44.5s-2 -32.667 -6 -50c58 -32 104.167 -79.167 138.5 -141.5s51.5 -131.5 51.5 -207.5c0 -108 -33.333 -200 -100 -276s-149.667 -114 -249 -114l-22 1
c-14.667 -46.667 -38.667 -70 -72 -70c-20.667 0 -37.5 6.83301 -50.5 20.5s-19.5 31.167 -19.5 52.5c0 9.33301 1.66699 21.666 5 36.999c-58 32.667 -104 80.167 -138 142.5s-51 131.166 -51 206.499c0 108.667 33.5 200.834 100.5 276.501s149.833 113.5 248.5 113.5z
M617.999 375.001c0 42.667 -7.5 82.8311 -22.5 120.498s-35.833 68.834 -62.5 93.501c-36.667 -129.333 -75 -288.666 -115 -477.999c57.333 2 105 29.5 143 82.5s57 113.5 57 181.5zM288.999 161.998c48.667 178 86.999 337 114.999 477
c-58 -2.66699 -105.667 -30 -143 -82s-56 -112.667 -56 -182c0 -41.333 7.33301 -80.833 22 -118.5s35.334 -69.167 62.001 -94.5z" />
    <glyph glyph-name="Ugrave" unicode="&#xd9;" horiz-adv-x="743" 
d="M656 652l-10 -396.001c0 -74.667 -23.833 -138.5 -71.5 -191.5s-115.5 -79.5 -203.5 -79.5s-155.833 26.333 -203.5 79s-71.5 116.334 -71.5 191.001l-10 396c0 72.667 25.333 109 76 109s76 -36.333 76 -109l-7 -321c0 -106 23.333 -173.333 70 -202
c19.333 -11.333 42.833 -17 70.5 -17s51 5.83301 70 17.5s33.167 28.167 42.5 49.5c18 40 27 91 27 153l-7 321c0 72.667 25.333 109 76 109s76 -36.333 76 -109zM245 926.999c0 17.333 5.33008 33.165 15.9971 47.498s23.834 21.5 39.501 21.5s27.5 -1.5 35.5 -4.5
s14.833 -7.83301 20.5 -14.5s10 -12.5 13 -17.5s6.83301 -13 11.5 -24s7.83398 -18 9.50098 -21s9.33398 -14.667 23.001 -35s20.5 -36.166 20.5 -47.499s-4.33301 -21.166 -13 -29.499s-20.667 -12.5 -36 -12.5c-24 0 -53.333 14.667 -88 44s-52 60.333 -52 93z" />
    <glyph glyph-name="Uacute" unicode="&#xda;" horiz-adv-x="743" 
d="M656 652l-10 -396.001c0 -74.667 -23.833 -138.5 -71.5 -191.5s-115.5 -79.5 -203.5 -79.5s-155.833 26.333 -203.5 79s-71.5 116.334 -71.5 191.001l-10 396c0 72.667 25.333 109 76 109s76 -36.333 76 -109l-7 -321c0 -106 23.333 -173.333 70 -202
c19.333 -11.333 42.833 -17 70.5 -17s51 5.83301 70 17.5s33.167 28.167 42.5 49.5c18 40 27 91 27 153l-7 321c0 72.667 25.333 109 76 109s76 -36.333 76 -109zM496 928.999c0 -32.667 -17.335 -63.666 -52.002 -92.999s-64 -44 -88 -44
c-15.333 0 -27.333 4.16699 -36 12.5s-13 18.166 -13 29.499s6.83301 27.166 20.5 47.499s21.334 32 23.001 35s4.83398 10 9.50098 21s8.5 19 11.5 24s7.16699 10.833 12.5 17.5c11.333 12.667 27.5 19 48.5 19s36.833 -7.16699 47.5 -21.5s16 -30.166 16 -47.499z" />
    <glyph glyph-name="Ucircumflex" unicode="&#xdb;" horiz-adv-x="743" 
d="M656 652l-10 -396.001c0 -74.667 -23.833 -138.5 -71.5 -191.5s-115.5 -79.5 -203.5 -79.5s-155.833 26.333 -203.5 79s-71.5 116.334 -71.5 191.001l-10 396c0 72.667 25.333 109 76 109s76 -36.333 76 -109l-7 -321c0 -106 23.333 -173.333 70 -202
c19.333 -11.333 42.833 -17 70.5 -17s51 5.83301 70 17.5s33.167 28.167 42.5 49.5c18 40 27 91 27 153l-7 321c0 72.667 25.333 109 76 109s76 -36.333 76 -109zM340.5 1012.5c10.333 5 22.665 7.50195 36.998 7.50195s26.5 -3 36.5 -9s22.833 -18 38.5 -36
s27 -30.5 34 -37.5s16.333 -15.833 28 -26.5s19.5 -18 23.5 -22c11.333 -11.333 17 -24.333 17 -39s-5.83301 -27.834 -17.5 -39.501s-25.667 -17.5 -42 -17.5s-33.166 8 -50.499 24s-32.166 32 -44.499 48s-21.166 24 -26.499 24s-14 -7.66699 -26 -23
c-38 -48 -70.333 -72 -97 -72c-15.333 0 -28.833 5.83301 -40.5 17.5s-17.5 23.167 -17.5 34.5s1.83301 20.5 5.5 27.5s7.5 12.5 11.5 16.5s11.833 11.333 23.5 22s21.167 19.667 28.5 27s16.666 17.166 27.999 29.499s20 21.5 26 27.5s14.167 11.5 24.5 16.5z" />
    <glyph glyph-name="Udieresis" unicode="&#xdc;" horiz-adv-x="743" 
d="M656 652l-10 -396.001c0 -74.667 -23.833 -138.5 -71.5 -191.5s-115.5 -79.5 -203.5 -79.5s-155.833 26.333 -203.5 79s-71.5 116.334 -71.5 191.001l-10 396c0 72.667 25.333 109 76 109s76 -36.333 76 -109l-7 -321c0 -106 23.333 -173.333 70 -202
c19.333 -11.333 42.833 -17 70.5 -17s51 5.83301 70 17.5s33.167 28.167 42.5 49.5c18 40 27 91 27 153l-7 321c0 72.667 25.333 109 76 109s76 -36.333 76 -109zM546 948.499c13.333 -15 20 -33.5 20 -55.5s-7.66699 -41.833 -23 -59.5s-34.5 -26.5 -57.5 -26.5
s-41 7.66699 -54 23s-19.5 34 -19.5 56s7.5 41.667 22.5 59s34 26 57 26s41.167 -7.5 54.5 -22.5zM308 948.499c13.333 -15 20 -33.5 20 -55.5s-7.66699 -41.833 -23 -59.5s-34.5 -26.5 -57.5 -26.5s-41 7.66699 -54 23s-19.5 34 -19.5 56s7.5 41.667 22.5 59s34 26 57 26
s41.167 -7.5 54.5 -22.5z" />
    <glyph glyph-name="Yacute" unicode="&#xdd;" horiz-adv-x="602" 
d="M223 98c0 32 2.33008 97.0029 6.99707 195.003c-21.333 43.333 -50.666 96.166 -87.999 158.499l-89 153c-22 39.667 -33 69 -33 88s5.83301 35 17.5 48s26.667 19.5 45 19.5s32.5 -3.16699 42.5 -9.5s20.667 -18.666 32 -36.999s22 -37.833 32 -58.5
c40.667 -84.667 78.667 -157 114 -217c38 66.667 69 124.667 93 174s41.5 83.166 52.5 101.499s21.333 30.666 31 36.999s23.334 9.5 41.001 9.5s32.334 -6.83301 44.001 -20.5s17.5 -29.334 17.5 -47.001s-11.333 -46.667 -34 -87s-53 -91.666 -91 -153.999
s-67.667 -115.5 -89 -159.5c4.66699 -88.667 7 -153.334 7 -194.001c0 -72 -25.333 -108 -76 -108s-76 36 -76 108zM423.997 927.003c0 -32.667 -17.335 -63.666 -52.002 -92.999s-64 -44 -88 -44c-15.333 0 -27.333 4.16699 -36 12.5s-13 18.166 -13 29.499
s6.83301 27.166 20.5 47.499s21.334 32 23.001 35s4.83398 10 9.50098 21s8.5 19 11.5 24s7.16699 10.833 12.5 17.5c11.333 12.667 27.5 19 48.5 19s36.833 -7.16699 47.5 -21.5s16 -30.166 16 -47.499z" />
    <glyph glyph-name="Thorn" unicode="&#xde;" horiz-adv-x="622" 
d="M239 499c-0.666992 -18 -1.00195 -46.667 -1.00195 -86s0.333008 -70.333 1 -93c24.667 -5.33301 54.834 -8 90.501 -8s64.5 8.83301 86.5 26.5s33 41.167 33 70.5s-11.167 52.833 -33.5 70.5s-51.166 26.5 -86.499 26.5s-65.333 -2.33301 -90 -7zM100.998 376
l-8.00098 274.001c0 32.667 6.33301 59.167 19 79.5s31.834 30.5 57.501 30.5s44.5 -8.66699 56.5 -26s18 -38.333 18 -63c0 -6.66699 -0.666992 -21.334 -2 -44.001c26.667 4 55.667 6 87 6c77.333 0 140 -21.333 188 -64s72 -96 72 -160s-23.833 -117.333 -71.5 -160
s-110.167 -64 -187.5 -64c-31.333 0 -61 2 -89 6c2 -55.333 3 -94 3 -116s-6.16699 -41.667 -18.5 -59s-30.5 -26 -54.5 -26s-42.667 7.83301 -56 23.5s-20 37.167 -20 64.5z" />
    <glyph glyph-name="germandbls" unicode="&#xdf;" horiz-adv-x="645" 
d="M239 374l8.00098 -272.003c0 -72 -25.333 -108 -76 -108s-76 36 -76 108c0 18.667 1 38.667 3 60c4 56.667 6 135.667 6 237c-54 0 -81 19.5 -81 58.5s26.667 58.5 80 58.5v47c0 67.333 20.5 116.833 61.5 148.5s93.5 47.5 157.5 47.5s114.5 -16.333 151.5 -49
s55.5 -72.667 55.5 -120c0 -22 -5.83301 -43.667 -17.5 -65s-24.334 -39 -38.001 -53s-26.334 -28.667 -38.001 -44s-17.5 -28.666 -17.5 -39.999s6.66699 -23.333 20 -36s29.333 -25.167 48 -37.5s37.5 -26 56.5 -41s35.167 -33.333 48.5 -55s20 -45.167 20 -70.5
c0 -46.667 -16.667 -85.5 -50 -116.5s-77.333 -46.5 -132 -46.5c-35.333 0 -68.166 10.167 -98.499 30.5s-45.5 40.833 -45.5 61.5s5 36.667 15 48s22.833 17 38.5 17s32.5 -6.33301 50.5 -19s32 -19 42 -19s19 4 27 12s12 18.667 12 32s-6.66699 26.333 -20 39
s-29.333 24.834 -48 36.501s-37.5 24.167 -56.5 37.5s-35.167 30.833 -48.5 52.5s-20 44.667 -20 69s9.16699 49 27.5 74l55 72c18.333 23 27.5 42.333 27.5 58s-6.5 28.167 -19.5 37.5s-30 14 -51 14s-38.667 -6.66699 -53 -20s-21.5 -34.666 -21.5 -63.999z" />
    <glyph glyph-name="agrave" unicode="&#xe0;" horiz-adv-x="808" 
d="M666.5 731.5c15.667 -22.333 23.499 -50.334 23.499 -84.001s-9.33301 -127.5 -28 -281.5c0 -36 3.83301 -83.5 11.5 -142.5s17.834 -92.833 30.501 -101.5c12 -8 20.667 -13 26 -15s9 -3.66699 11 -5c3.33301 -3.33301 5 -10 5 -20
c0 -25.333 -8.66699 -47.666 -26 -66.999s-39.833 -29 -67.5 -29s-50.5 11.833 -68.5 35.5s-30.333 53.834 -37 90.501c-62 -84.667 -134.667 -127 -218 -127c-44.667 0 -84.667 11.5 -120 34.5s-63.333 53.167 -84 90.5c-42 76 -63 160.333 -63 253
c0 109.333 29.333 203.666 88 282.999s134.667 119 228 119c54.667 0 106.667 -14.667 156 -44c10 29.333 32.667 44 68 44c27.333 0 48.833 -11.167 64.5 -33.5zM535.999 356.999l-5 220c-47.333 40.667 -98.333 61 -153 61c-46 0 -86.5 -26.167 -121.5 -78.5
s-52.5 -115.5 -52.5 -189.5s11.5 -135.5 34.5 -184.5s55 -73.5 96 -73.5s82.667 27.333 125 82s67.833 109 76.5 163zM260.999 926.999c0 17.333 5.33008 33.165 15.9971 47.498s23.834 21.5 39.501 21.5s27.5 -1.5 35.5 -4.5s14.833 -7.83301 20.5 -14.5s10 -12.5 13 -17.5
s6.83301 -13 11.5 -24s7.83398 -18 9.50098 -21s9.33398 -14.667 23.001 -35s20.5 -36.166 20.5 -47.499s-4.33301 -21.166 -13 -29.499s-20.667 -12.5 -36 -12.5c-24 0 -53.333 14.667 -88 44s-52 60.333 -52 93z" />
    <glyph glyph-name="aacute" unicode="&#xe1;" horiz-adv-x="808" 
d="M666.5 731.5c15.667 -22.333 23.499 -50.334 23.499 -84.001s-9.33301 -127.5 -28 -281.5c0 -36 3.83301 -83.5 11.5 -142.5s17.834 -92.833 30.501 -101.5c12 -8 20.667 -13 26 -15s9 -3.66699 11 -5c3.33301 -3.33301 5 -10 5 -20
c0 -25.333 -8.66699 -47.666 -26 -66.999s-39.833 -29 -67.5 -29s-50.5 11.833 -68.5 35.5s-30.333 53.834 -37 90.501c-62 -84.667 -134.667 -127 -218 -127c-44.667 0 -84.667 11.5 -120 34.5s-63.333 53.167 -84 90.5c-42 76 -63 160.333 -63 253
c0 109.333 29.333 203.666 88 282.999s134.667 119 228 119c54.667 0 106.667 -14.667 156 -44c10 29.333 32.667 44 68 44c27.333 0 48.833 -11.167 64.5 -33.5zM535.999 356.999l-5 220c-47.333 40.667 -98.333 61 -153 61c-46 0 -86.5 -26.167 -121.5 -78.5
s-52.5 -115.5 -52.5 -189.5s11.5 -135.5 34.5 -184.5s55 -73.5 96 -73.5s82.667 27.333 125 82s67.833 109 76.5 163zM530.999 926.999c0 -32.667 -17.335 -63.666 -52.002 -92.999s-64 -44 -88 -44c-15.333 0 -27.333 4.16699 -36 12.5s-13 18.166 -13 29.499
s6.83301 27.166 20.5 47.499s21.334 32 23.001 35s4.83398 10 9.50098 21s8.5 19 11.5 24s7.5 10.833 13.5 17.5c10.667 12.667 26.5 19 47.5 19s36.833 -7.16699 47.5 -21.5s16 -30.166 16 -47.499z" />
    <glyph glyph-name="acircumflex" unicode="&#xe2;" horiz-adv-x="808" 
d="M666.5 731.5c15.667 -22.333 23.499 -50.334 23.499 -84.001s-9.33301 -127.5 -28 -281.5c0 -36 3.83301 -83.5 11.5 -142.5s17.834 -92.833 30.501 -101.5c12 -8 20.667 -13 26 -15s9 -3.66699 11 -5c3.33301 -3.33301 5 -10 5 -20
c0 -25.333 -8.66699 -47.666 -26 -66.999s-39.833 -29 -67.5 -29s-50.5 11.833 -68.5 35.5s-30.333 53.834 -37 90.501c-62 -84.667 -134.667 -127 -218 -127c-44.667 0 -84.667 11.5 -120 34.5s-63.333 53.167 -84 90.5c-42 76 -63 160.333 -63 253
c0 109.333 29.333 203.666 88 282.999s134.667 119 228 119c54.667 0 106.667 -14.667 156 -44c10 29.333 32.667 44 68 44c27.333 0 48.833 -11.167 64.5 -33.5zM535.999 356.999l-5 220c-47.333 40.667 -98.333 61 -153 61c-46 0 -86.5 -26.167 -121.5 -78.5
s-52.5 -115.5 -52.5 -189.5s11.5 -135.5 34.5 -184.5s55 -73.5 96 -73.5s82.667 27.333 125 82s67.833 109 76.5 163zM370.499 1012.5c10.333 5 22.665 7.50195 36.998 7.50195s26.5 -3 36.5 -9s22.833 -18 38.5 -36s27 -30.5 34 -37.5s16.333 -15.833 28 -26.5
s19.5 -18 23.5 -22c11.333 -11.333 17 -24.333 17 -39s-5.83301 -27.834 -17.5 -39.501s-25.667 -17.5 -42 -17.5s-33.166 8 -50.499 24s-32.166 32 -44.499 48s-21.166 24 -26.499 24s-14 -7.66699 -26 -23c-38 -48 -70.333 -72 -97 -72
c-15.333 0 -28.833 5.83301 -40.5 17.5s-17.5 23.167 -17.5 34.5s1.83301 20.5 5.5 27.5s7.5 12.5 11.5 16.5s11.833 11.333 23.5 22s21.167 19.667 28.5 27s16.666 17.166 27.999 29.499s20 21.5 26 27.5s14.167 11.5 24.5 16.5z" />
    <glyph glyph-name="atilde" unicode="&#xe3;" horiz-adv-x="808" 
d="M666.5 731.5c15.667 -22.333 23.499 -50.334 23.499 -84.001s-9.33301 -127.5 -28 -281.5c0 -36 3.83301 -83.5 11.5 -142.5s17.834 -92.833 30.501 -101.5c12 -8 20.667 -13 26 -15s9 -3.66699 11 -5c3.33301 -3.33301 5 -10 5 -20
c0 -25.333 -8.66699 -47.666 -26 -66.999s-39.833 -29 -67.5 -29s-50.5 11.833 -68.5 35.5s-30.333 53.834 -37 90.501c-62 -84.667 -134.667 -127 -218 -127c-44.667 0 -84.667 11.5 -120 34.5s-63.333 53.167 -84 90.5c-42 76 -63 160.333 -63 253
c0 109.333 29.333 203.666 88 282.999s134.667 119 228 119c54.667 0 106.667 -14.667 156 -44c10 29.333 32.667 44 68 44c27.333 0 48.833 -11.167 64.5 -33.5zM535.999 356.999l-5 220c-47.333 40.667 -98.333 61 -153 61c-46 0 -86.5 -26.167 -121.5 -78.5
s-52.5 -115.5 -52.5 -189.5s11.5 -135.5 34.5 -184.5s55 -73.5 96 -73.5s82.667 27.333 125 82s67.833 109 76.5 163zM625.999 918.999c0 -22.667 -13.834 -46.167 -41.501 -70.5s-54.167 -36.5 -79.5 -36.5s-54.833 8.16699 -88.5 24.5s-55.667 24.5 -66 24.5
s-25.666 -9.16699 -45.999 -27.5s-39.5 -27.5 -57.5 -27.5s-33 6.16699 -45 18.5s-18 27.5 -18 45.5c0 26 14.333 50 43 72s64 33 106 33c21.333 0 50 -8 86 -24s61.333 -24 76 -24s30 7.33301 46 22s30.167 22 42.5 22s22.5 -5 30.5 -15s12 -22.333 12 -37z" />
    <glyph glyph-name="adieresis" unicode="&#xe4;" horiz-adv-x="808" 
d="M666.5 731.5c15.667 -22.333 23.499 -50.334 23.499 -84.001s-9.33301 -127.5 -28 -281.5c0 -36 3.83301 -83.5 11.5 -142.5s17.834 -92.833 30.501 -101.5c12 -8 20.667 -13 26 -15s9 -3.66699 11 -5c3.33301 -3.33301 5 -10 5 -20
c0 -25.333 -8.66699 -47.666 -26 -66.999s-39.833 -29 -67.5 -29s-50.5 11.833 -68.5 35.5s-30.333 53.834 -37 90.501c-62 -84.667 -134.667 -127 -218 -127c-44.667 0 -84.667 11.5 -120 34.5s-63.333 53.167 -84 90.5c-42 76 -63 160.333 -63 253
c0 109.333 29.333 203.666 88 282.999s134.667 119 228 119c54.667 0 106.667 -14.667 156 -44c10 29.333 32.667 44 68 44c27.333 0 48.833 -11.167 64.5 -33.5zM535.999 356.999l-5 220c-47.333 40.667 -98.333 61 -153 61c-46 0 -86.5 -26.167 -121.5 -78.5
s-52.5 -115.5 -52.5 -189.5s11.5 -135.5 34.5 -184.5s55 -73.5 96 -73.5s82.667 27.333 125 82s67.833 109 76.5 163zM559.999 948.499c13.333 -15 20 -33.5 20 -55.5s-7.66699 -41.833 -23 -59.5s-34.5 -26.5 -57.5 -26.5s-41 7.66699 -54 23s-19.5 34 -19.5 56
s7.5 41.667 22.5 59s34 26 57 26s41.167 -7.5 54.5 -22.5zM321.999 948.499c13.333 -15 20 -33.5 20 -55.5s-7.66699 -41.833 -23 -59.5s-34.5 -26.5 -57.5 -26.5s-41 7.66699 -54 23s-19.5 34 -19.5 56s7.5 41.667 22.5 59s34 26 57 26s41.167 -7.5 54.5 -22.5z" />
    <glyph glyph-name="aring" unicode="&#xe5;" horiz-adv-x="808" 
d="M666.5 731.5c15.667 -22.333 23.499 -50.334 23.499 -84.001s-9.33301 -127.5 -28 -281.5c0 -36 3.83301 -83.5 11.5 -142.5s17.834 -92.833 30.501 -101.5c12 -8 20.667 -13 26 -15s9 -3.66699 11 -5c3.33301 -3.33301 5 -10 5 -20
c0 -25.333 -8.66699 -47.666 -26 -66.999s-39.833 -29 -67.5 -29s-50.5 11.833 -68.5 35.5s-30.333 53.834 -37 90.501c-62 -84.667 -134.667 -127 -218 -127c-44.667 0 -84.667 11.5 -120 34.5s-63.333 53.167 -84 90.5c-42 76 -63 160.333 -63 253
c0 109.333 29.333 203.666 88 282.999s134.667 119 228 119c54.667 0 106.667 -14.667 156 -44c10 29.333 32.667 44 68 44c27.333 0 48.833 -11.167 64.5 -33.5zM535.999 356.999l-5 220c-47.333 40.667 -98.333 61 -153 61c-46 0 -86.5 -26.167 -121.5 -78.5
s-52.5 -115.5 -52.5 -189.5s11.5 -135.5 34.5 -184.5s55 -73.5 96 -73.5s82.667 27.333 125 82s67.833 109 76.5 163zM462.499 986.499c20.333 -19.667 30.5 -43.667 30.5 -72s-9.83301 -52 -29.5 -71s-45.5 -28.5 -77.5 -28.5s-57.833 9.5 -77.5 28.5
s-29.5 42.667 -29.5 71s10.167 52.333 30.5 72s45.833 29.5 76.5 29.5s56.167 -9.83301 76.5 -29.5zM416.999 913.999c0 8 -2.83301 15 -8.5 21s-13.167 9 -22.5 9s-17 -3 -23 -9s-9 -13 -9 -21s3 -15 9 -21s13.667 -9 23 -9s16.833 3 22.5 9s8.5 13 8.5 21z" />
    <glyph glyph-name="ae" unicode="&#xe6;" horiz-adv-x="1161" 
d="M1097 536c0 -54 -15.002 -99.666 -45.002 -136.999c-55.333 -68 -143 -102 -263 -102c-46.667 0 -93 2.66699 -139 8c10.667 -53.333 32.834 -99.5 66.501 -138.5s67.834 -58.5 102.501 -58.5s64.5 5.33301 89.5 16s46.167 21.167 63.5 31.5s33.333 15.5 48 15.5
s27.334 -5 38.001 -15s16 -22.667 16 -38c0 -26 -24.667 -54.5 -74 -85.5s-105.333 -46.5 -168 -46.5c-110 0 -196 43.333 -258 130c-60.667 -86.667 -147.334 -130 -260.001 -130c-76 0 -140 24.667 -192 74s-78 112.666 -78 189.999c0 64 26.167 118.5 78.5 163.5
s117.833 67.5 196.5 67.5c58.667 0 118.667 -7.66699 180 -23c-4 64.667 -20.5 111 -49.5 139s-64.5 42 -106.5 42c-26 0 -50.5 -6.5 -73.5 -19.5s-44.167 -26 -63.5 -39s-38 -19.5 -56 -19.5s-33.333 5.33301 -46 16s-19 26.334 -19 47.001
c0 31.333 25.667 62.666 77 93.999s114 47 188 47c50.667 0 97.167 -10.5 139.5 -31.5s76.833 -49.833 103.5 -86.5c64 78.667 147.667 118 251 118c71.333 0 131.333 -21.833 180 -65.5s73 -98.167 73 -163.5zM185.998 247.001c0 -38 13.166 -69.667 39.499 -95
s56.833 -38 91.5 -38c46 0 86.833 19 122.5 57s54.834 91 57.501 159c-52.667 15.333 -104.5 23 -155.5 23s-89.667 -10.667 -116 -32s-39.5 -46 -39.5 -74zM650.997 431.001c48.667 -9.33301 95.999 -14 141.999 -14s84.5 10.667 115.5 32s46.5 51.333 46.5 90
c0 24.667 -9.66699 47.5 -29 68.5s-46.666 31.5 -81.999 31.5c-47.333 0 -87.833 -20.5 -121.5 -61.5s-57.5 -89.833 -71.5 -146.5z" />
    <glyph glyph-name="ccedilla" unicode="&#xe7;" horiz-adv-x="704" 
d="M659 121c0 -27.333 -20.5029 -54.833 -61.5029 -82.5s-92.167 -44.5 -153.5 -50.5c3.33301 -10 14.5 -27.333 33.5 -52s28.5 -48.667 28.5 -72s-12.167 -44.833 -36.5 -64.5s-54 -29.5 -89 -29.5s-65 10 -90 30s-37.5 39.667 -37.5 59c0 11.333 3.5 20.833 10.5 28.5
s16.333 11.5 28 11.5s24.834 -4.16699 39.501 -12.5s26.334 -12.5 35.001 -12.5c15.333 0 23 6.33301 23 19c0 4 -9 17 -27 39s-28 42 -30 60c-79.333 17.333 -144 61.833 -194 133.5s-75 155.167 -75 250.5c0 108.667 32.167 200.667 96.5 276s144.833 113 241.5 113
c61.333 0 116.5 -12.667 165.5 -38s73.5 -54 73.5 -86c0 -19.333 -6.33301 -34.833 -19 -46.5s-28.5 -17.5 -47.5 -17.5s-45.667 10.167 -80 30.5s-65.166 30.5 -92.499 30.5c-56.667 0 -103.5 -25.833 -140.5 -77.5s-55.5 -113 -55.5 -184s18.333 -133 55 -186
s83.334 -79.5 140.001 -79.5c26 0 49.5 3.33301 70.5 10s37.167 13.667 48.5 21c31.333 21.333 57.666 32 78.999 32s36.833 -5 46.5 -15s14.5 -22.667 14.5 -38z" />
    <glyph glyph-name="egrave" unicode="&#xe8;" horiz-adv-x="744" 
d="M559 542c0 24 -9.66699 46 -29 66s-47 30 -83 30c-47.333 0 -87.5 -20 -120.5 -60s-56.167 -88 -69.5 -144c40 -9.33301 84.833 -14 134.5 -14s90 10.667 121 32s46.5 51.333 46.5 90zM604 33.5c-49.333 -32.333 -101.999 -48.502 -157.999 -48.502
s-104.167 9.83301 -144.5 29.5s-73.5 46.167 -99.5 79.5c-54.667 68.667 -85.334 149.667 -92.001 243c-45.333 18 -68 45.667 -68 83c0 18.667 6.16699 33.834 18.5 45.501s27.5 17.5 45.5 17.5c5.33301 0 11.333 -1 18 -3c23.333 82.667 63 150.834 119 204.501
s121.5 80.5 196.5 80.5s137.333 -21.5 187 -64.5s74.5 -94.333 74.5 -154s-15 -108.5 -45 -146.5c-56.667 -69.333 -144.334 -104 -263.001 -104c-39.333 0 -85 4.33301 -137 13c10 -56 31 -103 63 -141s68.667 -57 110 -57c46 0 95 15.667 147 47
c17.333 10.667 33.333 16 48 16s27.334 -5 38.001 -15s16 -22.667 16 -38c0 -26 -24.667 -55.167 -74 -87.5zM312.001 926.998c0 17.333 5.33008 33.165 15.9971 47.498s23.834 21.5 39.501 21.5s27.5 -1.5 35.5 -4.5s14.833 -7.83301 20.5 -14.5s10 -12.5 13 -17.5
s6.83301 -13 11.5 -24s7.83398 -18 9.50098 -21s9.33398 -14.667 23.001 -35s20.5 -36.166 20.5 -47.499s-4.33301 -21.166 -13 -29.499s-20.667 -12.5 -36 -12.5c-24 0 -53.333 14.667 -88 44s-52 60.333 -52 93z" />
    <glyph glyph-name="eacute" unicode="&#xe9;" horiz-adv-x="744" 
d="M559 542c0 24 -9.66699 46 -29 66s-47 30 -83 30c-47.333 0 -87.5 -20 -120.5 -60s-56.167 -88 -69.5 -144c40 -9.33301 84.833 -14 134.5 -14s90 10.667 121 32s46.5 51.333 46.5 90zM604 33.5c-49.333 -32.333 -101.999 -48.502 -157.999 -48.502
s-104.167 9.83301 -144.5 29.5s-73.5 46.167 -99.5 79.5c-54.667 68.667 -85.334 149.667 -92.001 243c-45.333 18 -68 45.667 -68 83c0 18.667 6.16699 33.834 18.5 45.501s27.5 17.5 45.5 17.5c5.33301 0 11.333 -1 18 -3c23.333 82.667 63 150.834 119 204.501
s121.5 80.5 196.5 80.5s137.333 -21.5 187 -64.5s74.5 -94.333 74.5 -154s-15 -108.5 -45 -146.5c-56.667 -69.333 -144.334 -104 -263.001 -104c-39.333 0 -85 4.33301 -137 13c10 -56 31 -103 63 -141s68.667 -57 110 -57c46 0 95 15.667 147 47
c17.333 10.667 33.333 16 48 16s27.334 -5 38.001 -15s16 -22.667 16 -38c0 -26 -24.667 -55.167 -74 -87.5zM562.001 926.998c0 -32.667 -17.335 -63.666 -52.002 -92.999s-64 -44 -88 -44c-15.333 0 -27.333 4.16699 -36 12.5s-13 18.166 -13 29.499
s6.83301 27.166 20.5 47.499s21.334 32 23.001 35s4.83398 10 9.50098 21s8.5 19 11.5 24s7.16699 10.833 12.5 17.5c11.333 12.667 27.5 19 48.5 19s36.833 -7.16699 47.5 -21.5s16 -30.166 16 -47.499z" />
    <glyph glyph-name="ecircumflex" unicode="&#xea;" horiz-adv-x="744" 
d="M559 542c0 24 -9.66699 46 -29 66s-47 30 -83 30c-47.333 0 -87.5 -20 -120.5 -60s-56.167 -88 -69.5 -144c40 -9.33301 84.833 -14 134.5 -14s90 10.667 121 32s46.5 51.333 46.5 90zM604 33.5c-49.333 -32.333 -101.999 -48.502 -157.999 -48.502
s-104.167 9.83301 -144.5 29.5s-73.5 46.167 -99.5 79.5c-54.667 68.667 -85.334 149.667 -92.001 243c-45.333 18 -68 45.667 -68 83c0 18.667 6.16699 33.834 18.5 45.501s27.5 17.5 45.5 17.5c5.33301 0 11.333 -1 18 -3c23.333 82.667 63 150.834 119 204.501
s121.5 80.5 196.5 80.5s137.333 -21.5 187 -64.5s74.5 -94.333 74.5 -154s-15 -108.5 -45 -146.5c-56.667 -69.333 -144.334 -104 -263.001 -104c-39.333 0 -85 4.33301 -137 13c10 -56 31 -103 63 -141s68.667 -57 110 -57c46 0 95 15.667 147 47
c17.333 10.667 33.333 16 48 16s27.334 -5 38.001 -15s16 -22.667 16 -38c0 -26 -24.667 -55.167 -74 -87.5zM402.501 1002.5c10.333 5 22.665 7.50195 36.998 7.50195s26.5 -3 36.5 -9s22.833 -18 38.5 -36s27 -30.5 34 -37.5s16.333 -15.833 28 -26.5s19.5 -18 23.5 -22
c11.333 -11.333 17 -24.333 17 -39s-5.83301 -27.834 -17.5 -39.501s-25.667 -17.5 -42 -17.5s-33.166 8 -50.499 24s-32.166 32 -44.499 48s-21.166 24 -26.499 24s-14 -7.66699 -26 -23c-38 -48 -70.333 -72 -97 -72c-15.333 0 -28.833 5.83301 -40.5 17.5
s-17.5 23.167 -17.5 34.5s1.83301 20.5 5.5 27.5s7.5 12.5 11.5 16.5s11.833 11.333 23.5 22s21.167 19.667 28.5 27s16.666 17.166 27.999 29.499s20 21.5 26 27.5s14.167 11.5 24.5 16.5z" />
    <glyph glyph-name="edieresis" unicode="&#xeb;" horiz-adv-x="744" 
d="M559 542c0 24 -9.66699 46 -29 66s-47 30 -83 30c-47.333 0 -87.5 -20 -120.5 -60s-56.167 -88 -69.5 -144c40 -9.33301 84.833 -14 134.5 -14s90 10.667 121 32s46.5 51.333 46.5 90zM604 33.5c-49.333 -32.333 -101.999 -48.502 -157.999 -48.502
s-104.167 9.83301 -144.5 29.5s-73.5 46.167 -99.5 79.5c-54.667 68.667 -85.334 149.667 -92.001 243c-45.333 18 -68 45.667 -68 83c0 18.667 6.16699 33.834 18.5 45.501s27.5 17.5 45.5 17.5c5.33301 0 11.333 -1 18 -3c23.333 82.667 63 150.834 119 204.501
s121.5 80.5 196.5 80.5s137.333 -21.5 187 -64.5s74.5 -94.333 74.5 -154s-15 -108.5 -45 -146.5c-56.667 -69.333 -144.334 -104 -263.001 -104c-39.333 0 -85 4.33301 -137 13c10 -56 31 -103 63 -141s68.667 -57 110 -57c46 0 95 15.667 147 47
c17.333 10.667 33.333 16 48 16s27.334 -5 38.001 -15s16 -22.667 16 -38c0 -26 -24.667 -55.167 -74 -87.5zM618.001 945.498c13.333 -15 20 -33.5 20 -55.5s-7.66699 -41.833 -23 -59.5s-34.5 -26.5 -57.5 -26.5s-41 7.66699 -54 23s-19.5 34 -19.5 56s7.5 41.667 22.5 59
s34 26 57 26s41.167 -7.5 54.5 -22.5zM380.001 945.498c13.333 -15 20 -33.5 20 -55.5s-7.66699 -41.833 -23 -59.5s-34.5 -26.5 -57.5 -26.5s-41 7.66699 -54 23s-19.5 34 -19.5 56s7.5 41.667 22.5 59s34 26 57 26s41.167 -7.5 54.5 -22.5z" />
    <glyph glyph-name="igrave" unicode="&#xec;" horiz-adv-x="490" 
d="M125 756l122 -6.00195l122 6c24.667 0 44.5 -6 59.5 -18s22.5 -28.167 22.5 -48.5s-7.5 -36.5 -22.5 -48.5s-34.833 -18 -59.5 -18l-47 3c-4.66699 -98.667 -7 -182.5 -7 -251.5s2.33301 -152.833 7 -251.5c24 2.66699 39.667 4 47 4c24.667 0 44.5 -6 59.5 -18
s22.5 -28.167 22.5 -48.5s-7.5 -36.5 -22.5 -48.5s-34.833 -18 -59.5 -18l-122 6l-122 -7c-25.333 0 -45.5 6 -60.5 18s-22.5 28.333 -22.5 49s7.5 36.834 22.5 48.501s35.167 17.5 60.5 17.5l47 -4c4.66699 98.667 7 182.667 7 252s-2.33301 153.333 -7 252
c-20 -2 -39.167 -3 -57.5 -3s-35 5.83301 -50 17.5s-22.5 27.834 -22.5 48.501s7.5 37 22.5 49s35.167 18 60.5 18zM130 928.998c0 17.333 5.33008 33.165 15.9971 47.498s23.834 21.5 39.501 21.5s27.5 -1.5 35.5 -4.5s14.833 -7.83301 20.5 -14.5s10 -12.5 13 -17.5
s6.83301 -13 11.5 -24s7.83398 -18 9.50098 -21s9.33398 -14.667 23.001 -35s20.5 -36.166 20.5 -47.499s-4.33301 -21.166 -13 -29.499s-20.667 -12.5 -36 -12.5c-24 0 -53.333 14.667 -88 44s-52 60.333 -52 93z" />
    <glyph glyph-name="iacute" unicode="&#xed;" horiz-adv-x="490" 
d="M125 756l122 -6.00195l122 6c24.667 0 44.5 -6 59.5 -18s22.5 -28.167 22.5 -48.5s-7.5 -36.5 -22.5 -48.5s-34.833 -18 -59.5 -18l-47 3c-4.66699 -98.667 -7 -182.5 -7 -251.5s2.33301 -152.833 7 -251.5c24 2.66699 39.667 4 47 4c24.667 0 44.5 -6 59.5 -18
s22.5 -28.167 22.5 -48.5s-7.5 -36.5 -22.5 -48.5s-34.833 -18 -59.5 -18l-122 6l-122 -7c-25.333 0 -45.5 6 -60.5 18s-22.5 28.333 -22.5 49s7.5 36.834 22.5 48.501s35.167 17.5 60.5 17.5l47 -4c4.66699 98.667 7 182.667 7 252s-2.33301 153.333 -7 252
c-20 -2 -39.167 -3 -57.5 -3s-35 5.83301 -50 17.5s-22.5 27.834 -22.5 48.501s7.5 37 22.5 49s35.167 18 60.5 18zM369 926.998c0 -32.667 -17.335 -63.666 -52.002 -92.999s-64 -44 -88 -44c-15.333 0 -27.333 4.16699 -36 12.5s-13 18.166 -13 29.499
s6.83301 27.166 20.5 47.499s21.334 32 23.001 35s4.83398 10 9.50098 21s8.5 19 11.5 24s7.5 10.833 13.5 17.5c10.667 12.667 26.5 19 47.5 19s36.833 -7.16699 47.5 -21.5s16 -30.166 16 -47.499z" />
    <glyph glyph-name="icircumflex" unicode="&#xee;" horiz-adv-x="490" 
d="M125 756l122 -6.00195l122 6c24.667 0 44.5 -6 59.5 -18s22.5 -28.167 22.5 -48.5s-7.5 -36.5 -22.5 -48.5s-34.833 -18 -59.5 -18l-47 3c-4.66699 -98.667 -7 -182.5 -7 -251.5s2.33301 -152.833 7 -251.5c24 2.66699 39.667 4 47 4c24.667 0 44.5 -6 59.5 -18
s22.5 -28.167 22.5 -48.5s-7.5 -36.5 -22.5 -48.5s-34.833 -18 -59.5 -18l-122 6l-122 -7c-25.333 0 -45.5 6 -60.5 18s-22.5 28.333 -22.5 49s7.5 36.834 22.5 48.501s35.167 17.5 60.5 17.5l47 -4c4.66699 98.667 7 182.667 7 252s-2.33301 153.333 -7 252
c-20 -2 -39.167 -3 -57.5 -3s-35 5.83301 -50 17.5s-22.5 27.834 -22.5 48.501s7.5 37 22.5 49s35.167 18 60.5 18zM211.5 1014.5c10.333 5 22.665 7.50195 36.998 7.50195s26.5 -3 36.5 -9s22.833 -18 38.5 -36s27 -30.5 34 -37.5s16.333 -15.833 28 -26.5
s19.5 -18 23.5 -22c11.333 -11.333 17 -24.333 17 -39s-5.83301 -27.834 -17.5 -39.501s-25.667 -17.5 -42 -17.5s-33.166 8 -50.499 24s-32.166 32 -44.499 48s-21.166 24 -26.499 24s-14.333 -7.66699 -27 -23c-37.333 -48 -69.333 -72 -96 -72
c-15.333 0 -28.833 5.83301 -40.5 17.5s-17.5 23.167 -17.5 34.5s1.83301 20.5 5.5 27.5s7.5 12.5 11.5 16.5s11.833 11.333 23.5 22s21.167 19.667 28.5 27s16.666 17.166 27.999 29.499s20 21.5 26 27.5s14.167 11.5 24.5 16.5z" />
    <glyph glyph-name="idieresis" unicode="&#xef;" horiz-adv-x="490" 
d="M125 756l122 -6.00195l122 6c24.667 0 44.5 -6 59.5 -18s22.5 -28.167 22.5 -48.5s-7.5 -36.5 -22.5 -48.5s-34.833 -18 -59.5 -18l-47 3c-4.66699 -98.667 -7 -182.5 -7 -251.5s2.33301 -152.833 7 -251.5c24 2.66699 39.667 4 47 4c24.667 0 44.5 -6 59.5 -18
s22.5 -28.167 22.5 -48.5s-7.5 -36.5 -22.5 -48.5s-34.833 -18 -59.5 -18l-122 6l-122 -7c-25.333 0 -45.5 6 -60.5 18s-22.5 28.333 -22.5 49s7.5 36.834 22.5 48.501s35.167 17.5 60.5 17.5l47 -4c4.66699 98.667 7 182.667 7 252s-2.33301 153.333 -7 252
c-20 -2 -39.167 -3 -57.5 -3s-35 5.83301 -50 17.5s-22.5 27.834 -22.5 48.501s7.5 37 22.5 49s35.167 18 60.5 18zM421 943.498c13.333 -15 20 -33.5 20 -55.5s-7.66699 -41.833 -23 -59.5s-34.5 -26.5 -57.5 -26.5s-41 7.66699 -54 23s-19.5 34 -19.5 56
s7.5 41.667 22.5 59s34 26 57 26s41.167 -7.5 54.5 -22.5zM183 943.498c13.333 -15 20 -33.5 20 -55.5s-7.66699 -41.833 -23 -59.5s-34.5 -26.5 -57.5 -26.5s-41 7.66699 -54 23s-19.5 34 -19.5 56s7.5 41.667 22.5 59s34 26 57 26s41.167 -7.5 54.5 -22.5z" />
    <glyph glyph-name="eth" unicode="&#xf0;" horiz-adv-x="639" 
d="M528 515c29.333 -69.333 44.001 -146.333 44.001 -231s-23.5 -155.667 -70.5 -213s-110.167 -86 -189.5 -86s-142.333 25.667 -189 77s-70 111.333 -70 180s21.5 129 64.5 181s101.5 78 175.5 78c37.333 0 73.333 -9 108 -27c-24 49.333 -56.667 88 -98 116l-46 -45
c-16.667 -15.333 -33.5 -23 -50.5 -23s-31.167 5.5 -42.5 16.5s-17 25.333 -17 43s8 34.5 24 50.5c-29.333 2 -50.5 9.5 -63.5 22.5s-19.5 28.5 -19.5 46.5s8.33301 33.167 25 45.5s42.167 18.5 76.5 18.5s69.833 -6.33301 106.5 -19c32.667 37.333 60.667 56 84 56
c16.667 0 30.667 -5.5 42 -16.5s17 -25.5 17 -43.5s-10.667 -37.667 -32 -59c51.333 -42.667 91.666 -98.667 120.999 -168zM223.501 336.5c-19.667 -25 -29.499 -56.001 -29.499 -93.001s11 -68.167 33 -93.5s49.5 -38 82.5 -38s60.333 12 82 36s32.5 53.833 32.5 89.5
s-11.167 67.334 -33.5 95.001s-50.833 41.5 -85.5 41.5s-61.834 -12.5 -81.501 -37.5z" />
    <glyph glyph-name="ntilde" unicode="&#xf1;" horiz-adv-x="808" 
d="M540 160l5 267.998c0 61.333 -10 110.666 -30 147.999s-49.333 56 -88 56s-78 -24.167 -118 -72.5s-68 -104.166 -84 -167.499l6 -294c0 -72 -25 -108 -75 -108c-56 0 -84 42.333 -84 127c0 66.667 8.66699 157 26 271c0 31.333 -3.66699 79 -11 143
s-11 110.833 -11 140.5s6.66699 52.334 20 68.001s32 23.5 56 23.5c48.667 0 73 -37.667 73 -113c58 73.333 127.833 110 209.5 110s144.167 -26.167 187.5 -78.5s65 -116.166 65 -191.499l-6 -255c0 -63.333 4 -99 12 -107c4.66699 -4.66699 11.667 -8 21 -10s17 -5 23 -9
s9 -11 9 -21c0 -28 -9.5 -51.667 -28.5 -71s-41.167 -29 -66.5 -29c-42 0 -71 14.5 -87 43.5s-24 71.833 -24 128.5zM618 920.998c0 -22.667 -13.834 -46.167 -41.501 -70.5s-54.167 -36.5 -79.5 -36.5s-54.833 8.16699 -88.5 24.5s-55.667 24.5 -66 24.5
s-25.666 -9.16699 -45.999 -27.5s-39.5 -27.5 -57.5 -27.5s-33 6.16699 -45 18.5s-18 27.5 -18 45.5c0 26 14.333 50 43 72s64 33 106 33c21.333 0 50 -8 86 -24s61.333 -24 76 -24s30 7.33301 46 22s30.167 22 42.5 22s22.5 -5 30.5 -15s12 -22.333 12 -37z" />
    <glyph glyph-name="ograve" unicode="&#xf2;" 
d="M559 191c39.333 53.333 59 115.166 59 185.499s-19.5 131.666 -58.5 183.999s-88.333 78.5 -148 78.5s-109 -26.167 -148 -78.5s-58.5 -113.666 -58.5 -183.999s19.667 -132.166 59 -185.499s88.5 -80 147.5 -80s108.167 26.667 147.5 80zM660.5 651.5
c66.333 -75.667 99.5 -167.667 99.5 -276s-33.333 -200.5 -100 -276.5s-149.5 -114 -248.5 -114s-181.833 38 -248.5 114s-100 168.167 -100 276.5s33.5 200.333 100.5 276s150 113.5 249 113.5s181.667 -37.833 248 -113.5zM297 929
c0 17.333 5.33008 33.165 15.9971 47.498s23.834 21.5 39.501 21.5s27.5 -1.5 35.5 -4.5s14.833 -7.83301 20.5 -14.5s10 -12.5 13 -17.5s6.83301 -13 11.5 -24s7.83398 -18 9.50098 -21s9.33398 -14.667 23.001 -35s20.5 -36.166 20.5 -47.499
s-4.33301 -21.166 -13 -29.499s-20.667 -12.5 -36 -12.5c-24 0 -53.333 14.667 -88 44s-52 60.333 -52 93z" />
    <glyph glyph-name="oacute" unicode="&#xf3;" 
d="M559 191c39.333 53.333 59 115.166 59 185.499s-19.5 131.666 -58.5 183.999s-88.333 78.5 -148 78.5s-109 -26.167 -148 -78.5s-58.5 -113.666 -58.5 -183.999s19.667 -132.166 59 -185.499s88.5 -80 147.5 -80s108.167 26.667 147.5 80zM660.5 651.5
c66.333 -75.667 99.5 -167.667 99.5 -276s-33.333 -200.5 -100 -276.5s-149.5 -114 -248.5 -114s-181.833 38 -248.5 114s-100 168.167 -100 276.5s33.5 200.333 100.5 276s150 113.5 249 113.5s181.667 -37.833 248 -113.5zM526 929
c0 -32.667 -17.335 -63.666 -52.002 -92.999s-64 -44 -88 -44c-15.333 0 -27.333 4.16699 -36 12.5s-13 18.166 -13 29.499s6.83301 27.166 20.5 47.499s21.334 32 23.001 35s4.83398 10 9.50098 21s8.5 19 11.5 24s7.16699 10.833 12.5 17.5c11.333 12.667 27.5 19 48.5 19
s36.833 -7.16699 47.5 -21.5s16 -30.166 16 -47.499z" />
    <glyph glyph-name="ocircumflex" unicode="&#xf4;" 
d="M559 191c39.333 53.333 59 115.166 59 185.499s-19.5 131.666 -58.5 183.999s-88.333 78.5 -148 78.5s-109 -26.167 -148 -78.5s-58.5 -113.666 -58.5 -183.999s19.667 -132.166 59 -185.499s88.5 -80 147.5 -80s108.167 26.667 147.5 80zM660.5 651.5
c66.333 -75.667 99.5 -167.667 99.5 -276s-33.333 -200.5 -100 -276.5s-149.5 -114 -248.5 -114s-181.833 38 -248.5 114s-100 168.167 -100 276.5s33.5 200.333 100.5 276s150 113.5 249 113.5s181.667 -37.833 248 -113.5zM377.5 1004.5
c10.333 5 22.665 7.50195 36.998 7.50195s26.5 -3 36.5 -9s22.833 -18 38.5 -36s27 -30.5 34 -37.5s16.333 -15.833 28 -26.5s19.5 -18 23.5 -22c11.333 -11.333 17 -24.333 17 -39s-5.83301 -27.834 -17.5 -39.501s-25.667 -17.5 -42 -17.5s-33.166 8 -50.499 24
s-32.166 32 -44.499 48s-21.166 24 -26.499 24s-14.333 -7.66699 -27 -23c-37.333 -48 -69.333 -72 -96 -72c-15.333 0 -28.833 5.83301 -40.5 17.5s-17.5 23.167 -17.5 34.5s1.83301 20.5 5.5 27.5s7.5 12.5 11.5 16.5s11.833 11.333 23.5 22s21.167 19.667 28.5 27
s16.666 17.166 27.999 29.499s20 21.5 26 27.5s14.167 11.5 24.5 16.5z" />
    <glyph glyph-name="otilde" unicode="&#xf5;" 
d="M559 191c39.333 53.333 59 115.166 59 185.499s-19.5 131.666 -58.5 183.999s-88.333 78.5 -148 78.5s-109 -26.167 -148 -78.5s-58.5 -113.666 -58.5 -183.999s19.667 -132.166 59 -185.499s88.5 -80 147.5 -80s108.167 26.667 147.5 80zM660.5 651.5
c66.333 -75.667 99.5 -167.667 99.5 -276s-33.333 -200.5 -100 -276.5s-149.5 -114 -248.5 -114s-181.833 38 -248.5 114s-100 168.167 -100 276.5s33.5 200.333 100.5 276s150 113.5 249 113.5s181.667 -37.833 248 -113.5zM632 921
c0 -22.667 -13.834 -46.167 -41.501 -70.5s-54.167 -36.5 -79.5 -36.5s-54.833 8.16699 -88.5 24.5s-55.667 24.5 -66 24.5s-25.666 -9.16699 -45.999 -27.5s-39.5 -27.5 -57.5 -27.5s-33 6.16699 -45 18.5s-18 27.5 -18 45.5c0 26 14.333 50 43 72s64 33 106 33
c21.333 0 50 -8 86 -24s61.333 -24 76 -24s30 7.33301 46 22s30.167 22 42.5 22s22.5 -5 30.5 -15s12 -22.333 12 -37z" />
    <glyph glyph-name="odieresis" unicode="&#xf6;" 
d="M559 191c39.333 53.333 59 115.166 59 185.499s-19.5 131.666 -58.5 183.999s-88.333 78.5 -148 78.5s-109 -26.167 -148 -78.5s-58.5 -113.666 -58.5 -183.999s19.667 -132.166 59 -185.499s88.5 -80 147.5 -80s108.167 26.667 147.5 80zM660.5 651.5
c66.333 -75.667 99.5 -167.667 99.5 -276s-33.333 -200.5 -100 -276.5s-149.5 -114 -248.5 -114s-181.833 38 -248.5 114s-100 168.167 -100 276.5s33.5 200.333 100.5 276s150 113.5 249 113.5s181.667 -37.833 248 -113.5zM587 944.5c13.333 -15 20 -33.5 20 -55.5
s-7.66699 -41.833 -23 -59.5s-34.5 -26.5 -57.5 -26.5s-41 7.66699 -54 23s-19.5 34 -19.5 56s7.5 41.667 22.5 59s34 26 57 26s41.167 -7.5 54.5 -22.5zM349 944.5c13.333 -15 20 -33.5 20 -55.5s-7.66699 -41.833 -23 -59.5s-34.5 -26.5 -57.5 -26.5s-41 7.66699 -54 23
s-19.5 34 -19.5 56s7.5 41.667 22.5 59s34 26 57 26s41.167 -7.5 54.5 -22.5z" />
    <glyph glyph-name="divide" unicode="&#xf7;" horiz-adv-x="630" 
d="M316 433l176 5c20.667 0 37.834 -6 51.501 -18s20.5 -26.667 20.5 -44s-6.83301 -32 -20.5 -44s-30.834 -18 -51.501 -18l-176 5l-177 -4c-20.667 0 -38 5.83301 -52 17.5s-21 26.167 -21 43.5s7 31.833 21 43.5s31.333 17.5 52 17.5zM372 239.5
c13.333 -15 20 -33.5 20 -55.5s-7.66699 -41.833 -23 -59.5s-34.5 -26.5 -57.5 -26.5s-41 7.66699 -54 23s-19.5 34 -19.5 56s7.5 41.667 22.5 59s34 26 57 26s41.167 -7.5 54.5 -22.5zM371 627.5c13.333 -15 20 -33.5 20 -55.5s-7.66699 -41.833 -23 -59.5
s-34.5 -26.5 -57.5 -26.5s-41 7.66699 -54 23s-19.5 34 -19.5 56s7.5 41.667 22.5 59s34 26 57 26s41.167 -7.5 54.5 -22.5z" />
    <glyph glyph-name="oslash" unicode="&#xf8;" 
d="M412 765l19.999 -0.999023c14.667 50 39.334 75 74.001 75c20.667 0 37.5 -6.83301 50.5 -20.5s19.5 -28.5 19.5 -44.5s-2 -32.667 -6 -50c58 -32 104.167 -79.167 138.5 -141.5s51.5 -131.5 51.5 -207.5c0 -108 -33.333 -200 -100 -276s-149.667 -114 -249 -114l-22 1
c-14.667 -46.667 -38.667 -70 -72 -70c-20.667 0 -37.5 6.83301 -50.5 20.5s-19.5 31.167 -19.5 52.5c0 9.33301 1.66699 21.666 5 36.999c-58 32.667 -104 80.167 -138 142.5s-51 131.166 -51 206.499c0 108.667 33.5 200.834 100.5 276.501s149.833 113.5 248.5 113.5z
M617.999 375.001c0 42.667 -7.5 82.8311 -22.5 120.498s-35.833 68.834 -62.5 93.501c-36.667 -129.333 -75 -288.666 -115 -477.999c57.333 2 105 29.5 143 82.5s57 113.5 57 181.5zM288.999 161.998c48.667 178 86.999 337 114.999 477
c-58 -2.66699 -105.667 -30 -143 -82s-56 -112.667 -56 -182c0 -41.333 7.33301 -80.833 22 -118.5s35.334 -69.167 62.001 -94.5z" />
    <glyph glyph-name="ugrave" unicode="&#xf9;" horiz-adv-x="821" 
d="M549 359l-6 293.999c0 72 25 108 75 108c56 0 84 -42.333 84 -127c0 -66.667 -8.66699 -157 -26 -271c0 -36 3.66699 -82.333 11 -139s17.333 -89.334 30 -98.001c12 -8 20.667 -13 26 -15s9 -3.66699 11 -5c3.33301 -3.33301 5 -10 5 -20
c0 -25.333 -8.66699 -47.666 -26 -66.999s-39.833 -29 -67.5 -29s-50.5 11.833 -68.5 35.5s-30.333 53.834 -37 90.501c-21.333 -34.667 -52.333 -64.167 -93 -88.5s-84.667 -36.5 -132 -36.5c-78.667 0 -139.667 26.167 -183 78.5s-65 116.166 -65 191.499l6 255
c0 27.333 -3.5 56.833 -10.5 88.5s-10.5 58.334 -10.5 80.001s7.5 39.667 22.5 54s34.5 21.5 58.5 21.5c55.333 0 83 -42 83 -126l-7 -311c0 -61.333 10 -110.666 30 -147.999s49.333 -56 88 -56s78 24.167 118 72.5s68 104.166 84 167.499zM260 926.999
c0 17.333 5.33008 33.165 15.9971 47.498s23.834 21.5 39.501 21.5s27.5 -1.5 35.5 -4.5s14.833 -7.83301 20.5 -14.5s10 -12.5 13 -17.5s6.83301 -13 11.5 -24s7.83398 -18 9.50098 -21s9.33398 -14.667 23.001 -35s20.5 -36.166 20.5 -47.499
s-4.33301 -21.166 -13 -29.499s-20.667 -12.5 -36 -12.5c-24 0 -53.333 14.667 -88 44s-52 60.333 -52 93z" />
    <glyph glyph-name="uacute" unicode="&#xfa;" horiz-adv-x="821" 
d="M549 359l-6 293.999c0 72 25 108 75 108c56 0 84 -42.333 84 -127c0 -66.667 -8.66699 -157 -26 -271c0 -36 3.66699 -82.333 11 -139s17.333 -89.334 30 -98.001c12 -8 20.667 -13 26 -15s9 -3.66699 11 -5c3.33301 -3.33301 5 -10 5 -20
c0 -25.333 -8.66699 -47.666 -26 -66.999s-39.833 -29 -67.5 -29s-50.5 11.833 -68.5 35.5s-30.333 53.834 -37 90.501c-21.333 -34.667 -52.333 -64.167 -93 -88.5s-84.667 -36.5 -132 -36.5c-78.667 0 -139.667 26.167 -183 78.5s-65 116.166 -65 191.499l6 255
c0 27.333 -3.5 56.833 -10.5 88.5s-10.5 58.334 -10.5 80.001s7.5 39.667 22.5 54s34.5 21.5 58.5 21.5c55.333 0 83 -42 83 -126l-7 -311c0 -61.333 10 -110.666 30 -147.999s49.333 -56 88 -56s78 24.167 118 72.5s68 104.166 84 167.499zM499 926.999
c0 -32.667 -17.335 -63.666 -52.002 -92.999s-64 -44 -88 -44c-15.333 0 -27.333 4.16699 -36 12.5s-13 18.166 -13 29.499s6.83301 27.166 20.5 47.499s21.334 32 23.001 35s4.83398 10 9.50098 21s8.5 19 11.5 24s7.5 10.833 13.5 17.5c10.667 12.667 26.5 19 47.5 19
s36.833 -7.16699 47.5 -21.5s16 -30.166 16 -47.499z" />
    <glyph glyph-name="ucircumflex" unicode="&#xfb;" horiz-adv-x="821" 
d="M549 359l-6 293.999c0 72 25 108 75 108c56 0 84 -42.333 84 -127c0 -66.667 -8.66699 -157 -26 -271c0 -36 3.66699 -82.333 11 -139s17.333 -89.334 30 -98.001c12 -8 20.667 -13 26 -15s9 -3.66699 11 -5c3.33301 -3.33301 5 -10 5 -20
c0 -25.333 -8.66699 -47.666 -26 -66.999s-39.833 -29 -67.5 -29s-50.5 11.833 -68.5 35.5s-30.333 53.834 -37 90.501c-21.333 -34.667 -52.333 -64.167 -93 -88.5s-84.667 -36.5 -132 -36.5c-78.667 0 -139.667 26.167 -183 78.5s-65 116.166 -65 191.499l6 255
c0 27.333 -3.5 56.833 -10.5 88.5s-10.5 58.334 -10.5 80.001s7.5 39.667 22.5 54s34.5 21.5 58.5 21.5c55.333 0 83 -42 83 -126l-7 -311c0 -61.333 10 -110.666 30 -147.999s49.333 -56 88 -56s78 24.167 118 72.5s68 104.166 84 167.499zM346.5 1012.5
c10.333 5 22.665 7.50195 36.998 7.50195s26.5 -3 36.5 -9s22.833 -18 38.5 -36s27 -30.5 34 -37.5s16.333 -15.833 28 -26.5s19.5 -18 23.5 -22c11.333 -11.333 17 -24.333 17 -39s-5.83301 -27.834 -17.5 -39.501s-25.667 -17.5 -42 -17.5s-33.166 8 -50.499 24
s-32.166 32 -44.499 48s-21.166 24 -26.499 24s-14 -7.66699 -26 -23c-38 -48 -70.333 -72 -97 -72c-15.333 0 -28.833 5.83301 -40.5 17.5s-17.5 23.167 -17.5 34.5s1.83301 20.5 5.5 27.5s7.5 12.5 11.5 16.5s11.833 11.333 23.5 22s21.167 19.667 28.5 27
s16.666 17.166 27.999 29.499s20 21.5 26 27.5s14.167 11.5 24.5 16.5z" />
    <glyph glyph-name="udieresis" unicode="&#xfc;" horiz-adv-x="821" 
d="M549 359l-6 293.999c0 72 25 108 75 108c56 0 84 -42.333 84 -127c0 -66.667 -8.66699 -157 -26 -271c0 -36 3.66699 -82.333 11 -139s17.333 -89.334 30 -98.001c12 -8 20.667 -13 26 -15s9 -3.66699 11 -5c3.33301 -3.33301 5 -10 5 -20
c0 -25.333 -8.66699 -47.666 -26 -66.999s-39.833 -29 -67.5 -29s-50.5 11.833 -68.5 35.5s-30.333 53.834 -37 90.501c-21.333 -34.667 -52.333 -64.167 -93 -88.5s-84.667 -36.5 -132 -36.5c-78.667 0 -139.667 26.167 -183 78.5s-65 116.166 -65 191.499l6 255
c0 27.333 -3.5 56.833 -10.5 88.5s-10.5 58.334 -10.5 80.001s7.5 39.667 22.5 54s34.5 21.5 58.5 21.5c55.333 0 83 -42 83 -126l-7 -311c0 -61.333 10 -110.666 30 -147.999s49.333 -56 88 -56s78 24.167 118 72.5s68 104.166 84 167.499zM556 948.499
c13.333 -15 20 -33.5 20 -55.5s-7.66699 -41.833 -23 -59.5s-34.5 -26.5 -57.5 -26.5s-41 7.66699 -54 23s-19.5 34 -19.5 56s7.5 41.667 22.5 59s34 26 57 26s41.167 -7.5 54.5 -22.5zM318 948.499c13.333 -15 20 -33.5 20 -55.5s-7.66699 -41.833 -23 -59.5
s-34.5 -26.5 -57.5 -26.5s-41 7.66699 -54 23s-19.5 34 -19.5 56s7.5 41.667 22.5 59s34 26 57 26s41.167 -7.5 54.5 -22.5z" />
    <glyph glyph-name="yacute" unicode="&#xfd;" horiz-adv-x="602" 
d="M223 98c0 32 2.33008 97.0029 6.99707 195.003c-21.333 43.333 -50.666 96.166 -87.999 158.499l-89 153c-22 39.667 -33 69 -33 88s5.83301 35 17.5 48s26.667 19.5 45 19.5s32.5 -3.16699 42.5 -9.5s20.667 -18.666 32 -36.999s22 -37.833 32 -58.5
c40.667 -84.667 78.667 -157 114 -217c38 66.667 69 124.667 93 174s41.5 83.166 52.5 101.499s21.333 30.666 31 36.999s23.334 9.5 41.001 9.5s32.334 -6.83301 44.001 -20.5s17.5 -29.334 17.5 -47.001s-11.333 -46.667 -34 -87s-53 -91.666 -91 -153.999
s-67.667 -115.5 -89 -159.5c4.66699 -88.667 7 -153.334 7 -194.001c0 -72 -25.333 -108 -76 -108s-76 36 -76 108zM423.997 927.003c0 -32.667 -17.335 -63.666 -52.002 -92.999s-64 -44 -88 -44c-15.333 0 -27.333 4.16699 -36 12.5s-13 18.166 -13 29.499
s6.83301 27.166 20.5 47.499s21.334 32 23.001 35s4.83398 10 9.50098 21s8.5 19 11.5 24s7.16699 10.833 12.5 17.5c11.333 12.667 27.5 19 48.5 19s36.833 -7.16699 47.5 -21.5s16 -30.166 16 -47.499z" />
    <glyph glyph-name="thorn" unicode="&#xfe;" horiz-adv-x="622" 
d="M239 499c-0.666992 -18 -1.00195 -46.667 -1.00195 -86s0.333008 -70.333 1 -93c24.667 -5.33301 54.834 -8 90.501 -8s64.5 8.83301 86.5 26.5s33 41.167 33 70.5s-11.167 52.833 -33.5 70.5s-51.166 26.5 -86.499 26.5s-65.333 -2.33301 -90 -7zM100.998 376
l-8.00098 274.001c0 32.667 6.33301 59.167 19 79.5s31.834 30.5 57.501 30.5s44.5 -8.66699 56.5 -26s18 -38.333 18 -63c0 -6.66699 -0.666992 -21.334 -2 -44.001c26.667 4 55.667 6 87 6c77.333 0 140 -21.333 188 -64s72 -96 72 -160s-23.833 -117.333 -71.5 -160
s-110.167 -64 -187.5 -64c-31.333 0 -61 2 -89 6c2 -55.333 3 -94 3 -116s-6.16699 -41.667 -18.5 -59s-30.5 -26 -54.5 -26s-42.667 7.83301 -56 23.5s-20 37.167 -20 64.5z" />
    <glyph glyph-name="ydieresis" unicode="&#xff;" horiz-adv-x="602" 
d="M223 98c0 32 2.33008 97.0029 6.99707 195.003c-21.333 43.333 -50.666 96.166 -87.999 158.499l-89 153c-22 39.667 -33 69 -33 88s5.83301 35 17.5 48s26.667 19.5 45 19.5s32.5 -3.16699 42.5 -9.5s20.667 -18.666 32 -36.999s22 -37.833 32 -58.5
c40.667 -84.667 78.667 -157 114 -217c38 66.667 69 124.667 93 174s41.5 83.166 52.5 101.499s21.333 30.666 31 36.999s23.334 9.5 41.001 9.5s32.334 -6.83301 44.001 -20.5s17.5 -29.334 17.5 -47.001s-11.333 -46.667 -34 -87s-53 -91.666 -91 -153.999
s-67.667 -115.5 -89 -159.5c4.66699 -88.667 7 -153.334 7 -194.001c0 -72 -25.333 -108 -76 -108s-76 36 -76 108zM476.997 944.503c13.333 -15 20 -33.5 20 -55.5s-7.66699 -41.833 -23 -59.5s-34.5 -26.5 -57.5 -26.5s-41 7.66699 -54 23s-19.5 34 -19.5 56
s7.5 41.667 22.5 59s34 26 57 26s41.167 -7.5 54.5 -22.5zM238.997 944.503c13.333 -15 20 -33.5 20 -55.5s-7.66699 -41.833 -23 -59.5s-34.5 -26.5 -57.5 -26.5s-41 7.66699 -54 23s-19.5 34 -19.5 56s7.5 41.667 22.5 59s34 26 57 26s41.167 -7.5 54.5 -22.5z" />
    <glyph glyph-name="Hbar" unicode="&#x126;" horiz-adv-x="788" 
d="M112 98l6.99805 222c-20.667 2.66699 -36.5 10.5 -47.5 23.5s-16.5 28 -16.5 45s5.83301 31.833 17.5 44.5s27.167 21 46.5 25c0 10 -1.66699 45.667 -5 107h-19c-20.667 0 -38 5.83301 -52 17.5s-21 26.167 -21 43.5s7 31.833 21 43.5s31.333 17.5 52 17.5h22
c10 48 34.333 72 73 72s62.334 -24.667 71.001 -74c73.333 -1.33301 122.5 -2 147.5 -2s64.833 0.666992 119.5 2c9.33301 50 33.333 75 72 75s62.334 -24 71.001 -72l22 -2c20.667 0 38 -5.83301 52 -17.5s21 -26.167 21 -43.5s-7 -31.833 -21 -43.5
s-31.333 -17.5 -52 -17.5h-19c-2 -45.333 -3.66699 -80.666 -5 -105.999c20 -4 35.833 -12.333 47.5 -25s17.5 -27.667 17.5 -45s-5.66699 -32.333 -17 -45s-27.333 -20.334 -48 -23.001l7 -222c0 -72 -25.167 -108 -75.5 -108s-75.5 36 -75.5 108l6 227l-139 3l-135 -3
l7 -227c0 -72 -25.333 -108 -76 -108s-76 36 -76 108zM257.998 453l134.001 -3c45.333 0 91.666 1 138.999 3c0 7.33301 -1.66699 45.333 -5 114c-73.333 1.33301 -118 2 -134 2l-129 -3c0 -12 -0.666992 -30.667 -2 -56z" />
    <glyph glyph-name="hbar" unicode="&#x127;" horiz-adv-x="788" 
d="M112 98l6.99805 222c-20.667 2.66699 -36.5 10.5 -47.5 23.5s-16.5 28 -16.5 45s5.83301 31.833 17.5 44.5s27.167 21 46.5 25c0 10 -1.66699 45.667 -5 107h-19c-20.667 0 -38 5.83301 -52 17.5s-21 26.167 -21 43.5s7 31.833 21 43.5s31.333 17.5 52 17.5h22
c10 48 34.333 72 73 72s62.334 -24.667 71.001 -74c73.333 -1.33301 122.5 -2 147.5 -2s64.833 0.666992 119.5 2c9.33301 50 33.333 75 72 75s62.334 -24 71.001 -72l22 -2c20.667 0 38 -5.83301 52 -17.5s21 -26.167 21 -43.5s-7 -31.833 -21 -43.5
s-31.333 -17.5 -52 -17.5h-19c-2 -45.333 -3.66699 -80.666 -5 -105.999c20 -4 35.833 -12.333 47.5 -25s17.5 -27.667 17.5 -45s-5.66699 -32.333 -17 -45s-27.333 -20.334 -48 -23.001l7 -222c0 -72 -25.167 -108 -75.5 -108s-75.5 36 -75.5 108l6 227l-139 3l-135 -3
l7 -227c0 -72 -25.333 -108 -76 -108s-76 36 -76 108zM257.998 453l134.001 -3c45.333 0 91.666 1 138.999 3c0 7.33301 -1.66699 45.333 -5 114c-73.333 1.33301 -118 2 -134 2l-129 -3c0 -12 -0.666992 -30.667 -2 -56z" />
    <glyph glyph-name="Itilde" unicode="&#x128;" horiz-adv-x="490" 
d="M125 756l122 -6.00195l122 6c24.667 0 44.5 -6 59.5 -18s22.5 -28.167 22.5 -48.5s-7.5 -36.5 -22.5 -48.5s-34.833 -18 -59.5 -18l-47 3c-4.66699 -98.667 -7 -182.5 -7 -251.5s2.33301 -152.833 7 -251.5c24 2.66699 39.667 4 47 4c24.667 0 44.5 -6 59.5 -18
s22.5 -28.167 22.5 -48.5s-7.5 -36.5 -22.5 -48.5s-34.833 -18 -59.5 -18l-122 6l-122 -7c-25.333 0 -45.5 6 -60.5 18s-22.5 28.333 -22.5 49s7.5 36.834 22.5 48.501s35.167 17.5 60.5 17.5l47 -4c4.66699 98.667 7 182.667 7 252s-2.33301 153.333 -7 252
c-20 -2 -39.167 -3 -57.5 -3s-35 5.83301 -50 17.5s-22.5 27.834 -22.5 48.501s7.5 37 22.5 49s35.167 18 60.5 18zM466 920.998c0 -22.667 -13.834 -46.167 -41.501 -70.5s-54.167 -36.5 -79.5 -36.5s-54.833 8.16699 -88.5 24.5s-55.667 24.5 -66 24.5
s-25.666 -9.16699 -45.999 -27.5s-39.5 -27.5 -57.5 -27.5s-33 6.16699 -45 18.5s-18 27.5 -18 45.5c0 26 14.333 50 43 72s64 33 106 33c21.333 0 50 -8 86 -24s61.333 -24 76 -24s30 7.33301 46 22s30.167 22 42.5 22s22.5 -5 30.5 -15s12 -22.333 12 -37z" />
    <glyph glyph-name="itilde" unicode="&#x129;" horiz-adv-x="490" 
d="M125 756l122 -6.00195l122 6c24.667 0 44.5 -6 59.5 -18s22.5 -28.167 22.5 -48.5s-7.5 -36.5 -22.5 -48.5s-34.833 -18 -59.5 -18l-47 3c-4.66699 -98.667 -7 -182.5 -7 -251.5s2.33301 -152.833 7 -251.5c24 2.66699 39.667 4 47 4c24.667 0 44.5 -6 59.5 -18
s22.5 -28.167 22.5 -48.5s-7.5 -36.5 -22.5 -48.5s-34.833 -18 -59.5 -18l-122 6l-122 -7c-25.333 0 -45.5 6 -60.5 18s-22.5 28.333 -22.5 49s7.5 36.834 22.5 48.501s35.167 17.5 60.5 17.5l47 -4c4.66699 98.667 7 182.667 7 252s-2.33301 153.333 -7 252
c-20 -2 -39.167 -3 -57.5 -3s-35 5.83301 -50 17.5s-22.5 27.834 -22.5 48.501s7.5 37 22.5 49s35.167 18 60.5 18zM466 920.998c0 -22.667 -13.834 -46.167 -41.501 -70.5s-54.167 -36.5 -79.5 -36.5s-54.833 8.16699 -88.5 24.5s-55.667 24.5 -66 24.5
s-25.666 -9.16699 -45.999 -27.5s-39.5 -27.5 -57.5 -27.5s-33 6.16699 -45 18.5s-18 27.5 -18 45.5c0 26 14.333 50 43 72s64 33 106 33c21.333 0 50 -8 86 -24s61.333 -24 76 -24s30 7.33301 46 22s30.167 22 42.5 22s22.5 -5 30.5 -15s12 -22.333 12 -37z" />
    <glyph glyph-name="Idot" unicode="&#x130;" horiz-adv-x="490" 
d="M125 756l122 -6.00195l122 6c24.667 0 44.5 -6 59.5 -18s22.5 -28.167 22.5 -48.5s-7.5 -36.5 -22.5 -48.5s-34.833 -18 -59.5 -18l-47 3c-4.66699 -98.667 -7 -182.5 -7 -251.5s2.33301 -152.833 7 -251.5c24 2.66699 39.667 4 47 4c24.667 0 44.5 -6 59.5 -18
s22.5 -28.167 22.5 -48.5s-7.5 -36.5 -22.5 -48.5s-34.833 -18 -59.5 -18l-122 6l-122 -7c-25.333 0 -45.5 6 -60.5 18s-22.5 28.333 -22.5 49s7.5 36.834 22.5 48.501s35.167 17.5 60.5 17.5l47 -4c4.66699 98.667 7 182.667 7 252s-2.33301 153.333 -7 252
c-20 -2 -39.167 -3 -57.5 -3s-35 5.83301 -50 17.5s-22.5 27.834 -22.5 48.501s7.5 37 22.5 49s35.167 18 60.5 18zM311 944.498c13.333 -15 20 -33.5 20 -55.5s-7.66699 -41.833 -23 -59.5s-34.5 -26.5 -57.5 -26.5s-41 7.66699 -54 23s-19.5 34 -19.5 56
s7.5 41.667 22.5 59s34 26 57 26s41.167 -7.5 54.5 -22.5z" />
    <glyph glyph-name="dotlessi" unicode="&#x131;" horiz-adv-x="490" 
d="M125 756l122 -6.00195l122 6c24.667 0 44.5 -6 59.5 -18s22.5 -28.167 22.5 -48.5s-7.5 -36.5 -22.5 -48.5s-34.833 -18 -59.5 -18l-47 3c-4.66699 -98.667 -7 -182.5 -7 -251.5s2.33301 -152.833 7 -251.5c24 2.66699 39.667 4 47 4c24.667 0 44.5 -6 59.5 -18
s22.5 -28.167 22.5 -48.5s-7.5 -36.5 -22.5 -48.5s-34.833 -18 -59.5 -18l-122 6l-122 -7c-25.333 0 -45.5 6 -60.5 18s-22.5 28.333 -22.5 49s7.5 36.834 22.5 48.501s35.167 17.5 60.5 17.5l47 -4c4.66699 98.667 7 182.667 7 252s-2.33301 153.333 -7 252
c-20 -2 -39.167 -3 -57.5 -3s-35 5.83301 -50 17.5s-22.5 27.834 -22.5 48.501s7.5 37 22.5 49s35.167 18 60.5 18z" />
    <glyph glyph-name="IJ" unicode="&#x132;" horiz-adv-x="1045" 
d="M125 756l122 -6.00195l122 6c24.667 0 44.5 -6 59.5 -18s22.5 -28.167 22.5 -48.5s-7.5 -36.5 -22.5 -48.5s-34.833 -18 -59.5 -18l-47 3c-4.66699 -98.667 -7 -182.5 -7 -251.5s2.33301 -152.833 7 -251.5c24 2.66699 39.667 4 47 4c24.667 0 44.5 -6 59.5 -18
s22.5 -28.167 22.5 -48.5s-7.5 -36.5 -22.5 -48.5s-34.833 -18 -59.5 -18l-122 6l-122 -7c-25.333 0 -45.5 6 -60.5 18s-22.5 28.333 -22.5 49s7.5 36.834 22.5 48.501s35.167 17.5 60.5 17.5l47 -4c4.66699 98.667 7 182.667 7 252s-2.33301 153.333 -7 252
c-20 -2 -39.167 -3 -57.5 -3s-35 5.83301 -50 17.5s-22.5 27.834 -22.5 48.501s7.5 37 22.5 49s35.167 18 60.5 18zM778 749.998l139 6.00098c24.667 0 44.5 -6 59.5 -18s22.5 -28.333 22.5 -49c0 -36 -21.333 -58 -64 -66c-0.666992 -50 -1 -170 -1 -360
c0 -50 -7 -93.667 -21 -131s-33 -66.333 -57 -87c-46.667 -40 -100.167 -60 -160.5 -60s-109.833 12.833 -148.5 38.5s-58 52.167 -58 79.5c0 18.667 6 33.667 18 45s26.5 17 43.5 17s38.167 -8.83301 63.5 -26.5s52 -26.5 80 -26.5s52.333 13.667 73 41
s31 70.666 31 129.999l-2 344l-138 -6c-25.333 0 -45.333 6 -60 18s-22 28.333 -22 49s7.5 37.167 22.5 49.5s34.833 18.5 59.5 18.5z" />
    <glyph glyph-name="ij" unicode="&#x133;" horiz-adv-x="1045" 
d="M125 756l122 -6.00195l122 6c24.667 0 44.5 -6 59.5 -18s22.5 -28.167 22.5 -48.5s-7.5 -36.5 -22.5 -48.5s-34.833 -18 -59.5 -18l-47 3c-4.66699 -98.667 -7 -182.5 -7 -251.5s2.33301 -152.833 7 -251.5c24 2.66699 39.667 4 47 4c24.667 0 44.5 -6 59.5 -18
s22.5 -28.167 22.5 -48.5s-7.5 -36.5 -22.5 -48.5s-34.833 -18 -59.5 -18l-122 6l-122 -7c-25.333 0 -45.5 6 -60.5 18s-22.5 28.333 -22.5 49s7.5 36.834 22.5 48.501s35.167 17.5 60.5 17.5l47 -4c4.66699 98.667 7 182.667 7 252s-2.33301 153.333 -7 252
c-20 -2 -39.167 -3 -57.5 -3s-35 5.83301 -50 17.5s-22.5 27.834 -22.5 48.501s7.5 37 22.5 49s35.167 18 60.5 18zM778 749.998l139 6.00098c24.667 0 44.5 -6 59.5 -18s22.5 -28.333 22.5 -49c0 -36 -21.333 -58 -64 -66c-0.666992 -50 -1 -170 -1 -360
c0 -50 -7 -93.667 -21 -131s-33 -66.333 -57 -87c-46.667 -40 -100.167 -60 -160.5 -60s-109.833 12.833 -148.5 38.5s-58 52.167 -58 79.5c0 18.667 6 33.667 18 45s26.5 17 43.5 17s38.167 -8.83301 63.5 -26.5s52 -26.5 80 -26.5s52.333 13.667 73 41
s31 70.666 31 129.999l-2 344l-138 -6c-25.333 0 -45.333 6 -60 18s-22 28.333 -22 49s7.5 37.167 22.5 49.5s34.833 18.5 59.5 18.5z" />
    <glyph glyph-name="Jcircumflex" unicode="&#x134;" horiz-adv-x="599" 
d="M332 750l139 6.00098c24.667 0 44.5 -6 59.5 -18s22.5 -28.333 22.5 -49c0 -36 -21.333 -58 -64 -66c-0.666992 -50 -1 -170 -1 -360c0 -50 -7 -93.667 -21 -131s-33 -66.333 -57 -87c-46.667 -40 -100.167 -60 -160.5 -60s-109.833 12.833 -148.5 38.5
s-58 52.167 -58 79.5c0 18.667 6 33.667 18 45s26.5 17 43.5 17s38.167 -8.83301 63.5 -26.5s52 -26.5 80 -26.5s52.333 13.667 73 41s31 70.666 31 129.999l-2 344l-138 -6c-25.333 0 -45.333 6 -60 18s-22 28.333 -22 49s7.5 37.167 22.5 49.5s34.833 18.5 59.5 18.5z
M309.5 1012.5c10.333 5 22.665 7.50195 36.998 7.50195s26.5 -3 36.5 -9s22.833 -18 38.5 -36s27 -30.5 34 -37.5s16.333 -15.833 28 -26.5s19.5 -18 23.5 -22c11.333 -11.333 17 -24.333 17 -39s-5.83301 -27.834 -17.5 -39.501s-25.667 -17.5 -42 -17.5
s-33.166 8 -50.499 24s-32.166 32 -44.499 48s-21.166 24 -26.499 24s-14.333 -7.66699 -27 -23c-37.333 -48 -69.333 -72 -96 -72c-15.333 0 -28.833 5.83301 -40.5 17.5s-17.5 23.167 -17.5 34.5s1.83301 20.5 5.5 27.5s7.5 12.5 11.5 16.5s11.833 11.333 23.5 22
s21.167 19.667 28.5 27s16.666 17.166 27.999 29.499s20 21.5 26 27.5s14.167 11.5 24.5 16.5z" />
    <glyph glyph-name="jcircumflex" unicode="&#x135;" horiz-adv-x="599" 
d="M332 750l139 6.00098c24.667 0 44.5 -6 59.5 -18s22.5 -28.333 22.5 -49c0 -36 -21.333 -58 -64 -66c-0.666992 -50 -1 -170 -1 -360c0 -50 -7 -93.667 -21 -131s-33 -66.333 -57 -87c-46.667 -40 -100.167 -60 -160.5 -60s-109.833 12.833 -148.5 38.5
s-58 52.167 -58 79.5c0 18.667 6 33.667 18 45s26.5 17 43.5 17s38.167 -8.83301 63.5 -26.5s52 -26.5 80 -26.5s52.333 13.667 73 41s31 70.666 31 129.999l-2 344l-138 -6c-25.333 0 -45.333 6 -60 18s-22 28.333 -22 49s7.5 37.167 22.5 49.5s34.833 18.5 59.5 18.5z
M309.5 1012.5c10.333 5 22.665 7.50195 36.998 7.50195s26.5 -3 36.5 -9s22.833 -18 38.5 -36s27 -30.5 34 -37.5s16.333 -15.833 28 -26.5s19.5 -18 23.5 -22c11.333 -11.333 17 -24.333 17 -39s-5.83301 -27.834 -17.5 -39.501s-25.667 -17.5 -42 -17.5
s-33.166 8 -50.499 24s-32.166 32 -44.499 48s-21.166 24 -26.499 24s-14.333 -7.66699 -27 -23c-37.333 -48 -69.333 -72 -96 -72c-15.333 0 -28.833 5.83301 -40.5 17.5s-17.5 23.167 -17.5 34.5s1.83301 20.5 5.5 27.5s7.5 12.5 11.5 16.5s11.833 11.333 23.5 22
s21.167 19.667 28.5 27s16.666 17.166 27.999 29.499s20 21.5 26 27.5s14.167 11.5 24.5 16.5z" />
    <glyph glyph-name="Kcommaaccent" unicode="&#x136;" horiz-adv-x="701" 
d="M366 -115c0 -32.667 -17.835 -63.6641 -53.502 -92.9971s-65.5 -44 -89.5 -44c-15.333 0 -27.333 4.16699 -36 12.5s-13 18.166 -13 29.499s6.83301 27.166 20.5 47.499s21.334 32 23.001 35s4.83398 10 9.50098 21s8.5 19 11.5 24s7.5 10.833 13.5 17.5
c10.667 12.667 26.5 19 47.5 19s37.333 -7.33301 49 -22s17.5 -30.334 17.5 -47.001zM253.998 650.003c0 -10 -2.33301 -71.002 -7 -183.002c22.667 1.33301 37.667 2 45 2s24.333 -1.66699 51 -5c26 22 50.333 53 73 93s41 81.667 55 125c16 52 41 78 75 78
c18 0 33.5 -6.16699 46.5 -18.5s19.5 -27.833 19.5 -46.5c0 -39.333 -16.333 -90.166 -49 -152.499s-69.334 -115.5 -110.001 -159.5c32 -67.333 67.667 -127.666 107 -180.999s67 -84 83 -92c4 -2 9.83301 -3.5 17.5 -4.5s13.167 -3 16.5 -6s5 -9.16699 5 -18.5
c0 -22 -8.16699 -42.667 -24.5 -62s-36.833 -29 -61.5 -29s-47.167 8.16699 -67.5 24.5s-44.666 45.833 -72.999 88.5s-71.5 114.667 -129.5 216c-24 -4 -41.833 -6 -53.5 -6s-20.167 0.666992 -25.5 2l7 -216c0 -72.667 -25.333 -109 -76 -109s-76 36.333 -76 109l8 281
l-8 270c0 72.667 25.333 109 76 109s76 -36.333 76 -109z" />
    <glyph glyph-name="kcedilla" unicode="&#x137;" horiz-adv-x="701" 
d="M366 -115c0 -32.667 -17.835 -63.6641 -53.502 -92.9971s-65.5 -44 -89.5 -44c-15.333 0 -27.333 4.16699 -36 12.5s-13 18.166 -13 29.499s6.83301 27.166 20.5 47.499s21.334 32 23.001 35s4.83398 10 9.50098 21s8.5 19 11.5 24s7.5 10.833 13.5 17.5
c10.667 12.667 26.5 19 47.5 19s37.333 -7.33301 49 -22s17.5 -30.334 17.5 -47.001zM253.998 650.003c0 -10 -2.33301 -71.002 -7 -183.002c22.667 1.33301 37.667 2 45 2s24.333 -1.66699 51 -5c26 22 50.333 53 73 93s41 81.667 55 125c16 52 41 78 75 78
c18 0 33.5 -6.16699 46.5 -18.5s19.5 -27.833 19.5 -46.5c0 -39.333 -16.333 -90.166 -49 -152.499s-69.334 -115.5 -110.001 -159.5c32 -67.333 67.667 -127.666 107 -180.999s67 -84 83 -92c4 -2 9.83301 -3.5 17.5 -4.5s13.167 -3 16.5 -6s5 -9.16699 5 -18.5
c0 -22 -8.16699 -42.667 -24.5 -62s-36.833 -29 -61.5 -29s-47.167 8.16699 -67.5 24.5s-44.666 45.833 -72.999 88.5s-71.5 114.667 -129.5 216c-24 -4 -41.833 -6 -53.5 -6s-20.167 0.666992 -25.5 2l7 -216c0 -72.667 -25.333 -109 -76 -109s-76 36.333 -76 109l8 281
l-8 270c0 72.667 25.333 109 76 109s76 -36.333 76 -109z" />
    <glyph glyph-name="kgreenlandic" unicode="&#x138;" horiz-adv-x="701" 
d="M254 650c0 -10 -2.33301 -71.002 -7 -183.002c22.667 1.33301 37.667 2 45 2s24.333 -1.66699 51 -5c26 22 50.333 53 73 93s41 81.667 55 125c16 52 41 78 75 78c18 0 33.5 -6.16699 46.5 -18.5s19.5 -27.833 19.5 -46.5c0 -39.333 -16.333 -90.166 -49 -152.499
s-69.334 -115.5 -110.001 -159.5c32 -67.333 67.667 -127.666 107 -180.999s67 -84 83 -92c4 -2 9.83301 -3.5 17.5 -4.5s13.167 -3 16.5 -6s5 -9.16699 5 -18.5c0 -22 -8.16699 -42.667 -24.5 -62s-36.833 -29 -61.5 -29s-47.167 8.16699 -67.5 24.5
s-44.666 45.833 -72.999 88.5s-71.5 114.667 -129.5 216c-24 -4 -41.833 -6 -53.5 -6s-20.167 0.666992 -25.5 2l7 -216c0 -72.667 -25.333 -109 -76 -109s-76 36.333 -76 109l8 281l-8 270c0 72.667 25.333 109 76 109s76 -36.333 76 -109z" />
    <glyph glyph-name="Ldot" unicode="&#x13f;" horiz-adv-x="595" 
d="M341 122l137 6.00098c25.333 0 45.5 -5.83301 60.5 -17.5s22.5 -27.834 22.5 -48.501s-7.5 -37.167 -22.5 -49.5s-35.167 -18.5 -60.5 -18.5l-137 6l-151 -6c-24.667 0 -45.167 8 -61.5 24s-24.5 37.333 -24.5 64l6 298l-8 271c0 72.667 25.333 109 76 109
s76 -36.333 76 -109l-8 -271c0 -34 2.33301 -119.333 7 -256c34.667 -1.33301 64 -2 88 -2zM461 442.501c13.333 -15 20 -33.5 20 -55.5s-7.66699 -41.833 -23 -59.5s-34.5 -26.5 -57.5 -26.5s-41 7.66699 -54 23s-19.5 34 -19.5 56s7.5 41.667 22.5 59s34 26 57 26
s41.167 -7.5 54.5 -22.5z" />
    <glyph glyph-name="ldot" unicode="&#x140;" horiz-adv-x="595" 
d="M341 122l137 6.00098c25.333 0 45.5 -5.83301 60.5 -17.5s22.5 -27.834 22.5 -48.501s-7.5 -37.167 -22.5 -49.5s-35.167 -18.5 -60.5 -18.5l-137 6l-151 -6c-24.667 0 -45.167 8 -61.5 24s-24.5 37.333 -24.5 64l6 298l-8 271c0 72.667 25.333 109 76 109
s76 -36.333 76 -109l-8 -271c0 -34 2.33301 -119.333 7 -256c34.667 -1.33301 64 -2 88 -2zM461 442.501c13.333 -15 20 -33.5 20 -55.5s-7.66699 -41.833 -23 -59.5s-34.5 -26.5 -57.5 -26.5s-41 7.66699 -54 23s-19.5 34 -19.5 56s7.5 41.667 22.5 59s34 26 57 26
s41.167 -7.5 54.5 -22.5z" />
    <glyph glyph-name="Lslash" unicode="&#x141;" horiz-adv-x="615" 
d="M358 122l137 6c25.333 0 45.5 -5.83301 60.5 -17.5s22.5 -27.834 22.5 -48.501s-7.5 -37.167 -22.5 -49.5s-35.167 -18.5 -60.5 -18.5l-137 6l-151 -6c-24.667 0 -45.167 8 -61.5 24s-24.5 37.333 -24.5 64c0 13.333 1.66699 86 5 218c-18 -15.333 -35.5 -23 -52.5 -23
s-31.167 5.33301 -42.5 16s-17 22.334 -17 35.001s2.66699 24.167 8 34.5s13.333 20.5 24 30.5s20 18.333 28 25c26 21.333 43 34 51 38c-4 124 -6 189 -6 195c0 72.667 25.333 109 76 109s76 -36.333 76 -109c0 -31.333 -0.333008 -54.666 -1 -69.999
c12 10.667 21 18.334 27 23.001c16.667 14 33.167 21 49.5 21s30.5 -5.66699 42.5 -17s18 -23.5 18 -36.5s-2.5 -24.333 -7.5 -34s-13.167 -19.667 -24.5 -30s-21.833 -19.333 -31.5 -27s-23.167 -17.834 -40.5 -30.501l-40 -30c0 -60.667 2.33301 -159.334 7 -296.001
c34.667 -1.33301 64 -2 88 -2z" />
    <glyph glyph-name="lslash" unicode="&#x142;" horiz-adv-x="615" 
d="M358 122l137 6c25.333 0 45.5 -5.83301 60.5 -17.5s22.5 -27.834 22.5 -48.501s-7.5 -37.167 -22.5 -49.5s-35.167 -18.5 -60.5 -18.5l-137 6l-151 -6c-24.667 0 -45.167 8 -61.5 24s-24.5 37.333 -24.5 64c0 13.333 1.66699 86 5 218c-18 -15.333 -35.5 -23 -52.5 -23
s-31.167 5.33301 -42.5 16s-17 22.334 -17 35.001s2.66699 24.167 8 34.5s13.333 20.5 24 30.5s20 18.333 28 25c26 21.333 43 34 51 38c-4 124 -6 189 -6 195c0 72.667 25.333 109 76 109s76 -36.333 76 -109c0 -31.333 -0.333008 -54.666 -1 -69.999
c12 10.667 21 18.334 27 23.001c16.667 14 33.167 21 49.5 21s30.5 -5.66699 42.5 -17s18 -23.5 18 -36.5s-2.5 -24.333 -7.5 -34s-13.167 -19.667 -24.5 -30s-21.833 -19.333 -31.5 -27s-23.167 -17.834 -40.5 -30.501l-40 -30c0 -60.667 2.33301 -159.334 7 -296.001
c34.667 -1.33301 64 -2 88 -2z" />
    <glyph glyph-name="Nacute" unicode="&#x143;" horiz-adv-x="765" 
d="M655 380l3 -299.999c0 -60 -25 -90 -75 -90c-29.333 0 -52.333 13.667 -69 41l-262 439c-1.33301 -16 -2 -42.667 -2 -80l7 -292c0 -72 -25.333 -108 -76 -108s-76 36 -76 108l8 272c0 24.667 -1.33301 69.667 -4 135s-4 120.666 -4 165.999c0 59.333 24.667 89 74 89
c34 0 58.667 -13.333 74 -40l267 -458l-1 118l-8 272c0 72 25.333 108 76 108s76 -36 76 -108zM520 928.001c0 -32.667 -17.335 -63.666 -52.002 -92.999s-64 -44 -88 -44c-15.333 0 -27.333 4.16699 -36 12.5s-13 18.166 -13 29.499s6.83301 27.166 20.5 47.499
s21.334 32 23.001 35s4.83398 10 9.50098 21s8.5 19 11.5 24s7.16699 10.833 12.5 17.5c11.333 12.667 27.5 19 48.5 19s36.833 -7.16699 47.5 -21.5s16 -30.166 16 -47.499z" />
    <glyph glyph-name="nacute" unicode="&#x144;" horiz-adv-x="808" 
d="M540 160l5 267.998c0 61.333 -10 110.666 -30 147.999s-49.333 56 -88 56s-78 -24.167 -118 -72.5s-68 -104.166 -84 -167.499l6 -294c0 -72 -25 -108 -75 -108c-56 0 -84 42.333 -84 127c0 66.667 8.66699 157 26 271c0 31.333 -3.66699 79 -11 143
s-11 110.833 -11 140.5s6.66699 52.334 20 68.001s32 23.5 56 23.5c48.667 0 73 -37.667 73 -113c58 73.333 127.833 110 209.5 110s144.167 -26.167 187.5 -78.5s65 -116.166 65 -191.499l-6 -255c0 -63.333 4 -99 12 -107c4.66699 -4.66699 11.667 -8 21 -10s17 -5 23 -9
s9 -11 9 -21c0 -28 -9.5 -51.667 -28.5 -71s-41.167 -29 -66.5 -29c-42 0 -71 14.5 -87 43.5s-24 71.833 -24 128.5zM545 936.998c0 -32.667 -17.335 -63.666 -52.002 -92.999s-64 -44 -88 -44c-15.333 0 -27.333 4.16699 -36 12.5s-13 18.166 -13 29.499
s6.83301 27.166 20.5 47.499s21.334 32 23.001 35s4.83398 10 9.50098 21s8.5 19 11.5 24s7.5 10.833 13.5 17.5c10.667 12.667 26.5 19 47.5 19s36.833 -7.16699 47.5 -21.5s16 -30.166 16 -47.499z" />
    <glyph glyph-name="OE" unicode="&#x152;" horiz-adv-x="982" 
d="M849 622l-138.999 6.00098c-13.333 0 -37.333 -0.666992 -72 -2c30.667 -44.667 51.667 -100 63 -166c61.333 3.33301 97 5 107 5c24 0 43.667 -6.16699 59 -18.5s23 -28.666 23 -48.999s-7.66699 -36.333 -23 -48s-36 -17.5 -62 -17.5s-58.667 1 -98 3
c-4 -58 -28.333 -130 -73 -216h58l157 6c25.333 0 45.5 -5.83301 60.5 -17.5s22.5 -27.834 22.5 -48.501s-7.5 -37.167 -22.5 -49.5s-35.167 -18.5 -60.5 -18.5l-157 6l-152 -6c-14 0 -29.667 3.66699 -47 11c-28.667 -11.333 -62.334 -17 -101.001 -17
c-94 0 -172.5 38 -235.5 114s-94.5 168.167 -94.5 276.5s31.833 200.333 95.5 276s142.5 113.5 236.5 113.5c34 0 64.667 -5.33301 92 -16c12.667 4.66699 27 7 43 7l163 -6l157 6c25.333 0 45.5 -6.16699 60.5 -18.5s22.5 -28.833 22.5 -49.5s-7.5 -36.834 -22.5 -48.501
s-35.167 -17.5 -60.5 -17.5zM517.001 192.001c33.333 53.333 50.002 114.833 50.002 184.5s-16.5 129.667 -49.5 180s-75.5 75.5 -127.5 75.5s-96 -25.167 -132 -75.5s-54 -110.333 -54 -180s18.167 -131.167 54.5 -184.5s80.166 -80 131.499 -80s93.666 26.667 126.999 80z
" />
    <glyph glyph-name="oe" unicode="&#x153;" horiz-adv-x="1273" 
d="M547 191c39.333 53.333 59 115.166 59 185.499s-19.5 131.666 -58.5 183.999s-88.333 78.5 -148 78.5s-109 -26.167 -148 -78.5s-58.5 -113.666 -58.5 -183.999s19.667 -132.166 59 -185.499s88.5 -80 147.5 -80s108.167 26.667 147.5 80zM1144.5 700.5
c49.667 -43 74.5029 -94.332 74.5029 -153.999s-15 -108.5 -45 -146.5c-56.667 -69.333 -144.334 -104 -263.001 -104c-39.333 0 -85 4.33301 -137 13c10 -56 31 -103 63 -141s68.667 -57 110 -57c46 0 95 15.667 147 47c17.333 10.667 33.333 16 48 16
s27.334 -5 38.001 -15s16 -22.667 16 -38c0 -26 -24.667 -55.167 -74 -87.5s-104.833 -48.5 -166.5 -48.5s-115.334 14.5 -161.001 43.5s-82.5 68.5 -110.5 118.5c-32 -50 -72.667 -89.5 -122 -118.5s-103.666 -43.5 -162.999 -43.5c-98.667 0 -181.334 38 -248.001 114
s-100 168.167 -100 276.5s33.5 200.333 100.5 276s149.833 113.5 248.5 113.5c61.333 0 117.166 -15.333 167.499 -46s91.166 -72.334 122.499 -125.001c65.333 114 157 171 275 171c70 0 129.833 -21.5 179.5 -64.5zM1077 542.001c0 24 -9.66699 46 -29 66s-47 30 -83 30
c-47.333 0 -87.5 -20 -120.5 -60s-56.167 -88 -69.5 -144c40 -9.33301 84.833 -14 134.5 -14s90 10.667 121 32s46.5 51.333 46.5 90z" />
    <glyph glyph-name="Racute" unicode="&#x154;" horiz-adv-x="699" 
d="M102 98l8 272.004c0 50.667 -2 126 -6 226c-28 11.333 -42 30.666 -42 57.999c0 18.667 10.167 35.5 30.5 50.5s45.5 26.833 75.5 35.5c60 16.667 112 25 156 25c99.333 0 174.666 -22.833 225.999 -68.5s77 -101.5 77 -167.5c0 -38.667 -12 -76.834 -36 -114.501
s-56 -68.167 -96 -91.5c66.667 -132.667 115.334 -204 146.001 -214l14 -4.5c5.33301 -1.66699 8.66602 -2.83398 9.99902 -3.50098s3.33301 -1.5 6 -2.5s4.33398 -2.5 5.00098 -4.5c0.666992 -4.66699 1 -10 1 -16c0 -25.333 -9.16699 -46.5 -27.5 -63.5
s-38.833 -25.5 -61.5 -25.5c-36 0 -71 23.167 -105 69.5s-74 120.166 -120 221.499c-17.333 -1.33301 -36.5 -2 -57.5 -2s-40.833 2 -59.5 6c5.33301 -90.667 8 -152.667 8 -186c0 -72 -25.333 -108 -76 -108s-76 36 -76 108zM246 419.004
c22 6.66699 47.1689 9.99902 75.502 9.99902s57.166 -4.33301 86.499 -13c18 7.33301 35.333 21.333 52 42s25 42.334 25 65.001c0 35.333 -13.333 63.333 -40 84s-65.334 31 -116.001 31c-22.667 0 -48.667 -4 -78 -12c-3.33301 -123.333 -5 -192.333 -5 -207z
M473.002 939.003c0 -32.667 -17.335 -63.666 -52.002 -92.999s-64 -44 -88 -44c-15.333 0 -27.333 4.16699 -36 12.5s-13 18.166 -13 29.499s6.83301 27.166 20.5 47.499s21.334 32 23.001 35s4.83398 10 9.50098 21s8.5 19 11.5 24s7.5 10.833 13.5 17.5
c10.667 12.667 26.5 19 47.5 19s36.833 -7.16699 47.5 -21.5s16 -30.166 16 -47.499z" />
    <glyph glyph-name="Rcommaaccent" unicode="&#x156;" horiz-adv-x="699" 
d="M102 98l8 272.004c0 50.667 -2 126 -6 226c-28 11.333 -42 30.666 -42 57.999c0 18.667 10.167 35.5 30.5 50.5s45.5 26.833 75.5 35.5c60 16.667 112 25 156 25c99.333 0 174.666 -22.833 225.999 -68.5s77 -101.5 77 -167.5c0 -38.667 -12 -76.834 -36 -114.501
s-56 -68.167 -96 -91.5c66.667 -132.667 115.334 -204 146.001 -214l14 -4.5c5.33301 -1.66699 8.66602 -2.83398 9.99902 -3.50098s3.33301 -1.5 6 -2.5s4.33398 -2.5 5.00098 -4.5c0.666992 -4.66699 1 -10 1 -16c0 -25.333 -9.16699 -46.5 -27.5 -63.5
s-38.833 -25.5 -61.5 -25.5c-36 0 -71 23.167 -105 69.5s-74 120.166 -120 221.499c-17.333 -1.33301 -36.5 -2 -57.5 -2s-40.833 2 -59.5 6c5.33301 -90.667 8 -152.667 8 -186c0 -72 -25.333 -108 -76 -108s-76 36 -76 108zM246 419.004
c22 6.66699 47.1689 9.99902 75.502 9.99902s57.166 -4.33301 86.499 -13c18 7.33301 35.333 21.333 52 42s25 42.334 25 65.001c0 35.333 -13.333 63.333 -40 84s-65.334 31 -116.001 31c-22.667 0 -48.667 -4 -78 -12c-3.33301 -123.333 -5 -192.333 -5 -207z
M364.002 -114.997c0 -32.667 -17.835 -63.6641 -53.502 -92.9971s-65.5 -44 -89.5 -44c-15.333 0 -27.333 4.16699 -36 12.5s-13 18.166 -13 29.499s6.83301 27.166 20.5 47.499s21.334 32 23.001 35s4.83398 10 9.50098 21s8.5 19 11.5 24s7.5 10.833 13.5 17.5
c10.667 12.667 26.5 19 47.5 19s37.333 -7.33301 49 -22s17.5 -30.334 17.5 -47.001z" />
    <glyph glyph-name="rcommaaccent" unicode="&#x157;" horiz-adv-x="565" 
d="M223 352l8 -255.999c0 -72 -25 -108 -75 -108c-56 0 -84 42.333 -84 127c0 60 8.66699 150.333 26 271c0 31.333 -3.66699 79 -11 143s-11 110.833 -11 140.5s6.66699 52.334 20 68.001s31.833 23.5 55.5 23.5s42 -9 55 -27s19.5 -43 19.5 -75
c20.667 31.333 46.5 56.666 77.5 75.999s66.167 29 105.5 29s71.333 -10 96 -30s37 -41.833 37 -65.5s-7.33301 -42.834 -22 -57.501s-31 -22 -49 -22s-36.5 7.83301 -55.5 23.5s-31.833 23.5 -38.5 23.5c-23.333 0 -52.333 -31.833 -87 -95.5s-57 -126.5 -67 -188.5z
M208 -114.999c0 -32.667 -17.835 -63.6641 -53.502 -92.9971s-65.5 -44 -89.5 -44c-15.333 0 -27.333 4.16699 -36 12.5s-13 18.166 -13 29.499s6.83301 27.166 20.5 47.499s21.334 32 23.001 35s4.83398 10 9.50098 21s8.5 19 11.5 24s7.5 10.833 13.5 17.5
c10.667 12.667 26.5 19 47.5 19s37.333 -7.33301 49 -22s17.5 -30.334 17.5 -47.001z" />
    <glyph glyph-name="Rcaron" unicode="&#x158;" horiz-adv-x="699" 
d="M102 98l8 272.004c0 50.667 -2 126 -6 226c-28 11.333 -42 30.666 -42 57.999c0 18.667 10.167 35.5 30.5 50.5s45.5 26.833 75.5 35.5c60 16.667 112 25 156 25c99.333 0 174.666 -22.833 225.999 -68.5s77 -101.5 77 -167.5c0 -38.667 -12 -76.834 -36 -114.501
s-56 -68.167 -96 -91.5c66.667 -132.667 115.334 -204 146.001 -214l14 -4.5c5.33301 -1.66699 8.66602 -2.83398 9.99902 -3.50098s3.33301 -1.5 6 -2.5s4.33398 -2.5 5.00098 -4.5c0.666992 -4.66699 1 -10 1 -16c0 -25.333 -9.16699 -46.5 -27.5 -63.5
s-38.833 -25.5 -61.5 -25.5c-36 0 -71 23.167 -105 69.5s-74 120.166 -120 221.499c-17.333 -1.33301 -36.5 -2 -57.5 -2s-40.833 2 -59.5 6c5.33301 -90.667 8 -152.667 8 -186c0 -72 -25.333 -108 -76 -108s-76 36 -76 108zM246 419.004
c22 6.66699 47.1689 9.99902 75.502 9.99902s57.166 -4.33301 86.499 -13c18 7.33301 35.333 21.333 52 42s25 42.334 25 65.001c0 35.333 -13.333 63.333 -40 84s-65.334 31 -116.001 31c-22.667 0 -48.667 -4 -78 -12c-3.33301 -123.333 -5 -192.333 -5 -207z
M362.502 810.503c-10.333 -5 -21.6641 -7.5 -33.9971 -7.5s-23.666 2.5 -33.999 7.5s-18.5 10.5 -24.5 16.5s-14.667 15.167 -26 27.5s-20.666 22.166 -27.999 29.499s-16.833 16.333 -28.5 27s-19.5 18 -23.5 22c-11.333 11.333 -17 24.333 -17 39
s5.83301 27.834 17.5 39.501s25.667 17.5 42 17.5s33.166 -7.83301 50.499 -23.5s32.166 -31.5 44.499 -47.5s21.166 -24 26.499 -24s14 8 26 24c37.333 48 69.666 72 96.999 72c15.333 0 28.833 -5.83301 40.5 -17.5s17.5 -23.167 17.5 -34.5s-1.83301 -20.5 -5.5 -27.5
s-7.5 -12.5 -11.5 -16.5s-11.833 -11.333 -23.5 -22l-29 -27c-7.66699 -7.33301 -16.834 -17.333 -27.501 -30s-19 -22 -25 -28s-14.167 -11.5 -24.5 -16.5z" />
    <glyph glyph-name="rcaron" unicode="&#x159;" horiz-adv-x="565" 
d="M223 352l8 -255.999c0 -72 -25 -108 -75 -108c-56 0 -84 42.333 -84 127c0 60 8.66699 150.333 26 271c0 31.333 -3.66699 79 -11 143s-11 110.833 -11 140.5s6.66699 52.334 20 68.001s31.833 23.5 55.5 23.5s42 -9 55 -27s19.5 -43 19.5 -75
c20.667 31.333 46.5 56.666 77.5 75.999s66.167 29 105.5 29s71.333 -10 96 -30s37 -41.833 37 -65.5s-7.33301 -42.834 -22 -57.501s-31 -22 -49 -22s-36.5 7.83301 -55.5 23.5s-31.833 23.5 -38.5 23.5c-23.333 0 -52.333 -31.833 -87 -95.5s-57 -126.5 -67 -188.5z
M342.5 811.501c-10.333 -5 -21.6641 -7.5 -33.9971 -7.5s-23.666 2.5 -33.999 7.5s-18.5 10.5 -24.5 16.5s-14.667 15.167 -26 27.5s-20.666 22.166 -27.999 29.499s-16.833 16.333 -28.5 27s-19.5 18 -23.5 22c-11.333 11.333 -17 24.333 -17 39
s5.83301 27.834 17.5 39.501s25.667 17.5 42 17.5s33.166 -8 50.499 -24s32.166 -31.833 44.499 -47.5s21.166 -23.5 26.499 -23.5s14 8 26 24c37.333 48 69.666 72 96.999 72c15.333 0 28.833 -5.83301 40.5 -17.5s17.5 -23.167 17.5 -34.5s-1.83301 -20.5 -5.5 -27.5
s-7.5 -12.5 -11.5 -16.5s-11.833 -11.333 -23.5 -22l-29 -27c-7.66699 -7.33301 -16.834 -17.333 -27.501 -30s-19 -22 -25 -28s-14.167 -11.5 -24.5 -16.5z" />
    <glyph glyph-name="circumflex" unicode="&#x2c6;" horiz-adv-x="480" 
d="M206.5 752.5c10.333 5 22.665 7.50195 36.998 7.50195s26.5 -3 36.5 -9s22.833 -18 38.5 -36s27 -30.5 34 -37.5s16.333 -15.833 28 -26.5s19.5 -18 23.5 -22c11.333 -11.333 17 -24.333 17 -39s-5.83301 -27.834 -17.5 -39.501s-25.667 -17.5 -42 -17.5
s-33.166 8 -50.499 24s-32.166 32 -44.499 48s-21.166 24 -26.499 24s-14 -7.66699 -26 -23c-38 -48 -70.333 -72 -97 -72c-15.333 0 -28.833 5.83301 -40.5 17.5s-17.5 23.167 -17.5 34.5s1.83301 20.5 5.5 27.5s7.5 12.5 11.5 16.5s11.833 11.333 23.5 22
s21.167 19.667 28.5 27s16.666 17.166 27.999 29.499s20 21.5 26 27.5s14.167 11.5 24.5 16.5z" />
    <glyph glyph-name="caron" unicode="&#x2c7;" horiz-adv-x="480" 
d="M274.5 540.5c-10.333 -5 -21.6641 -7.5 -33.9971 -7.5s-23.666 2.5 -33.999 7.5s-18.5 10.5 -24.5 16.5s-14.667 15.167 -26 27.5s-20.666 22.166 -27.999 29.499s-16.833 16.333 -28.5 27s-19.5 18 -23.5 22c-11.333 11.333 -17 24.333 -17 39
s5.83301 27.834 17.5 39.501s25.667 17.5 42 17.5s33.166 -7.83301 50.499 -23.5s32.166 -31.5 44.499 -47.5s21.166 -24 26.499 -24s14 8 26 24c37.333 48 69.666 72 96.999 72c15.333 0 28.833 -5.83301 40.5 -17.5s17.5 -23.167 17.5 -34.5s-1.83301 -20.5 -5.5 -27.5
s-7.5 -12.5 -11.5 -16.5s-11.833 -11.333 -23.5 -22l-29 -27c-7.66699 -7.33301 -16.834 -17.333 -27.501 -30s-19 -22 -25 -28s-14.167 -11.5 -24.5 -16.5z" />
    <glyph glyph-name="breve" unicode="&#x2d8;" horiz-adv-x="434" 
d="M214 570c-51.333 0 -93.6699 17 -127.003 51s-50 65.667 -50 95c0 20 5.66699 34.833 17 44.5s24.333 14.5 39 14.5s27.834 -4.16699 39.501 -12.5s20.5 -17.5 26.5 -27.5s13.833 -19.167 23.5 -27.5s20.167 -12.5 31.5 -12.5s21.833 4.16699 31.5 12.5
s17.5 17.5 23.5 27.5s14.833 19.167 26.5 27.5s24.834 12.5 39.501 12.5s27.667 -4.83301 39 -14.5s17 -24.5 17 -44.5c0 -29.333 -16.667 -61 -50 -95s-75.666 -51 -126.999 -51z" />
    <glyph glyph-name="dotaccent" unicode="&#x2d9;" horiz-adv-x="264" 
d="M189 737.5c13.333 -15 20 -33.5 20 -55.5s-7.66699 -41.833 -23 -59.5s-34.5 -26.5 -57.5 -26.5s-41 7.66699 -54 23s-19.5 34 -19.5 56s7.5 41.667 22.5 59s34 26 57 26s41.167 -7.5 54.5 -22.5z" />
    <glyph glyph-name="ring" unicode="&#x2da;" horiz-adv-x="224" 
d="M188.5 736.5c20.333 -19.667 30.5 -43.667 30.5 -72s-9.83301 -52 -29.5 -71s-45.5 -28.5 -77.5 -28.5s-57.833 9.5 -77.5 28.5s-29.5 42.667 -29.5 71s10.167 52.333 30.5 72s45.833 29.5 76.5 29.5s56.167 -9.83301 76.5 -29.5zM143 664c0 8 -2.83301 15 -8.5 21
s-13.167 9 -22.5 9s-17 -3 -23 -9s-9 -13 -9 -21s3 -15 9 -21s13.667 -9 23 -9s16.833 3 22.5 9s8.5 13 8.5 21z" />
    <glyph glyph-name="ogonek" unicode="&#x2db;" horiz-adv-x="363" 
d="M327 -163c0 -20.667 -13.332 -40.333 -39.999 -59s-57.667 -28 -93 -28s-65 11 -89 33s-36 51 -36 87c0 56 25 103.667 75 143h157c-31.333 -16 -58.5 -37.5 -81.5 -64.5s-34.5 -46.167 -34.5 -57.5c0 -21.333 8.66699 -32 26 -32c5.33301 0 16.166 3.33301 32.499 10
s30.833 10 43.5 10s22.5 -4.5 29.5 -13.5s10.5 -18.5 10.5 -28.5z" />
    <glyph glyph-name="tilde" unicode="&#x2dc;" horiz-adv-x="592" 
d="M517 669c0 -22.667 -13.834 -46.167 -41.501 -70.5s-54.167 -36.5 -79.5 -36.5s-54.833 8.16699 -88.5 24.5s-55.667 24.5 -66 24.5s-25.666 -9.16699 -45.999 -27.5s-39.5 -27.5 -57.5 -27.5s-33 6.16699 -45 18.5s-18 27.5 -18 45.5c0 26 14.333 50 43 72s64 33 106 33
c21.333 0 50 -8 86 -24s61.333 -24 76 -24s30 7.33301 46 22s30.167 22 42.5 22s22.5 -5 30.5 -15s12 -22.333 12 -37z" />
    <glyph glyph-name="Omega" unicode="&#x3a9;" horiz-adv-x="899" 
d="M224 0l-107.999 -6c-26 0 -46.333 5.83301 -61 17.5s-22 27.5 -22 47.5s7.33301 35.833 22 47.5s35 17.5 61 17.5c6.66699 0 18.834 -0.5 36.501 -1.5s32.5 -1.5 44.5 -1.5c-60 80.667 -90 166.5 -90 257.5s34.333 169.5 103 235.5s149 99 241 99s172 -33 240 -99
s102 -144.5 102 -235.5s-30 -176.833 -90 -257.5l81 3c26 0 46.333 -5.83301 61 -17.5s22 -27.5 22 -47.5s-7.33301 -35.833 -22 -47.5s-35 -17.5 -61 -17.5l-108 6l-99 -6c-24 0 -43.667 6 -59 18s-23 28.667 -23 50s13.333 39.333 40 54
c33.333 18 61.166 52.667 83.499 104s33.5 105 33.5 161s-19 104.167 -57 144.5s-86.333 60.5 -145 60.5s-107 -20.167 -145 -60.5s-57 -88.5 -57 -144.5s11.167 -109.667 33.5 -161s50.166 -86 83.499 -104c26.667 -14.667 40 -32.667 40 -54s-7.66699 -38 -23 -50
s-35 -18 -59 -18z" />
    <glyph glyph-name="endash" unicode="&#x2013;" horiz-adv-x="620" 
d="M311 432l166 5c20.667 0 37.834 -6 51.501 -18s20.5 -26.667 20.5 -44s-6.83301 -32 -20.5 -44s-30.834 -18 -51.501 -18l-166 5l-167 -4c-20.667 0 -38 5.83301 -52 17.5s-21 26.167 -21 43.5s7 31.833 21 43.5s31.333 17.5 52 17.5z" />
    <glyph glyph-name="emdash" unicode="&#x2014;" horiz-adv-x="880" 
d="M441 432l306 5c20.667 0 37.834 -6 51.501 -18s20.5 -26.667 20.5 -44s-6.83301 -32 -20.5 -44s-30.834 -18 -51.501 -18l-306 5l-307 -4c-20.667 0 -38 5.83301 -52 17.5s-21 26.167 -21 43.5s7 31.833 21 43.5s31.333 17.5 52 17.5z" />
    <glyph glyph-name="quoteleft" unicode="&#x2018;" horiz-adv-x="270" 
d="M199 628l10.001 -76.001c0 -22.667 -7.5 -42.667 -22.5 -60s-34 -26 -57 -26s-41.167 8 -54.5 24s-20 35.333 -20 58c0 45.333 14.333 92 43 140s55 72 79 72c15.333 0 26.666 -4.66699 33.999 -14s11 -19.333 11 -30s-3.83301 -24.667 -11.5 -42
s-11.5 -32.666 -11.5 -45.999z" />
    <glyph glyph-name="quoteright" unicode="&#x2019;" horiz-adv-x="271" 
d="M76 598l-10.001 76.001c0 22.667 7.5 42.667 22.5 60s34 26 57 26s41.167 -8 54.5 -24s20 -35.333 20 -58c0 -45.333 -14.333 -92 -43 -140s-55 -72 -79 -72c-15.333 0 -26.666 4.66699 -33.999 14s-11 19.333 -11 30s3.83301 24.667 11.5 42s11.5 32.666 11.5 45.999z
" />
    <glyph glyph-name="quotesinglbase" unicode="&#x201a;" horiz-adv-x="280" 
d="M72 -3l-10 76c0 24.667 7.33301 45.167 22 61.5s33.667 24.5 57 24.5s41.666 -8.16699 54.999 -24.5s20 -35.833 20 -58.5c0 -47.333 -11 -94.333 -33 -141s-45 -70 -69 -70c-15.333 0 -26.666 4.66699 -33.999 14s-11 20 -11 32z" />
    <glyph glyph-name="quotedblleft" unicode="&#x201c;" horiz-adv-x="517" 
d="M199 628l10.001 -76.001c0 -22.667 -7.5 -42.667 -22.5 -60s-34 -26 -57 -26s-41.167 8 -54.5 24s-20 35.333 -20 58c0 45.333 14.333 92 43 140s55 72 79 72c15.333 0 26.666 -4.66699 33.999 -14s11 -19.333 11 -30s-3.83301 -24.667 -11.5 -42
s-11.5 -32.666 -11.5 -45.999zM446.001 627.999l10.001 -76.001c0 -22.667 -7.5 -42.667 -22.5 -60s-34 -26 -57 -26s-41.167 8 -54.5 24s-20 35.333 -20 58c0 45.333 14.333 92 43 140s55 72 79 72c15.333 0 26.666 -4.66699 33.999 -14s11 -19.333 11 -30
s-3.83301 -24.667 -11.5 -42s-11.5 -32.666 -11.5 -45.999z" />
    <glyph glyph-name="quotedblright" unicode="&#x201d;" horiz-adv-x="518" 
d="M323 598l-10.001 76.001c0 22.667 7.5 42.667 22.5 60s34 26 57 26s41.167 -8 54.5 -24s20 -35.333 20 -58c0 -45.333 -14.333 -92 -43 -140s-55 -72 -79 -72c-15.333 0 -26.666 4.66699 -33.999 14s-11 19.333 -11 30s3.83301 24.667 11.5 42s11.5 32.666 11.5 45.999z
M75.999 598.001l-10.001 76.001c0 22.667 7.5 42.667 22.5 60s34 26 57 26s41.167 -8 54.5 -24s20 -35.333 20 -58c0 -45.333 -14.333 -92 -43 -140s-55 -72 -79 -72c-15.333 0 -26.666 4.66699 -33.999 14s-11 19.333 -11 30s3.83301 24.667 11.5 42
s11.5 32.666 11.5 45.999z" />
    <glyph glyph-name="quotedblbase" unicode="&#x201e;" horiz-adv-x="530" 
d="M72 -3l-10 76c0 24.667 7.33301 45.167 22 61.5s33.667 24.5 57 24.5s41.666 -8.16699 54.999 -24.5s20 -35.833 20 -58.5c0 -47.333 -11 -94.333 -33 -141s-45 -70 -69 -70c-15.333 0 -26.666 4.66699 -33.999 14s-11 20 -11 32zM322 -3l-10 76
c0 24.667 7.33301 45.167 22 61.5s33.667 24.5 57 24.5s41.666 -8.16699 54.999 -24.5s20 -35.833 20 -58.5c0 -47.333 -11 -94.333 -33 -141s-45 -70 -69 -70c-15.333 0 -26.666 4.66699 -33.999 14s-11 20 -11 32z" />
    <glyph glyph-name="dagger" unicode="&#x2020;" horiz-adv-x="618" 
d="M372 320l4 -318c0 -26 -6 -46.833 -18 -62.5s-28.5 -23.5 -49.5 -23.5s-37.667 7.66699 -50 23s-18.5 36 -18.5 62c0 2 0.666992 19 2 51c2.66699 94.667 4 184 4 268v118l-128 -2c-21.333 0 -38.833 5.33301 -52.5 16s-20.5 25 -20.5 43s6.83301 32.5 20.5 43.5
s31.167 16.5 52.5 16.5l126 -3l-3 123c0 26 6 46.833 18 62.5s28.5 23.5 49.5 23.5s37.5 -7.83301 49.5 -23.5s18 -36.5 18 -62.5l-3 -123l128 3c22 0 39.5 -5.33301 52.5 -16s19.5 -25.167 19.5 -43.5s-6.5 -32.833 -19.5 -43.5s-30.5 -16 -52.5 -16
c-41.333 0 -84.333 0.666992 -129 2v-118z" />
    <glyph glyph-name="daggerdbl" unicode="&#x2021;" horiz-adv-x="639" 
d="M383 320l128.001 2c21.333 0 38.666 -5.5 51.999 -16.5s20 -25.5 20 -43.5s-6.66699 -32.5 -20 -43.5s-30.666 -16.5 -51.999 -16.5c-54.667 0 -97.334 1 -128.001 3c2.66699 -105.333 4 -172 4 -200s-6 -49.833 -18 -65.5s-28.5 -23.5 -49.5 -23.5
s-37.667 7.66699 -50 23s-18.5 36 -18.5 62c0 3.33301 1.66699 71.333 5 204l-128 -3c-21.333 0 -38.833 5.5 -52.5 16.5s-20.5 25.5 -20.5 43.5s6.83301 32.5 20.5 43.5s31.167 16.5 52.5 16.5l129 -2v118l-128 -2c-21.333 0 -38.833 5.33301 -52.5 16s-20.5 25 -20.5 43
s6.83301 32.5 20.5 43.5s31.167 16.5 52.5 16.5l126 -3l-3 123c0 26 6 46.833 18 62.5s28.5 23.5 49.5 23.5s37.5 -7.83301 49.5 -23.5s18 -36.5 18 -62.5l-3 -123l128 3c22 0 39.5 -5.33301 52.5 -16s19.5 -25.167 19.5 -43.5s-6.5 -32.833 -19.5 -43.5
s-30.5 -16 -52.5 -16c-41.333 0 -84.333 0.666992 -129 2v-118z" />
    <glyph glyph-name="bullet" unicode="&#x2022;" horiz-adv-x="355" 
d="M271.5 496.5c19 -25.667 28.501 -58.332 28.501 -97.999s-12.5 -75.5 -37.5 -107.5s-55.833 -48 -92.5 -48s-64.834 13.333 -84.501 40s-29.5 59.667 -29.5 99s12.5 74.666 37.5 105.999s56.167 47 93.5 47s65.5 -12.833 84.5 -38.5z" />
    <glyph glyph-name="ellipsis" unicode="&#x2026;" horiz-adv-x="807" 
d="M203.5 140c14.333 -16 21.5 -35.665 21.5 -58.998s-8.16699 -44.333 -24.5 -63s-36.666 -28 -60.999 -28s-43.5 8.16699 -57.5 24.5s-21 36.166 -21 59.499s8 44.166 24 62.499s36.167 27.5 60.5 27.5s43.666 -8 57.999 -24zM463.5 140.002
c14.333 -16 21.5 -35.665 21.5 -58.998s-8.16699 -44.333 -24.5 -63s-36.666 -28 -60.999 -28s-43.5 8.16699 -57.5 24.5s-21 36.166 -21 59.499s8 44.166 24 62.499s36.167 27.5 60.5 27.5s43.666 -8 57.999 -24zM723.5 140.004c14.333 -16 21.5 -35.665 21.5 -58.998
s-8.16699 -44.333 -24.5 -63s-36.666 -28 -60.999 -28s-43.5 8.16699 -57.5 24.5s-21 36.166 -21 59.499s8 44.166 24 62.499s36.167 27.5 60.5 27.5s43.666 -8 57.999 -24z" />
    <glyph glyph-name="perthousand" unicode="&#x2030;" horiz-adv-x="1336" 
d="M664 681c0 -34.667 -18.668 -73 -56.001 -115l-179 -518c-14.667 -42 -39 -63 -73 -63c-16.667 0 -30.667 6 -42 18s-17 26.167 -17 42.5s8.66699 47.333 26 93l68.5 180c28.333 74.333 51.833 141.166 70.5 200.499c-6.66699 -2 -18.167 -3 -34.5 -3s-29.833 2 -40.5 6
c-1.33301 -51.333 -17.333 -94.5 -48 -129.5s-70.667 -52.5 -120 -52.5s-89.333 17.333 -120 52s-46 79 -46 133s15.833 99.167 47.5 135.5s71.834 54.5 120.501 54.5c29.333 0 68 -14 116 -42s87.667 -42 119 -42c12 0 25 2.33301 39 7c15.333 51.333 29 84 41 98
c14 15.333 31.5 23 52.5 23s38.833 -7.16699 53.5 -21.5s22 -33.166 22 -56.499zM838.999 308c30.667 -34.667 46 -79 46 -133s-15.833 -99.167 -47.5 -135.5s-72.5 -54.5 -122.5 -54.5s-90.333 17.5 -121 52.5s-46 79.5 -46 133.5s15.833 99 47.5 135s72.5 54 122.5 54
s90.333 -17.333 121 -52zM270.999 527c0 23.333 -4.33301 42.667 -13 58s-21 23 -37 23s-28.667 -7.66699 -38 -23s-14 -34.5 -14 -57.5s4.66699 -42.167 14 -57.5s21.833 -23 37.5 -23s28 7.5 37 22.5s13.5 34.167 13.5 57.5zM766.999 171.001
c0 23.333 -4.33301 42.667 -13 58s-21 23 -37 23s-28.667 -7.66699 -38 -23s-14 -34.5 -14 -57.5s4.66699 -42.167 14 -57.5s21.833 -23 37.5 -23s28 7.5 37 22.5s13.5 34.167 13.5 57.5zM1237 308.002c30.667 -34.667 46 -79 46 -133s-15.833 -99.167 -47.5 -135.5
s-72.5 -54.5 -122.5 -54.5s-90.333 17.5 -121 52.5s-46 79.5 -46 133.5s15.833 99 47.5 135s72.5 54 122.5 54s90.333 -17.333 121 -52zM1165 171.002c0 23.333 -4.33301 42.667 -13 58s-21 23 -37 23s-28.667 -7.66699 -38 -23s-14 -34.5 -14 -57.5
s4.66699 -42.167 14 -57.5s21.833 -23 37.5 -23s28 7.5 37 22.5s13.5 34.167 13.5 57.5z" />
    <glyph glyph-name="guilsinglleft" unicode="&#x2039;" horiz-adv-x="353" 
d="M233 434c-34.667 -30 -51.9961 -49.5 -51.9961 -58.5s17.333 -28.5 52 -58.5c12.667 -10.667 21.667 -19 27 -25c17.333 -16.667 26 -33 26 -49s-5.83301 -29.833 -17.5 -41.5s-23.5 -17.5 -35.5 -17.5s-21.833 2.16699 -29.5 6.5s-13.834 8.83301 -18.501 13.5
s-12.667 13.5 -24 26.5s-21 23.5 -29 31.5s-18.167 17.667 -30.5 29s-21.5 20 -27.5 26s-11.5 14.167 -16.5 24.5s-7.5 21.833 -7.5 34.5s2.5 24.167 7.5 34.5s10.5 18.333 16.5 24l27.5 25.5c12.333 11.333 22.5 21 30.5 29s17.667 18.5 29 31.5s19.333 21.833 24 26.5
c13.333 13.333 27.666 20 42.999 20s28.833 -5.83301 40.5 -17.5s17.5 -23.667 17.5 -36s-2.83301 -23.166 -8.5 -32.499s-11.334 -16.833 -17.001 -22.5s-14.834 -13.834 -27.501 -24.501z" />
    <glyph glyph-name="guilsinglright" unicode="&#x203a;" horiz-adv-x="353" 
d="M120 317c34.667 30 51.9961 49.5 51.9961 58.5s-17.333 28.5 -52 58.5l-28 24c-16.667 17.333 -25 34 -25 50s5.83301 29.833 17.5 41.5s23.5 17.5 35.5 17.5s21.833 -2.16699 29.5 -6.5s13.834 -8.83301 18.501 -13.5s12.667 -13.5 24 -26.5s21 -23.5 29 -31.5
s18.167 -17.667 30.5 -29l27.5 -25.5c6 -5.66699 11.5 -13.667 16.5 -24s7.5 -21.833 7.5 -34.5s-2.5 -24.167 -7.5 -34.5s-10.5 -18.5 -16.5 -24.5s-15.167 -14.667 -27.5 -26s-22.5 -21 -30.5 -29s-17.667 -18.5 -29 -31.5s-19.333 -21.833 -24 -26.5
c-13.333 -13.333 -27.666 -20 -42.999 -20s-28.833 5.83301 -40.5 17.5s-17.5 23.667 -17.5 36s2.83301 23.166 8.5 32.499s11.334 16.833 17.001 22.5s14.834 13.834 27.501 24.501z" />
    <glyph glyph-name="fraction" unicode="&#x2044;" horiz-adv-x="400" 
d="M319.5 510l-55.5 -141.499c-14 -37 -32 -90 -54 -159s-38.167 -117.833 -48.5 -146.5s-21.166 -48 -32.499 -58s-25.333 -15 -42 -15s-32 5.66699 -46 17s-21 27.666 -21 48.999c0 20 8 50.167 24 90.5l33.5 85l27 69l34 88c11 29 44.833 129.833 101.5 302.5
c8.66699 26 18.5 44 29.5 54s25.167 15 42.5 15s33.166 -5.33301 47.499 -16s21.5 -25 21.5 -43s-4.5 -40 -13.5 -66s-25 -67.667 -48 -125z" />
    <glyph glyph-name="Euro" unicode="&#x20ac;" horiz-adv-x="688" 
d="M273 488l157.999 2c22.667 0 41.167 -5.5 55.5 -16.5s21.5 -25.5 21.5 -43.5s-7.16699 -32.5 -21.5 -43.5s-32.833 -16.5 -55.5 -16.5l-144 3l-154 -3c-23.333 0 -42 5.5 -56 16.5s-21 25.667 -21 44s7.16699 32.833 21.5 43.5s34.833 16 61.5 16
c17.333 66.667 49.833 120.5 97.5 161.5s105.834 61.5 174.501 61.5c54 0 100.5 -12.667 139.5 -38s58.5 -52 58.5 -80c0 -14 -5.16699 -27 -15.5 -39s-25.5 -18 -45.5 -18s-40.333 8.33301 -61 25s-46 25 -76 25c-67.333 0 -113.333 -33.333 -138 -100zM286.999 325
l144.002 3c22.667 0 41.167 -5.5 55.5 -16.5s21.5 -25.5 21.5 -43.5s-7.16699 -32.5 -21.5 -43.5s-33.5 -16.5 -57.5 -16.5s-52.833 0.333008 -86.5 1s-56.834 1 -69.501 1c24.667 -66.667 70.667 -100 138 -100c30 0 55.333 8.33301 76 25s41 25 61 25s35.167 -6 45.5 -18
s15.5 -25 15.5 -39c0 -28 -19.5 -54.667 -58.5 -80s-85.5 -38 -139.5 -38c-68.667 0 -126.834 20.5 -174.501 61.5s-80.167 94.833 -97.5 161.5c-26.667 0 -47.167 5.33301 -61.5 16s-21.5 25.167 -21.5 43.5s7 33 21 44s32.667 16.5 56 16.5z" />
    </font>
</defs>
</svg>
